<svg width="24" height="24" viewBox="0 0 24 24" fill="none" xmlns="http://www.w3.org/2000/svg">
<g clip-path="url(#clip0_1994_17)">
<path d="M12.7497 23.25L12.7497 17.1956C13.9985 17.0145 15.1402 16.3897 15.9659 15.4355C16.7916 14.4814 17.2461 13.2618 17.2461 12C17.2461 10.7382 16.7916 9.51859 15.9659 8.56446C15.1402 7.61033 13.9985 6.98551 12.7497 6.80437L12.7497 0.75C12.7497 0.551087 12.6707 0.360322 12.5301 0.21967C12.3894 0.0790174 12.1987 -2.20631e-07 11.9997 -2.29325e-07C11.8008 -2.3802e-07 11.6101 0.0790174 11.4694 0.21967C11.3288 0.360322 11.2497 0.551087 11.2497 0.75L11.2497 6.80437C10.001 6.98551 8.85926 7.61033 8.03355 8.56446C7.20784 9.51859 6.75338 10.7382 6.75338 12C6.75338 13.2618 7.20784 14.4814 8.03355 15.4355C8.85926 16.3897 10.001 17.0145 11.2497 17.1956L11.2497 23.25C11.2497 23.4489 11.3288 23.6397 11.4694 23.7803C11.6101 23.921 11.8008 24 11.9997 24C12.1987 24 12.3894 23.921 12.5301 23.7803C12.6707 23.6397 12.7497 23.4489 12.7497 23.25ZM8.24974 12C8.24974 11.2583 8.46967 10.5333 8.88173 9.91661C9.29378 9.29993 9.87945 8.81928 10.5647 8.53545C11.2499 8.25162 12.0039 8.17736 12.7313 8.32205C13.4588 8.46675 14.1269 8.8239 14.6514 9.34835C15.1758 9.8728 15.533 10.541 15.6777 11.2684C15.8224 11.9958 15.7481 12.7498 15.4643 13.4351C15.1805 14.1203 14.6998 14.706 14.0831 15.118C13.4664 15.5301 12.7414 15.75 11.9997 15.75C11.0052 15.75 10.0513 15.3549 9.34809 14.6517C8.64483 13.9484 8.24974 12.9946 8.24974 12Z" fill="#44B6CE"/>
</g>
<defs>
<clipPath id="clip0_1994_17">
<rect width="24" height="24" fill="white" transform="translate(24) rotate(90)"/>
</clipPath>
</defs>
</svg>
