<svg width="140" height="40" viewBox="0 0 140 40" fill="none" xmlns="http://www.w3.org/2000/svg">
<path d="M62.7852 19.6318H60.2285L60.2148 18.2236H62.3613C62.7396 18.2236 63.0495 18.1758 63.291 18.0801C63.5326 17.9798 63.7126 17.8363 63.8311 17.6494C63.9541 17.458 64.0156 17.2256 64.0156 16.9521C64.0156 16.6423 63.9564 16.3916 63.8379 16.2002C63.724 16.0088 63.5439 15.8698 63.2979 15.7832C63.0563 15.6966 62.7441 15.6533 62.3613 15.6533H60.9395V24H58.8887V14.0469H62.3613C62.9401 14.0469 63.4574 14.1016 63.9131 14.2109C64.3734 14.3203 64.763 14.4867 65.082 14.71C65.401 14.9333 65.6449 15.2158 65.8135 15.5576C65.9821 15.8949 66.0664 16.2959 66.0664 16.7607C66.0664 17.1709 65.973 17.5492 65.7861 17.8955C65.6038 18.2419 65.3145 18.5244 64.918 18.7432C64.526 18.9619 64.0133 19.0827 63.3799 19.1055L62.7852 19.6318ZM62.6963 24H59.668L60.4678 22.4004H62.6963C63.0563 22.4004 63.3503 22.3434 63.5781 22.2295C63.806 22.111 63.9746 21.9515 64.084 21.751C64.1934 21.5505 64.248 21.3203 64.248 21.0605C64.248 20.7689 64.1979 20.516 64.0977 20.3018C64.002 20.0876 63.847 19.9235 63.6328 19.8096C63.4186 19.6911 63.1361 19.6318 62.7852 19.6318H60.8096L60.8232 18.2236H63.2842L63.7559 18.7773C64.362 18.7682 64.8496 18.8753 65.2188 19.0986C65.5924 19.3174 65.8636 19.6022 66.0322 19.9531C66.2054 20.304 66.292 20.68 66.292 21.0811C66.292 21.7191 66.153 22.2568 65.875 22.6943C65.597 23.1273 65.1891 23.4531 64.6514 23.6719C64.1182 23.8906 63.4665 24 62.6963 24ZM76.0059 18.791V19.2627C76.0059 20.0192 75.9033 20.6982 75.6982 21.2998C75.4932 21.9014 75.2038 22.4141 74.8301 22.8379C74.4564 23.2572 74.0098 23.5785 73.4902 23.8018C72.9753 24.0251 72.4033 24.1367 71.7744 24.1367C71.1501 24.1367 70.5781 24.0251 70.0586 23.8018C69.5436 23.5785 69.097 23.2572 68.7188 22.8379C68.3405 22.4141 68.0465 21.9014 67.8369 21.2998C67.6318 20.6982 67.5293 20.0192 67.5293 19.2627V18.791C67.5293 18.0299 67.6318 17.3509 67.8369 16.7539C68.042 16.1523 68.3314 15.6396 68.7051 15.2158C69.0833 14.792 69.5299 14.4684 70.0449 14.2451C70.5645 14.0218 71.1364 13.9102 71.7607 13.9102C72.3896 13.9102 72.9616 14.0218 73.4766 14.2451C73.9961 14.4684 74.4427 14.792 74.8164 15.2158C75.1947 15.6396 75.4863 16.1523 75.6914 16.7539C75.901 17.3509 76.0059 18.0299 76.0059 18.791ZM73.9346 19.2627V18.7773C73.9346 18.2487 73.8867 17.7839 73.791 17.3828C73.6953 16.9818 73.554 16.6445 73.3672 16.3711C73.1803 16.0977 72.9525 15.8926 72.6836 15.7559C72.4147 15.6146 72.1071 15.5439 71.7607 15.5439C71.4144 15.5439 71.1068 15.6146 70.8379 15.7559C70.5736 15.8926 70.348 16.0977 70.1611 16.3711C69.9788 16.6445 69.8398 16.9818 69.7441 17.3828C69.6484 17.7839 69.6006 18.2487 69.6006 18.7773V19.2627C69.6006 19.7868 69.6484 20.2516 69.7441 20.6572C69.8398 21.0583 69.9811 21.3978 70.168 21.6758C70.3548 21.9492 70.5827 22.1566 70.8516 22.2979C71.1204 22.4391 71.4281 22.5098 71.7744 22.5098C72.1208 22.5098 72.4284 22.4391 72.6973 22.2979C72.9661 22.1566 73.1917 21.9492 73.374 21.6758C73.5563 21.3978 73.6953 21.0583 73.791 20.6572C73.8867 20.2516 73.9346 19.7868 73.9346 19.2627ZM85.6582 18.791V19.2627C85.6582 20.0192 85.5557 20.6982 85.3506 21.2998C85.1455 21.9014 84.8561 22.4141 84.4824 22.8379C84.1087 23.2572 83.6621 23.5785 83.1426 23.8018C82.6276 24.0251 82.0557 24.1367 81.4268 24.1367C80.8024 24.1367 80.2305 24.0251 79.7109 23.8018C79.196 23.5785 78.7493 23.2572 78.3711 22.8379C77.9928 22.4141 77.6989 21.9014 77.4893 21.2998C77.2842 20.6982 77.1816 20.0192 77.1816 19.2627V18.791C77.1816 18.0299 77.2842 17.3509 77.4893 16.7539C77.6943 16.1523 77.9837 15.6396 78.3574 15.2158C78.7357 14.792 79.1823 14.4684 79.6973 14.2451C80.2168 14.0218 80.7887 13.9102 81.4131 13.9102C82.042 13.9102 82.6139 14.0218 83.1289 14.2451C83.6484 14.4684 84.0951 14.792 84.4688 15.2158C84.847 15.6396 85.1387 16.1523 85.3438 16.7539C85.5534 17.3509 85.6582 18.0299 85.6582 18.791ZM83.5869 19.2627V18.7773C83.5869 18.2487 83.5391 17.7839 83.4434 17.3828C83.3477 16.9818 83.2064 16.6445 83.0195 16.3711C82.8327 16.0977 82.6048 15.8926 82.3359 15.7559C82.0671 15.6146 81.7594 15.5439 81.4131 15.5439C81.0667 15.5439 80.7591 15.6146 80.4902 15.7559C80.2259 15.8926 80.0003 16.0977 79.8135 16.3711C79.6312 16.6445 79.4922 16.9818 79.3965 17.3828C79.3008 17.7839 79.2529 18.2487 79.2529 18.7773V19.2627C79.2529 19.7868 79.3008 20.2516 79.3965 20.6572C79.4922 21.0583 79.6335 21.3978 79.8203 21.6758C80.0072 21.9492 80.235 22.1566 80.5039 22.2979C80.7728 22.4391 81.0804 22.5098 81.4268 22.5098C81.7731 22.5098 82.0807 22.4391 82.3496 22.2979C82.6185 22.1566 82.8441 21.9492 83.0264 21.6758C83.2087 21.3978 83.3477 21.0583 83.4434 20.6572C83.5391 20.2516 83.5869 19.7868 83.5869 19.2627ZM91.1201 14.0469V24H89.0762V14.0469H91.1201ZM94.1826 14.0469V15.6533H86.0615V14.0469H94.1826ZM100.424 21.3955C100.424 21.2178 100.396 21.0583 100.342 20.917C100.292 20.7712 100.196 20.639 100.055 20.5205C99.9134 20.3975 99.7152 20.2767 99.46 20.1582C99.2048 20.0397 98.8743 19.9167 98.4688 19.7891C98.0176 19.6432 97.5892 19.4792 97.1836 19.2969C96.7826 19.1146 96.4271 18.9027 96.1172 18.6611C95.8118 18.415 95.5703 18.1302 95.3926 17.8066C95.2194 17.4831 95.1328 17.1071 95.1328 16.6787C95.1328 16.264 95.224 15.888 95.4062 15.5508C95.5885 15.209 95.8438 14.9173 96.1719 14.6758C96.5 14.4297 96.8874 14.2406 97.334 14.1084C97.7852 13.9762 98.2796 13.9102 98.8174 13.9102C99.5511 13.9102 100.191 14.0423 100.738 14.3066C101.285 14.571 101.709 14.9333 102.01 15.3936C102.315 15.8538 102.468 16.3802 102.468 16.9727H100.431C100.431 16.681 100.369 16.4258 100.246 16.207C100.128 15.9837 99.9453 15.8083 99.6992 15.6807C99.4577 15.5531 99.1523 15.4893 98.7832 15.4893C98.4277 15.4893 98.1315 15.5439 97.8945 15.6533C97.6576 15.7581 97.4798 15.9017 97.3613 16.084C97.2428 16.2617 97.1836 16.4622 97.1836 16.6855C97.1836 16.8542 97.2246 17.0068 97.3066 17.1436C97.3932 17.2803 97.5208 17.4079 97.6895 17.5264C97.8581 17.6449 98.0654 17.7565 98.3115 17.8613C98.5576 17.9661 98.8424 18.0687 99.166 18.1689C99.7083 18.333 100.185 18.5176 100.595 18.7227C101.009 18.9277 101.356 19.1579 101.634 19.4131C101.912 19.6683 102.121 19.9577 102.263 20.2812C102.404 20.6048 102.475 20.9717 102.475 21.3818C102.475 21.8148 102.39 22.2021 102.222 22.5439C102.053 22.8857 101.809 23.1751 101.49 23.4121C101.171 23.6491 100.791 23.8291 100.349 23.9521C99.9066 24.0752 99.4121 24.1367 98.8652 24.1367C98.373 24.1367 97.8877 24.0729 97.4092 23.9453C96.9307 23.8132 96.4954 23.6149 96.1035 23.3506C95.7161 23.0863 95.4062 22.749 95.1738 22.3389C94.9414 21.9287 94.8252 21.4434 94.8252 20.8828H96.8828C96.8828 21.1927 96.9307 21.4548 97.0264 21.6689C97.1221 21.8831 97.2565 22.0563 97.4297 22.1885C97.6074 22.3206 97.8171 22.4163 98.0586 22.4756C98.3047 22.5348 98.5736 22.5645 98.8652 22.5645C99.2207 22.5645 99.5124 22.5143 99.7402 22.4141C99.9727 22.3138 100.144 22.1748 100.253 21.9971C100.367 21.8193 100.424 21.6188 100.424 21.3955ZM108.319 14.0469V24H106.275V14.0469H108.319ZM111.382 14.0469V15.6533H103.261V14.0469H111.382ZM112.551 14.0469H116.263C117.024 14.0469 117.678 14.1608 118.225 14.3887C118.776 14.6165 119.2 14.9538 119.496 15.4004C119.792 15.847 119.94 16.3962 119.94 17.0479C119.94 17.5811 119.849 18.0391 119.667 18.4219C119.489 18.8001 119.236 19.1169 118.908 19.3721C118.585 19.6227 118.204 19.8232 117.767 19.9736L117.117 20.3154H113.891L113.877 18.7158H116.276C116.636 18.7158 116.935 18.652 117.172 18.5244C117.409 18.3968 117.587 18.2191 117.705 17.9912C117.828 17.7633 117.89 17.499 117.89 17.1982C117.89 16.8792 117.83 16.6035 117.712 16.3711C117.593 16.1387 117.413 15.9609 117.172 15.8379C116.93 15.7148 116.627 15.6533 116.263 15.6533H114.602V24H112.551V14.0469ZM118.115 24L115.846 19.5635L118.013 19.5498L120.31 23.9043V24H118.115ZM125.566 15.749L122.859 24H120.679L124.377 14.0469H125.765L125.566 15.749ZM127.815 24L125.102 15.749L124.883 14.0469H126.284L130.003 24H127.815ZM127.692 20.2949V21.9014H122.436V20.2949H127.692ZM134.802 20.4521H132.266V18.8525H134.802C135.194 18.8525 135.513 18.7887 135.759 18.6611C136.005 18.529 136.185 18.3467 136.299 18.1143C136.413 17.8818 136.47 17.6198 136.47 17.3281C136.47 17.0319 136.413 16.7562 136.299 16.501C136.185 16.2458 136.005 16.0407 135.759 15.8857C135.513 15.7308 135.194 15.6533 134.802 15.6533H132.977V24H130.926V14.0469H134.802C135.581 14.0469 136.249 14.1882 136.805 14.4707C137.365 14.7487 137.794 15.1338 138.09 15.626C138.386 16.1182 138.534 16.681 138.534 17.3145C138.534 17.957 138.386 18.513 138.09 18.9824C137.794 19.4518 137.365 19.8141 136.805 20.0693C136.249 20.3245 135.581 20.4521 134.802 20.4521Z" fill="#008000"/>
<path d="M26.0982 24.9937C26.0982 28.7804 22.5518 28.6929 22.1768 28.6929H14.9545V21.3991H22.1768C25.9768 21.3991 26.0982 24.2473 26.0982 24.9937ZM21.6205 18.4643C21.6804 18.4643 25.0527 18.5536 25.0527 15.2223C25.0527 13.8366 24.7393 12.0196 21.6205 12.0196H14.9545V18.4643H21.6205ZM40 6.66696V33.333C39.9948 35.0996 39.2907 36.7924 38.0416 38.0416C36.7924 39.2907 35.0996 39.9948 33.333 40H6.66696C4.90037 39.9948 3.20761 39.2907 1.95843 38.0416C0.709256 36.7924 0.00518205 35.0996 0 33.333L0 6.66696C0.00518205 4.90037 0.709256 3.20761 1.95843 1.95843C3.20761 0.709257 4.90037 0.00518205 6.66696 0H33.333C35.0996 0.00518205 36.7924 0.709257 38.0416 1.95843C39.2907 3.20761 39.9948 4.90037 40 6.66696ZM30.183 25.5232C30.183 23.5973 29.5893 20.3187 25.8036 19.5098V19.4446C27.8491 18.5714 29.1375 16.9223 29.1375 14.4768C29.1375 13.8518 29.3161 8.69286 22.2089 8.69286H10.8696V32.0259C22.3188 32.0259 23.358 32.1759 25.4768 31.5161C26.7455 31.1214 30.183 29.9107 30.183 25.5232Z" fill="#008000"/>
</svg>
