<svg width="89" height="45" viewBox="0 0 89 45" fill="none" xmlns="http://www.w3.org/2000/svg">
<path d="M0 0L3.63542 39.0592L20 44.2105L36.3646 39.0592L40 0H0ZM32.6146 7.89474L32.1146 12.5625L20.1042 17.4276L20.0729 17.4375H31.6875L30.3542 31.9046L20.125 34.7368L9.83333 31.8553L9.16667 24.5625H14.2604L14.5938 28.3421L20.0729 29.6546L25.7708 28.1349L26.1562 22.0559L8.83333 22.0066V21.9967L8.8125 22.0066L8.4375 17.4375L20.1146 12.8289L20.7917 12.5625H7.98958L7.38542 7.89474H32.6146Z" fill="#008000"/>
<path d="M57.6582 23.6982H59.7021C59.6611 24.3682 59.4766 24.9629 59.1484 25.4824C58.8249 26.002 58.3714 26.4076 57.7881 26.6992C57.2093 26.9909 56.512 27.1367 55.6963 27.1367C55.0583 27.1367 54.4863 27.0273 53.9805 26.8086C53.4746 26.5853 53.0417 26.2663 52.6816 25.8516C52.3262 25.4368 52.055 24.9355 51.8682 24.3477C51.6813 23.7598 51.5879 23.1012 51.5879 22.3721V21.6816C51.5879 20.9525 51.6836 20.2939 51.875 19.7061C52.071 19.1136 52.349 18.61 52.709 18.1953C53.0736 17.7806 53.5088 17.4616 54.0146 17.2383C54.5205 17.015 55.0856 16.9033 55.71 16.9033C56.5394 16.9033 57.2389 17.0537 57.8086 17.3545C58.3828 17.6553 58.8271 18.07 59.1416 18.5986C59.4606 19.1273 59.652 19.7288 59.7158 20.4033H57.665C57.6423 20.0023 57.5625 19.6628 57.4258 19.3848C57.2891 19.1022 57.0817 18.8903 56.8037 18.749C56.5303 18.6032 56.1657 18.5303 55.71 18.5303C55.3682 18.5303 55.0697 18.5941 54.8145 18.7217C54.5592 18.8493 54.3451 19.043 54.1719 19.3027C53.9987 19.5625 53.8688 19.8906 53.7822 20.2871C53.7002 20.679 53.6592 21.1393 53.6592 21.668V22.3721C53.6592 22.887 53.6979 23.3405 53.7754 23.7324C53.8529 24.1198 53.9714 24.4479 54.1309 24.7168C54.2949 24.9811 54.5046 25.1816 54.7598 25.3184C55.0195 25.4505 55.3317 25.5166 55.6963 25.5166C56.1247 25.5166 56.4779 25.4482 56.7559 25.3115C57.0339 25.1748 57.2458 24.972 57.3916 24.7031C57.542 24.4342 57.6309 24.0993 57.6582 23.6982ZM66.2305 24.3955C66.2305 24.2178 66.2031 24.0583 66.1484 23.917C66.0983 23.7712 66.0026 23.639 65.8613 23.5205C65.7201 23.3975 65.5218 23.2767 65.2666 23.1582C65.0114 23.0397 64.681 22.9167 64.2754 22.7891C63.8242 22.6432 63.3958 22.4792 62.9902 22.2969C62.5892 22.1146 62.2337 21.9027 61.9238 21.6611C61.6185 21.415 61.377 21.1302 61.1992 20.8066C61.026 20.4831 60.9395 20.1071 60.9395 19.6787C60.9395 19.264 61.0306 18.888 61.2129 18.5508C61.3952 18.209 61.6504 17.9173 61.9785 17.6758C62.3066 17.4297 62.694 17.2406 63.1406 17.1084C63.5918 16.9762 64.0863 16.9102 64.624 16.9102C65.3577 16.9102 65.998 17.0423 66.5449 17.3066C67.0918 17.571 67.5156 17.9333 67.8164 18.3936C68.1217 18.8538 68.2744 19.3802 68.2744 19.9727H66.2373C66.2373 19.681 66.1758 19.4258 66.0527 19.207C65.9342 18.9837 65.752 18.8083 65.5059 18.6807C65.2643 18.5531 64.959 18.4893 64.5898 18.4893C64.2344 18.4893 63.9382 18.5439 63.7012 18.6533C63.4642 18.7581 63.2865 18.9017 63.168 19.084C63.0495 19.2617 62.9902 19.4622 62.9902 19.6855C62.9902 19.8542 63.0312 20.0068 63.1133 20.1436C63.1999 20.2803 63.3275 20.4079 63.4961 20.5264C63.6647 20.6449 63.8721 20.7565 64.1182 20.8613C64.3643 20.9661 64.6491 21.0687 64.9727 21.1689C65.515 21.333 65.9912 21.5176 66.4014 21.7227C66.8161 21.9277 67.1624 22.1579 67.4404 22.4131C67.7184 22.6683 67.9281 22.9577 68.0693 23.2812C68.2106 23.6048 68.2812 23.9717 68.2812 24.3818C68.2812 24.8148 68.1969 25.2021 68.0283 25.5439C67.8597 25.8857 67.6159 26.1751 67.2969 26.4121C66.9779 26.6491 66.5973 26.8291 66.1553 26.9521C65.7132 27.0752 65.2188 27.1367 64.6719 27.1367C64.1797 27.1367 63.6943 27.0729 63.2158 26.9453C62.7373 26.8132 62.3021 26.6149 61.9102 26.3506C61.5228 26.0863 61.2129 25.749 60.9805 25.3389C60.748 24.9287 60.6318 24.4434 60.6318 23.8828H62.6895C62.6895 24.1927 62.7373 24.4548 62.833 24.6689C62.9287 24.8831 63.0632 25.0563 63.2363 25.1885C63.4141 25.3206 63.6237 25.4163 63.8652 25.4756C64.1113 25.5348 64.3802 25.5645 64.6719 25.5645C65.0273 25.5645 65.319 25.5143 65.5469 25.4141C65.7793 25.3138 65.9502 25.1748 66.0596 24.9971C66.1735 24.8193 66.2305 24.6188 66.2305 24.3955ZM74.8574 24.3955C74.8574 24.2178 74.8301 24.0583 74.7754 23.917C74.7253 23.7712 74.6296 23.639 74.4883 23.5205C74.347 23.3975 74.1488 23.2767 73.8936 23.1582C73.6383 23.0397 73.3079 22.9167 72.9023 22.7891C72.4512 22.6432 72.0228 22.4792 71.6172 22.2969C71.2161 22.1146 70.8607 21.9027 70.5508 21.6611C70.2454 21.415 70.0039 21.1302 69.8262 20.8066C69.653 20.4831 69.5664 20.1071 69.5664 19.6787C69.5664 19.264 69.6576 18.888 69.8398 18.5508C70.0221 18.209 70.2773 17.9173 70.6055 17.6758C70.9336 17.4297 71.321 17.2406 71.7676 17.1084C72.2188 16.9762 72.7132 16.9102 73.251 16.9102C73.9847 16.9102 74.625 17.0423 75.1719 17.3066C75.7188 17.571 76.1426 17.9333 76.4434 18.3936C76.7487 18.8538 76.9014 19.3802 76.9014 19.9727H74.8643C74.8643 19.681 74.8027 19.4258 74.6797 19.207C74.5612 18.9837 74.3789 18.8083 74.1328 18.6807C73.8913 18.5531 73.5859 18.4893 73.2168 18.4893C72.8613 18.4893 72.5651 18.5439 72.3281 18.6533C72.0911 18.7581 71.9134 18.9017 71.7949 19.084C71.6764 19.2617 71.6172 19.4622 71.6172 19.6855C71.6172 19.8542 71.6582 20.0068 71.7402 20.1436C71.8268 20.2803 71.9544 20.4079 72.123 20.5264C72.2917 20.6449 72.499 20.7565 72.7451 20.8613C72.9912 20.9661 73.276 21.0687 73.5996 21.1689C74.1419 21.333 74.6182 21.5176 75.0283 21.7227C75.443 21.9277 75.7894 22.1579 76.0674 22.4131C76.3454 22.6683 76.555 22.9577 76.6963 23.2812C76.8376 23.6048 76.9082 23.9717 76.9082 24.3818C76.9082 24.8148 76.8239 25.2021 76.6553 25.5439C76.4867 25.8857 76.2428 26.1751 75.9238 26.4121C75.6048 26.6491 75.2243 26.8291 74.7822 26.9521C74.3402 27.0752 73.8457 27.1367 73.2988 27.1367C72.8066 27.1367 72.3213 27.0729 71.8428 26.9453C71.3643 26.8132 70.929 26.6149 70.5371 26.3506C70.1497 26.0863 69.8398 25.749 69.6074 25.3389C69.375 24.9287 69.2588 24.4434 69.2588 23.8828H71.3164C71.3164 24.1927 71.3643 24.4548 71.46 24.6689C71.5557 24.8831 71.6901 25.0563 71.8633 25.1885C72.041 25.3206 72.2507 25.4163 72.4922 25.4756C72.7383 25.5348 73.0072 25.5645 73.2988 25.5645C73.6543 25.5645 73.946 25.5143 74.1738 25.4141C74.4062 25.3138 74.5771 25.1748 74.6865 24.9971C74.8005 24.8193 74.8574 24.6188 74.8574 24.3955ZM83.6006 21.1689H84.6533C84.9906 21.1689 85.2686 21.112 85.4873 20.998C85.7061 20.8796 85.8678 20.7155 85.9727 20.5059C86.082 20.2917 86.1367 20.0433 86.1367 19.7607C86.1367 19.5055 86.0866 19.2799 85.9863 19.084C85.8906 18.8835 85.7425 18.7285 85.542 18.6191C85.3415 18.5052 85.0885 18.4482 84.7832 18.4482C84.5417 18.4482 84.3184 18.4961 84.1133 18.5918C83.9082 18.6875 83.7441 18.8219 83.6211 18.9951C83.498 19.1683 83.4365 19.3779 83.4365 19.624H81.4609C81.4609 19.0771 81.6068 18.6009 81.8984 18.1953C82.1947 17.7897 82.5911 17.473 83.0879 17.2451C83.5846 17.0173 84.1315 16.9033 84.7285 16.9033C85.403 16.9033 85.9932 17.0127 86.499 17.2314C87.0049 17.4456 87.3991 17.7624 87.6816 18.1816C87.9642 18.6009 88.1055 19.1204 88.1055 19.7402C88.1055 20.0547 88.0326 20.36 87.8867 20.6562C87.7409 20.9479 87.5312 21.2122 87.2578 21.4492C86.9889 21.6816 86.6608 21.8685 86.2734 22.0098C85.8861 22.1465 85.4508 22.2148 84.9678 22.2148H83.6006V21.1689ZM83.6006 22.666V21.6475H84.9678C85.5101 21.6475 85.9863 21.709 86.3965 21.832C86.8066 21.9551 87.1507 22.1328 87.4287 22.3652C87.7067 22.5931 87.9163 22.8643 88.0576 23.1787C88.1989 23.4886 88.2695 23.8327 88.2695 24.2109C88.2695 24.6758 88.1807 25.0905 88.0029 25.4551C87.8252 25.8151 87.5745 26.1204 87.251 26.3711C86.932 26.6217 86.5583 26.8132 86.1299 26.9453C85.7015 27.0729 85.2344 27.1367 84.7285 27.1367C84.3092 27.1367 83.8968 27.0798 83.4912 26.9658C83.0902 26.8473 82.7256 26.6719 82.3975 26.4395C82.0739 26.2025 81.8141 25.9062 81.6182 25.5508C81.4268 25.1908 81.3311 24.7646 81.3311 24.2725H83.3066C83.3066 24.5277 83.3704 24.7555 83.498 24.9561C83.6257 25.1566 83.8011 25.3138 84.0244 25.4277C84.2523 25.5417 84.5052 25.5986 84.7832 25.5986C85.0977 25.5986 85.3665 25.5417 85.5898 25.4277C85.8177 25.3092 85.9909 25.1452 86.1094 24.9355C86.2324 24.7214 86.2939 24.473 86.2939 24.1904C86.2939 23.8258 86.2279 23.5342 86.0957 23.3154C85.9635 23.0921 85.7744 22.9281 85.5283 22.8232C85.2822 22.7184 84.9906 22.666 84.6533 22.666H83.6006Z" fill="#008000"/>
</svg>
