<svg width="94" height="41" viewBox="0 0 94 41" fill="none" xmlns="http://www.w3.org/2000/svg">
<path d="M52.9395 19.0469V29H50.8887V19.0469H52.9395ZM56.9043 23.2988V24.8984H52.3789V23.2988H56.9043ZM57.3828 19.0469V20.6533H52.3789V19.0469H57.3828ZM60.7529 19.0469V29H58.709V19.0469H60.7529ZM70.5625 23.7979V27.7422C70.4076 27.929 70.1683 28.1318 69.8447 28.3506C69.5212 28.5648 69.1042 28.7493 68.5938 28.9043C68.0833 29.0592 67.4658 29.1367 66.7412 29.1367C66.0986 29.1367 65.513 29.0319 64.9844 28.8223C64.4557 28.6081 64 28.2959 63.6172 27.8857C63.2389 27.4756 62.9473 26.9743 62.7422 26.3818C62.5371 25.7848 62.4346 25.1035 62.4346 24.3379V23.7158C62.4346 22.9502 62.5326 22.2689 62.7285 21.6719C62.929 21.0749 63.2139 20.5713 63.583 20.1611C63.9521 19.751 64.3919 19.4388 64.9023 19.2246C65.4128 19.0104 65.9801 18.9033 66.6045 18.9033C67.4704 18.9033 68.1813 19.0446 68.7373 19.3271C69.2933 19.6051 69.7171 19.9925 70.0088 20.4893C70.305 20.9814 70.4873 21.5465 70.5557 22.1846H68.5664C68.5163 21.8473 68.4206 21.5534 68.2793 21.3027C68.138 21.0521 67.9352 20.8561 67.6709 20.7148C67.4111 20.5736 67.0739 20.5029 66.6592 20.5029C66.3174 20.5029 66.012 20.5736 65.7432 20.7148C65.4788 20.8516 65.2555 21.0544 65.0732 21.3232C64.891 21.5921 64.752 21.9248 64.6562 22.3213C64.5605 22.7178 64.5127 23.1781 64.5127 23.7021V24.3379C64.5127 24.8574 64.5628 25.3177 64.6631 25.7188C64.7633 26.1152 64.9115 26.4502 65.1074 26.7236C65.3079 26.9925 65.554 27.1953 65.8457 27.332C66.1374 27.4688 66.4769 27.5371 66.8643 27.5371C67.1878 27.5371 67.4567 27.5098 67.6709 27.4551C67.8896 27.4004 68.0651 27.3343 68.1973 27.2568C68.334 27.1748 68.4388 27.0973 68.5117 27.0244V25.2607H66.6387V23.7979H70.5625ZM73.1533 19.0469H74.8896L77.4463 26.3545L80.0029 19.0469H81.7393L78.1436 29H76.749L73.1533 19.0469ZM72.2168 19.0469H73.9463L74.2607 26.1699V29H72.2168V19.0469ZM80.9463 19.0469H82.6826V29H80.6318V26.1699L80.9463 19.0469ZM88.6504 20.749L85.9434 29H83.7627L87.4609 19.0469H88.8486L88.6504 20.749ZM90.8994 29L88.1855 20.749L87.9668 19.0469H89.3682L93.0869 29H90.8994ZM90.7764 25.2949V26.9014H85.5195V25.2949H90.7764Z" fill="#008000"/>
<path d="M21.001 13.6693C22.8573 13.6693 24.6375 12.9493 25.95 11.6675C27.2626 10.3858 28 8.64733 28 6.83467C28 5.022 27.2626 3.28358 25.95 2.00183C24.6375 0.720079 22.8573 0 21.001 0L7.00308 0C5.14792 0 3.36875 0.719657 2.05695 2.00066C0.74516 3.28165 0.00820223 5.01906 0.00820223 6.83066C0.00820223 8.64227 0.74516 10.3797 2.05695 11.6607C3.36875 12.9417 5.14792 13.6613 7.00308 13.6613C5.14683 13.6613 3.36662 14.3814 2.05405 15.6632C0.741492 16.9449 0.00410213 18.6833 0.00410213 20.496C0.00410213 22.3087 0.741492 24.0471 2.05405 25.3288C3.36662 26.6106 5.14683 27.3307 7.00308 27.3307C5.61881 27.3299 4.26539 27.7299 3.11396 28.4803C1.96254 29.2306 1.06482 30.2975 0.534338 31.5461C0.00385356 32.7947 -0.135574 34.1688 0.133688 35.4948C0.402949 36.8207 1.06881 38.0389 2.04706 38.9953C3.02531 39.9517 4.27201 40.6034 5.62952 40.8679C6.98703 41.1324 8.39438 40.9978 9.67358 40.4813C10.9528 39.9647 12.0464 39.0893 12.8161 37.9658C13.5859 36.8423 13.9971 35.5211 13.998 34.1693V13.6693H21.001ZM21.001 13.6693C19.6176 13.6693 18.2652 14.0699 17.1149 14.8205C15.9646 15.5711 15.068 16.6379 14.5386 17.886C14.0092 19.1342 13.8707 20.5076 14.1406 21.8326C14.4105 23.1576 15.0767 24.3747 16.0549 25.33C17.0332 26.2853 18.2795 26.9359 19.6364 27.1994C20.9933 27.463 22.3997 27.3277 23.6779 26.8107C24.956 26.2937 26.0484 25.4182 26.8171 24.2949C27.5857 23.1716 27.9959 21.851 27.9959 20.5C27.9957 18.6885 27.2587 16.9512 25.9469 15.6702C24.6352 14.3893 22.8561 13.6695 21.001 13.6693Z" fill="#008000"/>
</svg>
