<svg width="84" height="43" viewBox="0 0 84 43" fill="none" xmlns="http://www.w3.org/2000/svg">
<path d="M69.7773 24.7979V28.7422C69.6224 28.929 69.3831 29.1318 69.0596 29.3506C68.736 29.5648 68.319 29.7493 67.8086 29.9043C67.2982 30.0592 66.6807 30.1367 65.9561 30.1367C65.3135 30.1367 64.7279 30.0319 64.1992 29.8223C63.6706 29.6081 63.2148 29.2959 62.832 28.8857C62.4538 28.4756 62.1621 27.9743 61.957 27.3818C61.752 26.7848 61.6494 26.1035 61.6494 25.3379V24.7158C61.6494 23.9502 61.7474 23.2689 61.9434 22.6719C62.1439 22.0749 62.4287 21.5713 62.7979 21.1611C63.167 20.751 63.6068 20.4388 64.1172 20.2246C64.6276 20.0104 65.195 19.9033 65.8193 19.9033C66.6852 19.9033 67.3962 20.0446 67.9521 20.3271C68.5081 20.6051 68.932 20.9925 69.2236 21.4893C69.5199 21.9814 69.7021 22.5465 69.7705 23.1846H67.7812C67.7311 22.8473 67.6354 22.5534 67.4941 22.3027C67.3529 22.0521 67.1501 21.8561 66.8857 21.7148C66.626 21.5736 66.2887 21.5029 65.874 21.5029C65.5322 21.5029 65.2269 21.5736 64.958 21.7148C64.6937 21.8516 64.4704 22.0544 64.2881 22.3232C64.1058 22.5921 63.9668 22.9248 63.8711 23.3213C63.7754 23.7178 63.7275 24.1781 63.7275 24.7021V25.3379C63.7275 25.8574 63.7777 26.3177 63.8779 26.7188C63.9782 27.1152 64.1263 27.4502 64.3223 27.7236C64.5228 27.9925 64.7689 28.1953 65.0605 28.332C65.3522 28.4688 65.6917 28.5371 66.0791 28.5371C66.4027 28.5371 66.6715 28.5098 66.8857 28.4551C67.1045 28.4004 67.2799 28.3343 67.4121 28.2568C67.5488 28.1748 67.6536 28.0973 67.7266 28.0244V26.2607H65.8535V24.7979H69.7773ZM73.6123 20.0469V30H71.5684V20.0469H73.6123ZM79.7783 20.0469V30H77.7344V20.0469H79.7783ZM82.8408 20.0469V21.6533H74.7197V20.0469H82.8408Z" fill="#008000"/>
<path d="M42.1889 19.5852L23.4196 0.810742C22.9 0.291608 22.1956 0 21.4611 0C20.7266 0 20.0222 0.291608 19.5026 0.810742L15.6 4.71056L20.545 9.65565C23.1422 8.77835 25.6013 11.2653 24.7096 13.8482L29.4761 18.6148C32.7615 17.4822 35.3483 21.5903 32.8806 24.0561C30.338 26.5987 26.1417 23.7806 27.5056 20.4721L23.0568 16.029V27.7246C25.4852 28.9282 25.1934 31.7415 23.9283 33.0037C23.3103 33.6214 22.4722 33.9684 21.5984 33.9684C20.7246 33.9684 19.8865 33.6214 19.2684 33.0037C17.582 31.3144 18.2059 28.5011 20.3482 27.6286V15.8226C18.3518 15.0058 17.9871 12.8721 18.5591 11.5033L13.6842 6.62256L0.811123 19.4978C0.291764 20.0173 0 20.7218 0 21.4564C0 22.1909 0.291764 22.8954 0.811123 23.4149L19.5861 42.1893C20.1055 42.7084 20.8098 43 21.5442 43C22.2785 43 22.9828 42.7084 23.5022 42.1893L42.1889 23.5023C42.7082 22.9828 43 22.2783 43 21.5437C43 20.8091 42.7082 20.1046 42.1889 19.5852V19.5852Z" fill="#008000"/>
</svg>
