<svg width="134" height="43" viewBox="0 0 134 43" fill="none" xmlns="http://www.w3.org/2000/svg">
<path d="M54.915 26.9443V20.0469H56.959V26.9443C56.959 27.6097 56.8132 28.1816 56.5215 28.6602C56.2298 29.1341 55.8311 29.4987 55.3252 29.7539C54.8239 30.0091 54.2588 30.1367 53.6299 30.1367C52.9782 30.1367 52.4017 30.0273 51.9004 29.8086C51.3991 29.5898 51.0049 29.2549 50.7178 28.8037C50.4307 28.348 50.2871 27.7715 50.2871 27.0742H52.3447C52.3447 27.4388 52.3949 27.7282 52.4951 27.9424C52.5999 28.1566 52.748 28.3092 52.9395 28.4004C53.1309 28.4915 53.361 28.5371 53.6299 28.5371C53.8896 28.5371 54.1152 28.4756 54.3066 28.3525C54.498 28.2295 54.6462 28.0495 54.751 27.8125C54.8604 27.5755 54.915 27.2861 54.915 26.9443ZM62.6055 21.749L59.8984 30H57.7178L61.416 20.0469H62.8037L62.6055 21.749ZM64.8545 30L62.1406 21.749L61.9219 20.0469H63.3232L67.042 30H64.8545ZM64.7314 26.2949V27.9014H59.4746V26.2949H64.7314ZM70.9932 27.9219L73.3379 20.0469H75.6211L72.1553 30H70.6514L70.9932 27.9219ZM68.833 20.0469L71.1709 27.9219L71.5264 30H70.0088L66.5635 20.0469H68.833ZM80.0781 21.749L77.3711 30H75.1904L78.8887 20.0469H80.2764L80.0781 21.749ZM82.3271 30L79.6133 21.749L79.3945 20.0469H80.7959L84.5146 30H82.3271ZM82.2041 26.2949V27.9014H76.9473V26.2949H82.2041ZM90.6191 27.3955C90.6191 27.2178 90.5918 27.0583 90.5371 26.917C90.487 26.7712 90.3913 26.639 90.25 26.5205C90.1087 26.3975 89.9105 26.2767 89.6553 26.1582C89.4001 26.0397 89.0697 25.9167 88.6641 25.7891C88.2129 25.6432 87.7845 25.4792 87.3789 25.2969C86.9779 25.1146 86.6224 24.9027 86.3125 24.6611C86.0072 24.415 85.7656 24.1302 85.5879 23.8066C85.4147 23.4831 85.3281 23.1071 85.3281 22.6787C85.3281 22.264 85.4193 21.888 85.6016 21.5508C85.7839 21.209 86.0391 20.9173 86.3672 20.6758C86.6953 20.4297 87.0827 20.2406 87.5293 20.1084C87.9805 19.9762 88.4749 19.9102 89.0127 19.9102C89.7464 19.9102 90.3867 20.0423 90.9336 20.3066C91.4805 20.571 91.9043 20.9333 92.2051 21.3936C92.5104 21.8538 92.6631 22.3802 92.6631 22.9727H90.626C90.626 22.681 90.5645 22.4258 90.4414 22.207C90.3229 21.9837 90.1406 21.8083 89.8945 21.6807C89.653 21.5531 89.3477 21.4893 88.9785 21.4893C88.623 21.4893 88.3268 21.5439 88.0898 21.6533C87.8529 21.7581 87.6751 21.9017 87.5566 22.084C87.4382 22.2617 87.3789 22.4622 87.3789 22.6855C87.3789 22.8542 87.4199 23.0068 87.502 23.1436C87.5885 23.2803 87.7161 23.4079 87.8848 23.5264C88.0534 23.6449 88.2607 23.7565 88.5068 23.8613C88.7529 23.9661 89.0378 24.0687 89.3613 24.1689C89.9036 24.333 90.3799 24.5176 90.79 24.7227C91.2048 24.9277 91.5511 25.1579 91.8291 25.4131C92.1071 25.6683 92.3167 25.9577 92.458 26.2812C92.5993 26.6048 92.6699 26.9717 92.6699 27.3818C92.6699 27.8148 92.5856 28.2021 92.417 28.5439C92.2484 28.8857 92.0046 29.1751 91.6855 29.4121C91.3665 29.6491 90.986 29.8291 90.5439 29.9521C90.1019 30.0752 89.6074 30.1367 89.0605 30.1367C88.5684 30.1367 88.083 30.0729 87.6045 29.9453C87.126 29.8132 86.6908 29.6149 86.2988 29.3506C85.9115 29.0863 85.6016 28.749 85.3691 28.3389C85.1367 27.9287 85.0205 27.4434 85.0205 26.8828H87.0781C87.0781 27.1927 87.126 27.4548 87.2217 27.6689C87.3174 27.8831 87.4518 28.0563 87.625 28.1885C87.8027 28.3206 88.0124 28.4163 88.2539 28.4756C88.5 28.5348 88.7689 28.5645 89.0605 28.5645C89.416 28.5645 89.7077 28.5143 89.9355 28.4141C90.168 28.3138 90.3389 28.1748 90.4482 27.9971C90.5622 27.8193 90.6191 27.6188 90.6191 27.3955ZM99.834 26.6982H101.878C101.837 27.3682 101.652 27.9629 101.324 28.4824C101.001 29.002 100.547 29.4076 99.9639 29.6992C99.3851 29.9909 98.6878 30.1367 97.8721 30.1367C97.234 30.1367 96.6621 30.0273 96.1562 29.8086C95.6504 29.5853 95.2174 29.2663 94.8574 28.8516C94.502 28.4368 94.2308 27.9355 94.0439 27.3477C93.8571 26.7598 93.7637 26.1012 93.7637 25.3721V24.6816C93.7637 23.9525 93.8594 23.2939 94.0508 22.7061C94.2467 22.1136 94.5247 21.61 94.8848 21.1953C95.2493 20.7806 95.6846 20.4616 96.1904 20.2383C96.6963 20.015 97.2614 19.9033 97.8857 19.9033C98.7152 19.9033 99.4147 20.0537 99.9844 20.3545C100.559 20.6553 101.003 21.07 101.317 21.5986C101.636 22.1273 101.828 22.7288 101.892 23.4033H99.8408C99.818 23.0023 99.7383 22.6628 99.6016 22.3848C99.4648 22.1022 99.2575 21.8903 98.9795 21.749C98.7061 21.6032 98.3415 21.5303 97.8857 21.5303C97.5439 21.5303 97.2454 21.5941 96.9902 21.7217C96.735 21.8493 96.5208 22.043 96.3477 22.3027C96.1745 22.5625 96.0446 22.8906 95.958 23.2871C95.876 23.679 95.835 24.1393 95.835 24.668V25.3721C95.835 25.887 95.8737 26.3405 95.9512 26.7324C96.0286 27.1198 96.1471 27.4479 96.3066 27.7168C96.4707 27.9811 96.6803 28.1816 96.9355 28.3184C97.1953 28.4505 97.5075 28.5166 97.8721 28.5166C98.3005 28.5166 98.6536 28.4482 98.9316 28.3115C99.2096 28.1748 99.4215 27.972 99.5674 27.7031C99.7178 27.4342 99.8066 27.0993 99.834 26.6982ZM103.225 20.0469H106.937C107.698 20.0469 108.352 20.1608 108.898 20.3887C109.45 20.6165 109.874 20.9538 110.17 21.4004C110.466 21.847 110.614 22.3962 110.614 23.0479C110.614 23.5811 110.523 24.0391 110.341 24.4219C110.163 24.8001 109.91 25.1169 109.582 25.3721C109.258 25.6227 108.878 25.8232 108.44 25.9736L107.791 26.3154H104.564L104.551 24.7158H106.95C107.31 24.7158 107.609 24.652 107.846 24.5244C108.083 24.3968 108.26 24.2191 108.379 23.9912C108.502 23.7633 108.563 23.499 108.563 23.1982C108.563 22.8792 108.504 22.6035 108.386 22.3711C108.267 22.1387 108.087 21.9609 107.846 21.8379C107.604 21.7148 107.301 21.6533 106.937 21.6533H105.275V30H103.225V20.0469ZM108.789 30L106.52 25.5635L108.687 25.5498L110.983 29.9043V30H108.789ZM114.374 20.0469V30H112.33V20.0469H114.374ZM120.171 26.4521H117.635V24.8525H120.171C120.563 24.8525 120.882 24.7887 121.128 24.6611C121.374 24.529 121.554 24.3467 121.668 24.1143C121.782 23.8818 121.839 23.6198 121.839 23.3281C121.839 23.0319 121.782 22.7562 121.668 22.501C121.554 22.2458 121.374 22.0407 121.128 21.8857C120.882 21.7308 120.563 21.6533 120.171 21.6533H118.346V30H116.295V20.0469H120.171C120.95 20.0469 121.618 20.1882 122.174 20.4707C122.734 20.7487 123.163 21.1338 123.459 21.626C123.755 22.1182 123.903 22.681 123.903 23.3145C123.903 23.957 123.755 24.513 123.459 24.9824C123.163 25.4518 122.734 25.8141 122.174 26.0693C121.618 26.3245 120.95 26.4521 120.171 26.4521ZM129.769 20.0469V30H127.725V20.0469H129.769ZM132.831 20.0469V21.6533H124.71V20.0469H132.831Z" fill="#008000"/>
<path d="M0 0V42.1053H40V0H0ZM21.7679 32.8383C21.7679 36.9361 19.4821 38.8064 16.1518 38.8064C13.1429 38.8064 11.4018 37.1711 10.5089 35.188L13.5714 33.2425C14.1607 34.3421 14.6964 35.2726 15.9911 35.2726C17.2232 35.2726 18.0089 34.765 18.0089 32.782V19.3327H21.7679V32.8383ZM30.6607 38.8064C27.1696 38.8064 24.9107 37.0583 23.8125 34.765L26.875 32.9041C27.6786 34.2857 28.7321 35.3102 30.5804 35.3102C32.1339 35.3102 33.1339 34.4925 33.1339 33.3553C33.1339 32.0019 32.1161 31.5226 30.3929 30.7237L29.4554 30.3008C26.7411 29.0883 24.9464 27.5564 24.9464 24.3327C24.9464 21.3628 27.0982 19.1071 30.4464 19.1071C32.8393 19.1071 34.5536 19.9812 35.7857 22.2744L32.8571 24.2481C32.2143 23.0357 31.5179 22.5564 30.4375 22.5564C29.3393 22.5564 28.6429 23.2895 28.6429 24.2481C28.6429 25.4323 29.3393 25.9117 30.9554 26.6541L31.8929 27.0771C35.0893 28.515 36.8839 29.9906 36.8839 33.2989C36.8839 36.8515 34.2232 38.8064 30.6607 38.8064Z" fill="#008000"/>
</svg>
