<svg width="180" height="33" viewBox="0 0 180 33" fill="none" xmlns="http://www.w3.org/2000/svg">
<path d="M8.20312 8.39062C8.33333 8.49479 8.4375 8.625 8.51562 8.78125C8.61979 8.9375 8.69792 9.10677 8.75 9.28906C8.82812 9.4974 8.88021 9.71875 8.90625 9.95312C8.93229 10.1875 8.94531 10.4219 8.94531 10.6562C8.94531 10.8646 8.93229 11.0729 8.90625 11.2812C8.88021 11.4896 8.84115 11.6849 8.78906 11.8672C7.79948 12.4922 6.90104 13.0781 6.09375 13.625C5.3125 14.1458 4.64844 14.6016 4.10156 14.9922C3.45052 15.4609 2.8776 15.8906 2.38281 16.2812C2.82552 16.724 3.3724 17.2057 4.02344 17.7266C4.57031 18.1953 5.23438 18.7552 6.01562 19.4062C6.79688 20.0312 7.69531 20.7474 8.71094 21.5547C8.76302 21.763 8.77604 22.0104 8.75 22.2969C8.75 22.5573 8.72396 22.8177 8.67188 23.0781C8.61979 23.3646 8.55469 23.6641 8.47656 23.9766C8.42448 24.2109 8.3724 24.4062 8.32031 24.5625C8.26823 24.6927 8.21615 24.8229 8.16406 24.9531C8.13802 25.0573 8.11198 25.0833 8.08594 25.0312C6.8099 24.0417 5.6901 23.1172 4.72656 22.2578C3.78906 21.3984 3.00781 20.6562 2.38281 20.0312C1.6276 19.3021 0.989583 18.638 0.46875 18.0391C0.364583 17.9089 0.273438 17.6875 0.195312 17.375C0.117188 17.0365 0.0651042 16.6979 0.0390625 16.3594C0.0130208 15.9948 0 15.6693 0 15.3828C0.0260417 15.0703 0.0911458 14.875 0.195312 14.7969C0.533854 14.4844 0.911458 14.1589 1.32812 13.8203C1.74479 13.4557 2.16146 13.0911 2.57812 12.7266C3.02083 12.362 3.46354 12.0104 3.90625 11.6719C4.34896 11.3073 4.76562 10.9818 5.15625 10.6953C5.54688 10.3828 5.92448 10.0833 6.28906 9.79688C6.60156 9.53646 6.92708 9.28906 7.26562 9.05469C7.63021 8.79427 7.94271 8.57292 8.20312 8.39062ZM171.289 8.39062C171.523 8.57292 171.81 8.79427 172.148 9.05469C172.513 9.28906 172.852 9.53646 173.164 9.79688C173.529 10.0833 173.906 10.3828 174.297 10.6953C175.078 11.2943 175.924 11.9844 176.836 12.7656C177.773 13.5208 178.581 14.1979 179.258 14.7969C179.362 14.875 179.427 15.0703 179.453 15.3828C179.479 15.6693 179.466 15.9948 179.414 16.3594C179.388 16.6979 179.336 17.0365 179.258 17.375C179.18 17.6875 179.089 17.9089 178.984 18.0391C178.464 18.638 177.839 19.3021 177.109 20.0312C176.484 20.6562 175.69 21.3984 174.727 22.2578C173.789 23.1172 172.682 24.0417 171.406 25.0312C171.38 25.0833 171.341 25.0573 171.289 24.9531C171.263 24.8229 171.224 24.6927 171.172 24.5625C171.094 24.4062 171.029 24.2109 170.977 23.9766C170.898 23.6641 170.833 23.3646 170.781 23.0781C170.729 22.8177 170.69 22.5573 170.664 22.2969C170.664 22.0104 170.69 21.763 170.742 21.5547C171.758 20.7474 172.656 20.0312 173.438 19.4062C174.219 18.7552 174.883 18.1953 175.43 17.7266C176.055 17.2057 176.602 16.724 177.07 16.2812C176.576 15.8906 176.003 15.4609 175.352 14.9922C174.805 14.6016 174.128 14.1458 173.32 13.625C172.539 13.0781 171.654 12.4922 170.664 11.8672C170.586 11.6849 170.534 11.4896 170.508 11.2812C170.508 11.0729 170.508 10.8646 170.508 10.6562C170.508 10.4219 170.521 10.1875 170.547 9.95312C170.573 9.71875 170.625 9.4974 170.703 9.28906C170.755 9.10677 170.82 8.9375 170.898 8.78125C171.003 8.625 171.133 8.49479 171.289 8.39062Z" fill="#70E000"/>
<path d="M24.3359 20.9297C23.8932 21.2943 23.6458 21.9453 23.5938 22.8828C23.5677 23.7943 23.724 24.7318 24.0625 25.6953C24.4271 26.6328 24.974 27.4661 25.7031 28.1953C26.4323 28.9245 27.3438 29.2891 28.4375 29.2891C29.1406 29.2891 29.7396 29.1198 30.2344 28.7812C30.7552 28.4427 31.1719 28.026 31.4844 27.5312C31.8229 27.0104 32.0703 26.4375 32.2266 25.8125C32.3828 25.1875 32.4609 24.5755 32.4609 23.9766C32.4609 23.1172 32.2917 22.401 31.9531 21.8281C31.6406 21.2552 31.2109 20.7604 30.6641 20.3438C30.1432 19.901 29.5312 19.5365 28.8281 19.25C28.151 18.9375 27.4609 18.625 26.7578 18.3125C26.1068 18.0521 25.3255 17.7266 24.4141 17.3359C23.5026 16.9193 22.6302 16.3854 21.7969 15.7344C20.9635 15.0573 20.2474 14.237 19.6484 13.2734C19.0755 12.2839 18.7891 11.0729 18.7891 9.64062C18.7891 8.70312 19.0365 7.7526 19.5312 6.78906C20.026 5.82552 20.7292 4.95312 21.6406 4.17188C22.5521 3.36458 23.6458 2.71354 24.9219 2.21875C26.224 1.72396 27.6823 1.47656 29.2969 1.47656C30.8854 1.47656 32.1745 1.61979 33.1641 1.90625C34.1536 2.19271 34.9219 2.57031 35.4688 3.03906C36.0156 3.48177 36.3802 3.97656 36.5625 4.52344C36.7708 5.04427 36.875 5.53906 36.875 6.00781C36.875 6.47656 36.7318 6.95833 36.4453 7.45312C36.1589 7.92188 35.8203 8.36458 35.4297 8.78125C35.0391 9.17188 34.6354 9.52344 34.2188 9.83594C33.8021 10.1224 33.4635 10.3177 33.2031 10.4219C33.3333 10.0833 33.4635 9.61458 33.5938 9.01562C33.724 8.41667 33.6849 7.81771 33.4766 7.21875C33.2943 6.61979 32.8385 6.09896 32.1094 5.65625C31.4062 5.21354 30.2604 4.99219 28.6719 4.99219C27.7604 4.99219 26.875 5.13542 26.0156 5.42188C25.1562 5.70833 24.388 6.08594 23.7109 6.55469C23.0599 6.9974 22.5391 7.50521 22.1484 8.07812C21.7578 8.65104 21.5625 9.23698 21.5625 9.83594C21.5625 10.4089 21.7578 10.9427 22.1484 11.4375C22.5651 11.9062 23.112 12.362 23.7891 12.8047C24.4922 13.2214 25.2865 13.638 26.1719 14.0547C27.0833 14.4714 28.0339 14.888 29.0234 15.3047C29.987 15.7214 30.9375 16.1771 31.875 16.6719C32.8125 17.1406 33.6458 17.6875 34.375 18.3125C35.1302 18.9375 35.7292 19.6406 36.1719 20.4219C36.6146 21.2031 36.8359 22.1016 36.8359 23.1172C36.8359 24.2109 36.6276 25.2656 36.2109 26.2812C35.8203 27.2708 35.2474 28.1432 34.4922 28.8984C33.763 29.6536 32.8646 30.2526 31.7969 30.6953C30.7292 31.1641 29.5182 31.3984 28.1641 31.3984C26.9661 31.3984 25.8333 31.2031 24.7656 30.8125C23.6979 30.4219 22.7604 29.9141 21.9531 29.2891C21.1719 28.6641 20.5469 27.974 20.0781 27.2188C19.6094 26.4635 19.375 25.7214 19.375 24.9922C19.375 24.2109 19.5443 23.5469 19.8828 23C20.2474 22.4531 20.6901 22.0234 21.2109 21.7109C21.7318 21.3724 22.2656 21.138 22.8125 21.0078C23.3854 20.8776 23.8932 20.8516 24.3359 20.9297ZM50.625 26.0078C50.6771 26.1901 50.7552 26.3594 50.8594 26.5156C50.9375 26.6458 51.0417 26.776 51.1719 26.9062C51.3281 27.0104 51.5104 27.0755 51.7188 27.1016C51.5365 27.4661 51.3542 27.7135 51.1719 27.8438C51.0677 27.9219 50.9766 27.974 50.8984 28C50.6641 28.0781 50.3125 28.1172 49.8438 28.1172C49.375 28.1172 48.9193 27.974 48.4766 27.6875C48.3203 27.5573 48.1771 27.362 48.0469 27.1016C47.9167 26.8932 47.7995 26.6068 47.6953 26.2422C47.6172 25.8516 47.5521 25.3568 47.5 24.7578C47.1354 25.5391 46.7188 26.1641 46.25 26.6328C45.8073 27.0755 45.3646 27.401 44.9219 27.6094C44.4271 27.8958 43.9193 28.0651 43.3984 28.1172C42.7474 28.1693 42.1224 28.0651 41.5234 27.8047C40.9505 27.5182 40.4557 27.1016 40.0391 26.5547C39.6484 25.9818 39.349 25.2917 39.1406 24.4844C38.9323 23.6771 38.8672 22.7656 38.9453 21.75C39.0234 20.6823 39.2318 19.7318 39.5703 18.8984C39.9089 18.0651 40.3125 17.3229 40.7812 16.6719C41.25 16.0208 41.7448 15.474 42.2656 15.0312C42.7865 14.5625 43.2812 14.1849 43.75 13.8984C44.2448 13.5859 44.6615 13.3646 45 13.2344C45.3646 13.0781 45.599 12.987 45.7031 12.9609C45.9896 12.8828 46.237 12.8568 46.4453 12.8828C46.6536 12.9089 46.8359 13.026 46.9922 13.2344C47.0443 13.3125 47.1094 13.4036 47.1875 13.5078C47.2396 13.612 47.3047 13.7552 47.3828 13.9375C47.4609 14.0938 47.526 14.276 47.5781 14.4844C46.9531 14.7708 46.3672 15.0964 45.8203 15.4609C45.2734 15.7995 44.7656 16.2161 44.2969 16.7109C43.8542 17.2057 43.4635 17.8047 43.125 18.5078C42.7865 19.2109 42.526 20.0703 42.3438 21.0859C42.0833 22.362 42.1484 23.3906 42.5391 24.1719C42.9557 24.9531 43.5156 25.2786 44.2188 25.1484C44.6354 25.0182 45.0391 24.7708 45.4297 24.4062C45.7682 24.0938 46.1198 23.625 46.4844 23C46.875 22.375 47.2396 21.5156 47.5781 20.4219C47.7083 18.8594 47.8125 17.6354 47.8906 16.75C47.9948 15.8385 48.0859 15.1484 48.1641 14.6797C48.2682 14.1328 48.3464 13.7682 48.3984 13.5859C48.4766 13.4557 48.6328 13.3385 48.8672 13.2344C49.1016 13.1042 49.362 13 49.6484 12.9219C49.9349 12.8438 50.1953 12.8047 50.4297 12.8047C50.6641 12.7786 50.8203 12.7786 50.8984 12.8047C50.9505 12.8307 50.9766 13.1562 50.9766 13.7812C50.9766 14.3802 50.9505 15.1484 50.8984 16.0859C50.8724 16.9974 50.8333 18 50.7812 19.0938C50.7292 20.1615 50.6771 21.1771 50.625 22.1406C50.599 23.1042 50.5729 23.9505 50.5469 24.6797C50.5469 25.3828 50.5729 25.8255 50.625 26.0078ZM64.5703 16.0078C64.5703 16.3724 64.4661 16.75 64.2578 17.1406C64.0755 17.5052 63.8411 17.8568 63.5547 18.1953C63.2682 18.5339 62.9427 18.8333 62.5781 19.0938C62.2396 19.3281 61.9141 19.4714 61.6016 19.5234C61.8099 18.7161 61.875 18.0911 61.7969 17.6484C61.7188 17.2057 61.5885 16.8802 61.4062 16.6719C61.1979 16.4375 60.9375 16.3073 60.625 16.2812C60.1562 16.2812 59.7005 16.5547 59.2578 17.1016C58.8411 17.6224 58.4766 18.2734 58.1641 19.0547C57.8516 19.8099 57.6042 20.6302 57.4219 21.5156C57.2396 22.375 57.1484 23.1562 57.1484 23.8594C57.1224 24.3542 57.1354 24.8359 57.1875 25.3047C57.2135 25.6953 57.2526 26.099 57.3047 26.5156C57.3828 26.9323 57.487 27.2578 57.6172 27.4922C57.4609 27.6224 57.2005 27.7786 56.8359 27.9609C56.4974 28.1432 56.1328 28.2604 55.7422 28.3125C55.3776 28.3646 55.0391 28.2995 54.7266 28.1172C54.4401 27.9349 54.2839 27.5443 54.2578 26.9453C54.2057 26.3724 54.1667 25.7344 54.1406 25.0312C54.1406 24.3021 54.1406 23.5859 54.1406 22.8828C54.1667 22.1536 54.1927 21.4375 54.2188 20.7344C54.2448 20.0312 54.2839 19.3802 54.3359 18.7812C54.388 17.6354 54.4141 16.75 54.4141 16.125C54.4141 15.5 54.401 14.901 54.375 14.3281C54.375 14.224 54.5443 14.0807 54.8828 13.8984C55.2474 13.6901 55.638 13.5078 56.0547 13.3516C56.4974 13.1953 56.901 13.1042 57.2656 13.0781C57.6302 13.0521 57.8125 13.1302 57.8125 13.3125C57.8125 13.599 57.7734 14.1719 57.6953 15.0312C57.6432 15.8646 57.5651 16.737 57.4609 17.6484C57.6432 17.1536 57.8776 16.6198 58.1641 16.0469C58.4766 15.474 58.8281 14.9401 59.2188 14.4453C59.6094 13.9505 60.0521 13.5469 60.5469 13.2344C61.0417 12.8958 61.5885 12.7266 62.1875 12.7266C62.6562 12.7266 63.0339 12.8698 63.3203 13.1562C63.6328 13.4427 63.8802 13.7682 64.0625 14.1328C64.2448 14.4974 64.375 14.862 64.4531 15.2266C64.5312 15.5911 64.5703 15.8516 64.5703 16.0078ZM77.1094 26.0078C77.1615 26.1901 77.2396 26.3594 77.3438 26.5156C77.4219 26.6458 77.526 26.776 77.6562 26.9062C77.8125 27.0104 77.9948 27.0755 78.2031 27.1016C78.0208 27.4661 77.8385 27.7135 77.6562 27.8438C77.5521 27.9219 77.4609 27.974 77.3828 28C77.1484 28.0781 76.7969 28.1172 76.3281 28.1172C75.8594 28.1172 75.4036 27.974 74.9609 27.6875C74.8047 27.5573 74.6615 27.362 74.5312 27.1016C74.401 26.8932 74.2839 26.6068 74.1797 26.2422C74.1016 25.8516 74.0365 25.3568 73.9844 24.7578C73.6198 25.5391 73.2031 26.1641 72.7344 26.6328C72.2917 27.0755 71.849 27.401 71.4062 27.6094C70.9115 27.8958 70.4036 28.0651 69.8828 28.1172C69.2318 28.1693 68.6068 28.0651 68.0078 27.8047C67.4349 27.5182 66.9401 27.1016 66.5234 26.5547C66.1328 25.9818 65.8333 25.2917 65.625 24.4844C65.4167 23.6771 65.3516 22.7656 65.4297 21.75C65.5078 20.6823 65.7161 19.7318 66.0547 18.8984C66.3932 18.0651 66.7969 17.3229 67.2656 16.6719C67.7344 16.0208 68.2292 15.474 68.75 15.0312C69.2708 14.5625 69.7656 14.1849 70.2344 13.8984C70.7292 13.5859 71.1458 13.3646 71.4844 13.2344C71.849 13.0781 72.0833 12.987 72.1875 12.9609C72.474 12.8828 72.7214 12.8568 72.9297 12.8828C73.138 12.9089 73.3203 13.026 73.4766 13.2344C73.5286 13.3125 73.5938 13.4036 73.6719 13.5078C73.724 13.612 73.7891 13.7552 73.8672 13.9375C73.9453 14.0938 74.0104 14.276 74.0625 14.4844C73.4375 14.7708 72.8516 15.0964 72.3047 15.4609C71.7578 15.7995 71.25 16.2161 70.7812 16.7109C70.3385 17.2057 69.9479 17.8047 69.6094 18.5078C69.2708 19.2109 69.0104 20.0703 68.8281 21.0859C68.5677 22.362 68.6328 23.3906 69.0234 24.1719C69.4401 24.9531 70 25.2786 70.7031 25.1484C71.1198 25.0182 71.5234 24.7708 71.9141 24.4062C72.2526 24.0938 72.6042 23.625 72.9688 23C73.3594 22.375 73.724 21.5156 74.0625 20.4219C74.1927 18.8594 74.2969 17.6354 74.375 16.75C74.4792 15.8385 74.5703 15.1484 74.6484 14.6797C74.7526 14.1328 74.8307 13.7682 74.8828 13.5859C74.9609 13.4557 75.1172 13.3385 75.3516 13.2344C75.5859 13.1042 75.8464 13 76.1328 12.9219C76.4193 12.8438 76.6797 12.8047 76.9141 12.8047C77.1484 12.7786 77.3047 12.7786 77.3828 12.8047C77.4349 12.8307 77.4609 13.1562 77.4609 13.7812C77.4609 14.3802 77.4349 15.1484 77.3828 16.0859C77.3568 16.9974 77.3177 18 77.2656 19.0938C77.2135 20.1615 77.1615 21.1771 77.1094 22.1406C77.0833 23.1042 77.0573 23.9505 77.0312 24.6797C77.0312 25.3828 77.0573 25.8255 77.1094 26.0078ZM91.0547 23.9766C90.7943 23.1693 90.5339 22.4531 90.2734 21.8281C90.0391 21.2031 89.8307 20.6693 89.6484 20.2266C88.6328 20.5651 87.526 20.7995 86.3281 20.9297C86.3281 22.5964 86.3672 24.0156 86.4453 25.1875C86.4714 25.9167 86.4974 26.5417 86.5234 27.0625C86.5755 27.5573 86.6146 27.987 86.6406 28.3516C86.6927 28.7161 86.7448 29.0417 86.7969 29.3281C86.849 29.6406 86.9271 29.9401 87.0312 30.2266C86.5104 30.6172 86.0026 30.9036 85.5078 31.0859C85.0391 31.2682 84.6224 31.3984 84.2578 31.4766C83.8151 31.5807 83.4245 31.6068 83.0859 31.5547C82.9557 31.1901 82.8385 30.7995 82.7344 30.3828C82.6302 29.9922 82.5521 29.4453 82.5 28.7422C82.474 28.0651 82.4609 27.1927 82.4609 26.125C82.4609 25.0573 82.5 23.6901 82.5781 22.0234C82.6042 21.8411 82.6172 21.6589 82.6172 21.4766C82.6172 21.2943 82.6302 21.112 82.6562 20.9297C82.4219 20.9036 82.1745 20.8776 81.9141 20.8516C81.6797 20.8255 81.4453 20.7995 81.2109 20.7734C81.0547 20.3568 80.9505 19.9922 80.8984 19.6797C80.8464 19.3411 80.8203 19.0677 80.8203 18.8594C80.8203 18.599 80.8464 18.3906 80.8984 18.2344C81.3151 18.3125 81.7318 18.3516 82.1484 18.3516H82.7344C82.7865 17.2578 82.8385 16.151 82.8906 15.0312C82.9427 13.8854 82.9818 12.7786 83.0078 11.7109C83.0599 10.6172 83.099 9.58854 83.125 8.625C83.151 7.63542 83.1771 6.73698 83.2031 5.92969C82.4219 6.45052 81.7448 7.1276 81.1719 7.96094C80.599 8.79427 80.2083 9.75781 80 10.8516C79.6615 10.7995 79.375 10.6432 79.1406 10.3828C78.9062 10.0964 78.7109 9.8099 78.5547 9.52344C78.3724 9.1849 78.2161 8.80729 78.0859 8.39062C77.9557 7.89583 77.9557 7.40104 78.0859 6.90625C78.2161 6.38542 78.4115 5.90365 78.6719 5.46094C78.9323 4.99219 79.2318 4.58854 79.5703 4.25C79.9089 3.88542 80.2344 3.59896 80.5469 3.39062C81.0938 3.05208 81.6536 2.7526 82.2266 2.49219C82.8255 2.20573 83.4896 1.97135 84.2188 1.78906C84.5052 1.5026 84.8177 1.24219 85.1562 1.00781C85.5208 0.773438 85.8594 0.630208 86.1719 0.578125C86.6146 0.473958 86.862 0.747396 86.9141 1.39844C87.1484 1.3724 87.3958 1.35938 87.6562 1.35938C87.9167 1.33333 88.1901 1.32031 88.4766 1.32031C89.4661 1.32031 90.4948 1.47656 91.5625 1.78906C92.6302 2.10156 93.6068 2.60938 94.4922 3.3125C95.4036 3.98958 96.1458 4.88802 96.7188 6.00781C97.2917 7.10156 97.5781 8.44271 97.5781 10.0312C97.5781 11.8281 97.1484 13.4818 96.2891 14.9922C95.4557 16.5026 94.2578 17.7526 92.6953 18.7422C92.8776 19.2109 93.112 19.7969 93.3984 20.5C93.6849 21.2031 93.9714 21.9974 94.2578 22.8828C94.6745 23.9766 95.1172 25.0052 95.5859 25.9688C96.0807 26.9062 96.5885 27.7266 97.1094 28.4297C97.6302 29.1328 98.1771 29.6927 98.75 30.1094C99.3229 30.5521 99.8958 30.8125 100.469 30.8906C100.13 31.4115 99.7396 31.776 99.2969 31.9844C98.8542 32.1927 98.4115 32.3229 97.9688 32.375C97.474 32.4531 96.9531 32.4531 96.4062 32.375C95.651 32.2188 95 31.8542 94.4531 31.2812C93.9062 30.7083 93.4245 30.0182 93.0078 29.2109C92.6172 28.4036 92.2526 27.5443 91.9141 26.6328C91.6016 25.6953 91.3151 24.8099 91.0547 23.9766ZM86.5234 7.33594C86.5234 7.90885 86.5104 8.59896 86.4844 9.40625C86.4583 10.2135 86.4323 11.0859 86.4062 12.0234C86.4062 12.9609 86.3932 13.9505 86.3672 14.9922C86.3411 16.0078 86.3281 17.0234 86.3281 18.0391C87.0312 17.9349 87.7995 17.7656 88.6328 17.5312C89.4922 17.2969 90.2865 16.9062 91.0156 16.3594C91.7448 15.8125 92.3568 15.0833 92.8516 14.1719C93.3464 13.2604 93.5938 12.0885 93.5938 10.6562C93.5938 9.5625 93.3984 8.63802 93.0078 7.88281C92.6432 7.10156 92.1615 6.47656 91.5625 6.00781C90.9635 5.51302 90.2995 5.16146 89.5703 4.95312C88.8672 4.71875 88.1641 4.60156 87.4609 4.60156C87.3307 4.60156 87.2005 4.60156 87.0703 4.60156C86.9401 4.60156 86.7969 4.61458 86.6406 4.64062C86.5625 5.47396 86.5234 6.3724 86.5234 7.33594ZM110.117 21.2812C110.065 22.2969 109.883 23.2344 109.57 24.0938C109.284 24.9531 108.88 25.7083 108.359 26.3594C107.839 26.9844 107.214 27.4792 106.484 27.8438C105.781 28.2083 105 28.4036 104.141 28.4297C103.385 28.4557 102.669 28.2734 101.992 27.8828C101.341 27.4922 100.768 26.9453 100.273 26.2422C99.7786 25.5391 99.401 24.7057 99.1406 23.7422C98.9062 22.7526 98.8411 21.6849 98.9453 20.5391C99.0234 19.2109 99.2708 18.0781 99.6875 17.1406C100.104 16.1771 100.547 15.3828 101.016 14.7578C101.484 14.1328 101.914 13.6771 102.305 13.3906C102.721 13.0781 102.982 12.8958 103.086 12.8438C103.268 12.7656 103.438 12.7526 103.594 12.8047C103.75 12.8307 103.919 12.8698 104.102 12.9219C104.154 12.9479 104.206 13.013 104.258 13.1172C104.362 13.2995 104.427 13.638 104.453 14.1328C104.583 13.8464 104.753 13.612 104.961 13.4297C105.169 13.2474 105.378 13.1172 105.586 13.0391C105.846 12.9349 106.107 12.8698 106.367 12.8438C106.549 12.8177 106.862 12.9609 107.305 13.2734C107.773 13.5859 108.216 14.0807 108.633 14.7578C109.076 15.4349 109.453 16.3203 109.766 17.4141C110.078 18.4818 110.195 19.7708 110.117 21.2812ZM107.461 20.8125C107.487 20.1875 107.461 19.5625 107.383 18.9375C107.331 18.2865 107.227 17.7005 107.07 17.1797C106.94 16.6328 106.771 16.2031 106.562 15.8906C106.354 15.5521 106.146 15.3828 105.938 15.3828C105.703 15.4349 105.443 15.5521 105.156 15.7344C104.922 15.8906 104.661 16.138 104.375 16.4766C104.089 16.8151 103.815 17.2969 103.555 17.9219C103.529 17.8438 103.503 17.7005 103.477 17.4922C103.451 17.3099 103.424 17.0755 103.398 16.7891C103.398 16.4766 103.424 16.0599 103.477 15.5391C103.112 15.9818 102.826 16.5026 102.617 17.1016C102.435 17.7005 102.292 18.2734 102.188 18.8203C102.083 19.4714 102.005 20.1224 101.953 20.7734C101.927 21.4766 101.953 22.1667 102.031 22.8438C102.135 23.5208 102.292 24.1198 102.5 24.6406C102.734 25.1615 103.008 25.5781 103.32 25.8906C103.633 26.2031 104.01 26.3464 104.453 26.3203C104.896 26.2943 105.286 26.112 105.625 25.7734C105.964 25.4349 106.263 25.0052 106.523 24.4844C106.784 23.9635 106.992 23.3776 107.148 22.7266C107.305 22.0755 107.409 21.4375 107.461 20.8125ZM120.859 15.8125C120.651 15.8125 120.417 15.9297 120.156 16.1641C119.922 16.3724 119.688 16.6719 119.453 17.0625C119.219 17.4271 118.984 17.8438 118.75 18.3125C118.516 18.7552 118.307 19.2109 118.125 19.6797C117.682 20.7734 117.253 21.8932 116.836 23.0391C116.419 24.1849 116.172 25.1745 116.094 26.0078C116.068 26.0859 116.055 26.1641 116.055 26.2422C116.055 26.2943 116.055 26.3464 116.055 26.3984C116.029 26.4505 116.016 26.5286 116.016 26.6328C115.964 26.9974 115.885 27.2969 115.781 27.5312C115.703 27.7396 115.521 27.8828 115.234 27.9609C114.922 28.013 114.609 28.0521 114.297 28.0781C113.984 28.1042 113.685 28.0781 113.398 28C113.216 27.9479 113.073 27.8568 112.969 27.7266C112.891 27.5703 112.826 27.401 112.773 27.2188C112.747 27.0104 112.721 26.8151 112.695 26.6328C112.695 26.4505 112.695 26.2943 112.695 26.1641C112.695 26.0078 112.708 25.526 112.734 24.7188C112.76 23.8854 112.786 22.9479 112.812 21.9062C112.839 20.8646 112.852 19.849 112.852 18.8594C112.852 17.8438 112.839 17.0755 112.812 16.5547C112.76 16.1901 112.708 15.8516 112.656 15.5391C112.604 15.2526 112.539 14.9661 112.461 14.6797C112.409 14.3932 112.318 14.1458 112.188 13.9375C112.474 13.7812 112.76 13.651 113.047 13.5469C113.333 13.4427 113.594 13.3646 113.828 13.3125C114.115 13.2344 114.375 13.1823 114.609 13.1562C115.234 13.1042 115.716 13.1042 116.055 13.1562C116.419 13.2083 116.602 13.4818 116.602 13.9766C116.602 14.4193 116.562 15.1094 116.484 16.0469C116.432 16.9583 116.367 18.2344 116.289 19.875C116.576 19.224 116.914 18.4948 117.305 17.6875C117.695 16.8542 118.112 16.0859 118.555 15.3828C118.997 14.6536 119.453 14.0547 119.922 13.5859C120.391 13.0911 120.833 12.8438 121.25 12.8438C121.536 12.8438 121.862 12.9089 122.227 13.0391C122.617 13.1432 122.982 13.2995 123.32 13.5078C123.659 13.6901 123.958 13.8984 124.219 14.1328C124.505 14.3672 124.701 14.6016 124.805 14.8359C124.909 15.0964 124.974 15.5 125 16.0469C125.026 16.5938 125.026 17.2057 125 17.8828C125.208 17.388 125.443 16.9062 125.703 16.4375C125.964 15.9688 126.224 15.5391 126.484 15.1484C126.771 14.7318 127.057 14.3802 127.344 14.0938C127.63 13.8073 127.891 13.612 128.125 13.5078C128.438 13.3776 128.815 13.3516 129.258 13.4297C129.701 13.5078 130.13 13.651 130.547 13.8594C130.99 14.0417 131.367 14.263 131.68 14.5234C132.018 14.7839 132.227 15.0312 132.305 15.2656C132.383 15.526 132.448 15.9297 132.5 16.4766C132.552 17.0234 132.591 17.6224 132.617 18.2734C132.643 18.9245 132.656 19.6016 132.656 20.3047C132.656 20.9818 132.643 21.5807 132.617 22.1016C132.565 23.612 132.578 24.8099 132.656 25.6953C132.734 26.5547 133.047 27.1927 133.594 27.6094C133.229 27.8438 132.891 28.013 132.578 28.1172C132.266 28.2474 131.992 28.3385 131.758 28.3906C131.471 28.4688 131.224 28.5078 131.016 28.5078C130.729 28.5078 130.495 28.4297 130.312 28.2734C130.13 28.1432 129.987 27.9609 129.883 27.7266C129.779 27.4922 129.714 27.2318 129.688 26.9453C129.661 26.6589 129.648 26.3724 129.648 26.0859C129.648 25.8255 129.661 25.3958 129.688 24.7969C129.74 24.1719 129.779 23.4688 129.805 22.6875C129.831 21.9062 129.831 21.112 129.805 20.3047C129.779 19.4714 129.714 18.7161 129.609 18.0391C129.531 17.3359 129.388 16.763 129.18 16.3203C128.971 15.8776 128.685 15.6562 128.32 15.6562C128.008 15.6562 127.708 15.8516 127.422 16.2422C127.135 16.6068 126.862 17.1016 126.602 17.7266C126.341 18.3255 126.107 19.0026 125.898 19.7578C125.716 20.487 125.547 21.2161 125.391 21.9453C125.234 22.6745 125.117 23.3516 125.039 23.9766C124.961 24.5755 124.922 25.0573 124.922 25.4219L124.883 25.0703C124.883 25.5651 124.883 26.0208 124.883 26.4375C124.909 26.8542 124.935 27.2708 124.961 27.6875C124.987 27.8438 124.844 27.974 124.531 28.0781C124.219 28.2083 123.867 28.2604 123.477 28.2344C123.112 28.2344 122.773 28.1562 122.461 28C122.148 27.8438 121.992 27.5833 121.992 27.2188C121.992 26.9583 121.992 26.5677 121.992 26.0469C121.992 25.526 121.979 24.9401 121.953 24.2891C121.953 23.638 121.94 22.9609 121.914 22.2578C121.914 21.5286 121.901 20.8385 121.875 20.1875C121.875 19.6927 121.862 19.1849 121.836 18.6641C121.836 18.1432 121.81 17.6745 121.758 17.2578C121.706 16.8151 121.602 16.4635 121.445 16.2031C121.315 15.9427 121.12 15.8125 120.859 15.8125ZM146.914 26.0078C146.966 26.1901 147.044 26.3594 147.148 26.5156C147.227 26.6458 147.331 26.776 147.461 26.9062C147.617 27.0104 147.799 27.0755 148.008 27.1016C147.826 27.4661 147.643 27.7135 147.461 27.8438C147.357 27.9219 147.266 27.974 147.188 28C146.953 28.0781 146.602 28.1172 146.133 28.1172C145.664 28.1172 145.208 27.974 144.766 27.6875C144.609 27.5573 144.466 27.362 144.336 27.1016C144.206 26.8932 144.089 26.6068 143.984 26.2422C143.906 25.8516 143.841 25.3568 143.789 24.7578C143.424 25.5391 143.008 26.1641 142.539 26.6328C142.096 27.0755 141.654 27.401 141.211 27.6094C140.716 27.8958 140.208 28.0651 139.688 28.1172C139.036 28.1693 138.411 28.0651 137.812 27.8047C137.24 27.5182 136.745 27.1016 136.328 26.5547C135.938 25.9818 135.638 25.2917 135.43 24.4844C135.221 23.6771 135.156 22.7656 135.234 21.75C135.312 20.6823 135.521 19.7318 135.859 18.8984C136.198 18.0651 136.602 17.3229 137.07 16.6719C137.539 16.0208 138.034 15.474 138.555 15.0312C139.076 14.5625 139.57 14.1849 140.039 13.8984C140.534 13.5859 140.951 13.3646 141.289 13.2344C141.654 13.0781 141.888 12.987 141.992 12.9609C142.279 12.8828 142.526 12.8568 142.734 12.8828C142.943 12.9089 143.125 13.026 143.281 13.2344C143.333 13.3125 143.398 13.4036 143.477 13.5078C143.529 13.612 143.594 13.7552 143.672 13.9375C143.75 14.0938 143.815 14.276 143.867 14.4844C143.242 14.7708 142.656 15.0964 142.109 15.4609C141.562 15.7995 141.055 16.2161 140.586 16.7109C140.143 17.2057 139.753 17.8047 139.414 18.5078C139.076 19.2109 138.815 20.0703 138.633 21.0859C138.372 22.362 138.438 23.3906 138.828 24.1719C139.245 24.9531 139.805 25.2786 140.508 25.1484C140.924 25.0182 141.328 24.7708 141.719 24.4062C142.057 24.0938 142.409 23.625 142.773 23C143.164 22.375 143.529 21.5156 143.867 20.4219C143.997 18.8594 144.102 17.6354 144.18 16.75C144.284 15.8385 144.375 15.1484 144.453 14.6797C144.557 14.1328 144.635 13.7682 144.688 13.5859C144.766 13.4557 144.922 13.3385 145.156 13.2344C145.391 13.1042 145.651 13 145.938 12.9219C146.224 12.8438 146.484 12.8047 146.719 12.8047C146.953 12.7786 147.109 12.7786 147.188 12.8047C147.24 12.8307 147.266 13.1562 147.266 13.7812C147.266 14.3802 147.24 15.1484 147.188 16.0859C147.161 16.9974 147.122 18 147.07 19.0938C147.018 20.1615 146.966 21.1771 146.914 22.1406C146.888 23.1042 146.862 23.9505 146.836 24.6797C146.836 25.3828 146.862 25.8255 146.914 26.0078ZM144.961 7.88281C145.221 7.85677 145.495 7.77865 145.781 7.64844C146.016 7.51823 146.263 7.34896 146.523 7.14062C146.81 6.93229 147.083 6.61979 147.344 6.20312C147.448 6.33333 147.513 6.54167 147.539 6.82812C147.565 7.11458 147.552 7.41406 147.5 7.72656C147.474 8.03906 147.409 8.35156 147.305 8.66406C147.227 8.97656 147.122 9.23698 146.992 9.44531C146.862 9.6276 146.641 9.83594 146.328 10.0703C146.016 10.3047 145.612 10.4219 145.117 10.4219C144.596 10.4219 144.128 10.3438 143.711 10.1875C143.32 10.0312 142.956 9.86198 142.617 9.67969C142.305 9.47135 141.992 9.28906 141.68 9.13281C141.393 8.97656 141.107 8.89844 140.82 8.89844C140.56 8.92448 140.286 8.98958 140 9.09375C139.766 9.19792 139.492 9.35417 139.18 9.5625C138.867 9.77083 138.555 10.0703 138.242 10.4609C138.034 10.3828 137.865 10.2266 137.734 9.99219C137.604 9.73177 137.513 9.45833 137.461 9.17188C137.409 8.88542 137.37 8.625 137.344 8.39062C137.344 8.13021 137.357 7.9349 137.383 7.80469C137.721 7.4401 138.06 7.16667 138.398 6.98438C138.737 6.80208 139.049 6.65885 139.336 6.55469C139.648 6.45052 139.961 6.38542 140.273 6.35938C140.716 6.35938 141.107 6.45052 141.445 6.63281C141.81 6.78906 142.161 6.97135 142.5 7.17969C142.865 7.36198 143.229 7.53125 143.594 7.6875C143.984 7.84375 144.44 7.90885 144.961 7.88281ZM161.055 21.2812C161.003 22.2969 160.82 23.2344 160.508 24.0938C160.221 24.9531 159.818 25.7083 159.297 26.3594C158.776 26.9844 158.151 27.4792 157.422 27.8438C156.719 28.2083 155.938 28.4036 155.078 28.4297C154.323 28.4557 153.607 28.2734 152.93 27.8828C152.279 27.4922 151.706 26.9453 151.211 26.2422C150.716 25.5391 150.339 24.7057 150.078 23.7422C149.844 22.7526 149.779 21.6849 149.883 20.5391C149.961 19.2109 150.208 18.0781 150.625 17.1406C151.042 16.1771 151.484 15.3828 151.953 14.7578C152.422 14.1328 152.852 13.6771 153.242 13.3906C153.659 13.0781 153.919 12.8958 154.023 12.8438C154.206 12.7656 154.375 12.7526 154.531 12.8047C154.688 12.8307 154.857 12.8698 155.039 12.9219C155.091 12.9479 155.143 13.013 155.195 13.1172C155.299 13.2995 155.365 13.638 155.391 14.1328C155.521 13.8464 155.69 13.612 155.898 13.4297C156.107 13.2474 156.315 13.1172 156.523 13.0391C156.784 12.9349 157.044 12.8698 157.305 12.8438C157.487 12.8177 157.799 12.9609 158.242 13.2734C158.711 13.5859 159.154 14.0807 159.57 14.7578C160.013 15.4349 160.391 16.3203 160.703 17.4141C161.016 18.4818 161.133 19.7708 161.055 21.2812ZM158.398 20.8125C158.424 20.1875 158.398 19.5625 158.32 18.9375C158.268 18.2865 158.164 17.7005 158.008 17.1797C157.878 16.6328 157.708 16.2031 157.5 15.8906C157.292 15.5521 157.083 15.3828 156.875 15.3828C156.641 15.4349 156.38 15.5521 156.094 15.7344C155.859 15.8906 155.599 16.138 155.312 16.4766C155.026 16.8151 154.753 17.2969 154.492 17.9219C154.466 17.8438 154.44 17.7005 154.414 17.4922C154.388 17.3099 154.362 17.0755 154.336 16.7891C154.336 16.4766 154.362 16.0599 154.414 15.5391C154.049 15.9818 153.763 16.5026 153.555 17.1016C153.372 17.7005 153.229 18.2734 153.125 18.8203C153.021 19.4714 152.943 20.1224 152.891 20.7734C152.865 21.4766 152.891 22.1667 152.969 22.8438C153.073 23.5208 153.229 24.1198 153.438 24.6406C153.672 25.1615 153.945 25.5781 154.258 25.8906C154.57 26.2031 154.948 26.3464 155.391 26.3203C155.833 26.2943 156.224 26.112 156.562 25.7734C156.901 25.4349 157.201 25.0052 157.461 24.4844C157.721 23.9635 157.93 23.3776 158.086 22.7266C158.242 22.0755 158.346 21.4375 158.398 20.8125Z" fill="#FAFAFA"/>
</svg>
