<svg width="181" height="245" viewBox="0 0 181 245" fill="none" xmlns="http://www.w3.org/2000/svg">
<path d="M180.541 114.734H0.191406V229.454H180.541V114.734Z" fill="white"/>
<path d="M32.6714 114.734H0.191406V229.454H32.6714V114.734Z" fill="#EBEBEB"/>
<path d="M14.4716 127.118C14.6402 127.017 14.8219 126.939 15.0116 126.888L15.1216 126.348H16.0216L16.1616 126.878C16.3503 126.927 16.5318 127.001 16.7016 127.098L17.1616 126.798L17.8116 127.418L17.5316 127.888C17.6327 128.056 17.7101 128.238 17.7616 128.428L18.3016 128.538V129.448L17.7716 129.578C17.7292 129.77 17.6584 129.956 17.5616 130.128L17.8616 130.578L17.2316 131.228L16.7616 130.948C16.5934 131.052 16.4117 131.133 16.2216 131.188L16.1116 131.718H15.2016L15.0716 131.188C14.8829 131.138 14.7014 131.064 14.5316 130.968L14.0716 131.268L13.4216 130.638L13.7016 130.168C13.6005 129.999 13.5231 129.817 13.4716 129.628L12.9316 129.518V128.618L13.4616 128.488C13.5062 128.296 13.5769 128.111 13.6716 127.938L13.3716 127.478L14.0016 126.828L14.4716 127.108V127.118ZM14.9516 128.328C14.7773 128.513 14.6802 128.758 14.6802 129.013C14.6802 129.267 14.7773 129.512 14.9516 129.698C15.1376 129.875 15.3847 129.974 15.6416 129.974C15.8986 129.974 16.1457 129.875 16.3316 129.698C16.4456 129.504 16.491 129.278 16.4606 129.055C16.4301 128.832 16.3256 128.627 16.1639 128.471C16.0022 128.315 15.7927 128.218 15.5691 128.195C15.3456 128.173 15.121 128.227 14.9316 128.348L14.9516 128.328Z" fill="#E0E0E0"/>
<path d="M21.9719 152.465H7.83187C7.64061 152.465 7.45124 152.427 7.27466 152.353C7.09809 152.28 6.93779 152.172 6.80301 152.037C6.66824 151.901 6.56163 151.74 6.48935 151.563C6.41707 151.386 6.38055 151.196 6.38187 151.005C6.38187 150.62 6.53464 150.251 6.80657 149.979C7.0785 149.708 7.4473 149.555 7.83187 149.555H21.9919C22.1831 149.553 22.3727 149.59 22.5498 149.662C22.7269 149.735 22.8879 149.841 23.0236 149.976C23.1593 150.111 23.2671 150.271 23.3405 150.448C23.414 150.624 23.4519 150.813 23.4519 151.005C23.4519 151.198 23.4135 151.39 23.3389 151.568C23.2642 151.747 23.1549 151.908 23.0172 152.044C22.8795 152.18 22.7162 152.287 22.5367 152.359C22.3573 152.432 22.1653 152.467 21.9719 152.465Z" fill="#E0E0E0"/>
<path d="M21.9718 145.055H7.83183C7.44635 145.052 7.07755 144.897 6.80591 144.623C6.53426 144.35 6.38183 143.98 6.38184 143.595C6.38184 143.21 6.53461 142.841 6.80653 142.569C7.07846 142.297 7.44727 142.145 7.83183 142.145H21.9918C22.1831 142.143 22.3727 142.18 22.5498 142.252C22.7269 142.324 22.8879 142.431 23.0236 142.566C23.1593 142.701 23.267 142.861 23.3405 143.037C23.414 143.214 23.4518 143.403 23.4518 143.595C23.4518 143.788 23.4134 143.98 23.3388 144.158C23.2642 144.336 23.1549 144.498 23.0172 144.634C22.8795 144.77 22.7161 144.877 22.5367 144.949C22.3572 145.021 22.1652 145.057 21.9718 145.055Z" fill="#E0E0E0"/>
<path d="M21.9718 138.265H7.83183C7.44727 138.265 7.07846 138.113 6.80653 137.841C6.53461 137.569 6.38184 137.2 6.38184 136.815C6.38183 136.43 6.53426 136.06 6.80591 135.787C7.07755 135.513 7.44635 135.358 7.83183 135.355H21.9918C22.3704 135.361 22.7322 135.513 23.0009 135.779C23.2696 136.046 23.4241 136.407 23.4318 136.785C23.4359 136.979 23.401 137.172 23.3293 137.352C23.2576 137.532 23.1505 137.696 23.0144 137.834C22.8783 137.972 22.7159 138.081 22.5368 138.155C22.3578 138.229 22.1656 138.267 21.9718 138.265Z" fill="#E0E0E0"/>
<path d="M60.0224 131.687H46.6024C46.2178 131.687 45.849 131.535 45.5771 131.263C45.3051 130.991 45.1524 130.622 45.1524 130.237C45.1511 130.046 45.1876 129.856 45.2599 129.679C45.3321 129.502 45.4387 129.341 45.5735 129.206C45.7083 129.07 45.8686 128.962 46.0452 128.889C46.2217 128.815 46.4111 128.777 46.6024 128.777H60.0224C60.2136 128.777 60.403 128.815 60.5796 128.889C60.7562 128.962 60.9165 129.07 61.0512 129.206C61.186 129.341 61.2926 129.502 61.3649 129.679C61.4372 129.856 61.4737 130.046 61.4724 130.237C61.4724 130.622 61.3196 130.991 61.0477 131.263C60.7757 131.535 60.4069 131.687 60.0224 131.687Z" fill="#263238"/>
<path d="M60.0224 139.305H46.6024C46.4111 139.305 46.2217 139.267 46.0452 139.193C45.8686 139.12 45.7083 139.012 45.5735 138.876C45.4387 138.741 45.3321 138.58 45.2599 138.402C45.1876 138.225 45.1511 138.036 45.1524 137.845C45.1524 137.46 45.3051 137.091 45.5771 136.819C45.849 136.547 46.2178 136.395 46.6024 136.395H60.0224C60.4069 136.395 60.7757 136.547 61.0477 136.819C61.3196 137.091 61.4724 137.46 61.4724 137.845C61.4737 138.036 61.4372 138.225 61.3649 138.402C61.2926 138.58 61.186 138.741 61.0512 138.876C60.9165 139.012 60.7562 139.12 60.5796 139.193C60.403 139.267 60.2136 139.305 60.0224 139.305Z" fill="#E0E0E0"/>
<path d="M60.0224 147.176H46.6024C46.2178 147.176 45.849 147.023 45.5771 146.751C45.3051 146.479 45.1524 146.11 45.1524 145.726C45.1511 145.534 45.1876 145.345 45.2599 145.168C45.3321 144.991 45.4387 144.83 45.5735 144.694C45.7083 144.558 45.8686 144.45 46.0452 144.377C46.2217 144.303 46.4111 144.266 46.6024 144.266H60.0224C60.2136 144.266 60.403 144.303 60.5796 144.377C60.7562 144.45 60.9165 144.558 61.0512 144.694C61.186 144.83 61.2926 144.991 61.3649 145.168C61.4372 145.345 61.4737 145.534 61.4724 145.726C61.4724 146.11 61.3196 146.479 61.0477 146.751C60.7757 147.023 60.4069 147.176 60.0224 147.176Z" fill="#90CAF9"/>
<path d="M54.3024 162.394H46.6024C46.4111 162.394 46.2217 162.357 46.0452 162.283C45.8686 162.21 45.7083 162.102 45.5735 161.966C45.4387 161.83 45.3321 161.669 45.2599 161.492C45.1876 161.315 45.1511 161.126 45.1524 160.934C45.1524 160.55 45.3051 160.181 45.5771 159.909C45.849 159.637 46.2178 159.484 46.6024 159.484H54.3024C54.6869 159.484 55.0557 159.637 55.3277 159.909C55.5996 160.181 55.7524 160.55 55.7524 160.934C55.7537 161.126 55.7172 161.315 55.6449 161.492C55.5726 161.669 55.466 161.83 55.3312 161.966C55.1965 162.102 55.0362 162.21 54.8596 162.283C54.683 162.357 54.4936 162.394 54.3024 162.394Z" fill="#263238"/>
<path d="M54.3024 170.285H46.6024C46.4111 170.285 46.2217 170.247 46.0452 170.174C45.8686 170.1 45.7083 169.992 45.5735 169.857C45.4387 169.721 45.3321 169.56 45.2599 169.383C45.1876 169.206 45.1511 169.016 45.1524 168.825C45.1524 168.44 45.3051 168.072 45.5771 167.8C45.849 167.528 46.2178 167.375 46.6024 167.375H54.3024C54.6869 167.375 55.0557 167.528 55.3277 167.8C55.5996 168.072 55.7524 168.44 55.7524 168.825C55.7537 169.016 55.7172 169.206 55.6449 169.383C55.5726 169.56 55.466 169.721 55.3312 169.857C55.1965 169.992 55.0362 170.1 54.8596 170.174C54.683 170.247 54.4936 170.285 54.3024 170.285Z" fill="#263238"/>
<path d="M77.1518 170.285H63.0518C62.6646 170.285 62.2932 170.131 62.0194 169.857C61.7456 169.584 61.5918 169.212 61.5918 168.825C61.5944 168.44 61.7494 168.071 62.0229 167.799C62.2965 167.527 62.6663 167.375 63.0518 167.375H77.1518C77.3431 167.374 77.5327 167.41 77.7098 167.483C77.8868 167.555 78.0479 167.661 78.1836 167.796C78.3193 167.931 78.427 168.091 78.5005 168.268C78.574 168.444 78.6118 168.634 78.6118 168.825C78.6118 169.212 78.458 169.584 78.1842 169.857C77.9104 170.131 77.539 170.285 77.1518 170.285Z" fill="#E0E0E0"/>
<path d="M69.1821 177.297H55.0721C54.6875 177.297 54.3187 177.144 54.0468 176.872C53.7748 176.6 53.6221 176.231 53.6221 175.847C53.6221 175.461 53.7745 175.091 54.0462 174.818C54.3178 174.544 54.6866 174.389 55.0721 174.387H69.1821C69.5676 174.389 69.9363 174.544 70.208 174.818C70.4796 175.091 70.6321 175.461 70.6321 175.847C70.6321 176.231 70.4793 176.6 70.2074 176.872C69.9355 177.144 69.5666 177.297 69.1821 177.297Z" fill="#90CAF9"/>
<path d="M72.3021 182.395H62.6121C62.0653 182.395 61.6221 182.838 61.6221 183.385V184.315C61.6221 184.861 62.0653 185.305 62.6121 185.305H72.3021C72.8488 185.305 73.2921 184.861 73.2921 184.315V183.385C73.2921 182.838 72.8488 182.395 72.3021 182.395Z" fill="#90CAF9"/>
<path d="M71.8313 200.984H63.0713C62.8796 200.984 62.6898 200.946 62.5126 200.873C62.3355 200.8 62.1745 200.692 62.039 200.557C61.9034 200.421 61.7958 200.26 61.7225 200.083C61.6491 199.906 61.6113 199.716 61.6113 199.524C61.6113 199.333 61.6492 199.144 61.7227 198.967C61.7962 198.79 61.9038 198.63 62.0396 198.495C62.1753 198.361 62.3363 198.254 62.5134 198.182C62.6904 198.109 62.8801 198.073 63.0713 198.074H71.8313C72.2159 198.074 72.5847 198.227 72.8566 198.499C73.1286 198.771 73.2813 199.14 73.2813 199.524C73.2826 199.715 73.2461 199.905 73.1738 200.082C73.1016 200.259 72.995 200.42 72.8602 200.556C72.7254 200.692 72.5651 200.799 72.3885 200.873C72.212 200.946 72.0226 200.984 71.8313 200.984Z" fill="#90CAF9"/>
<path d="M71.8313 217.547H63.0713C62.8801 217.548 62.6904 217.511 62.5134 217.439C62.3363 217.367 62.1753 217.26 62.0396 217.126C61.9038 216.991 61.7962 216.831 61.7227 216.654C61.6492 216.477 61.6113 216.288 61.6113 216.097C61.6113 215.905 61.6491 215.715 61.7225 215.538C61.7958 215.361 61.9034 215.2 62.039 215.064C62.1745 214.929 62.3355 214.821 62.5126 214.748C62.6898 214.674 62.8796 214.637 63.0713 214.637H71.8313C72.0226 214.637 72.212 214.675 72.3885 214.748C72.5651 214.822 72.7254 214.929 72.8602 215.065C72.995 215.201 73.1016 215.362 73.1738 215.539C73.2461 215.716 73.2826 215.905 73.2813 216.097C73.2813 216.481 73.1286 216.85 72.8566 217.122C72.5847 217.394 72.2159 217.547 71.8313 217.547Z" fill="#90CAF9"/>
<path d="M93.3815 217.547H78.0215C77.8303 217.548 77.6406 217.511 77.4636 217.439C77.2865 217.367 77.1255 217.26 76.9897 217.126C76.854 216.991 76.7463 216.831 76.6729 216.654C76.5994 216.477 76.5615 216.288 76.5615 216.097C76.5615 215.709 76.7153 215.338 76.9892 215.064C77.263 214.791 77.6343 214.637 78.0215 214.637H93.3815C93.5728 214.637 93.7622 214.675 93.9387 214.748C94.1153 214.822 94.2756 214.929 94.4104 215.065C94.5452 215.201 94.6518 215.362 94.724 215.539C94.7963 215.716 94.8328 215.905 94.8315 216.097C94.8315 216.481 94.6788 216.85 94.4068 217.122C94.1349 217.394 93.7661 217.547 93.3815 217.547Z" fill="#455A64"/>
<path d="M104.132 217.547H101.922C101.731 217.548 101.541 217.511 101.364 217.439C101.187 217.367 101.026 217.26 100.89 217.126C100.754 216.991 100.647 216.831 100.573 216.654C100.5 216.477 100.462 216.288 100.462 216.097C100.462 215.905 100.5 215.715 100.573 215.538C100.646 215.361 100.754 215.2 100.89 215.064C101.025 214.929 101.186 214.821 101.363 214.748C101.54 214.674 101.73 214.637 101.922 214.637H104.132C104.519 214.637 104.89 214.791 105.164 215.064C105.438 215.338 105.592 215.709 105.592 216.097C105.589 216.482 105.434 216.851 105.161 217.123C104.887 217.394 104.517 217.547 104.132 217.547Z" fill="#E0E0E0"/>
<path d="M92.462 200.984H79.462C79.0747 200.984 78.7034 200.83 78.4296 200.557C78.1558 200.283 78.002 199.911 78.002 199.524C78.0019 199.333 78.0398 199.144 78.1133 198.967C78.1868 198.79 78.2945 198.63 78.4302 198.495C78.5659 198.361 78.7269 198.254 78.904 198.182C79.0811 198.109 79.2707 198.073 79.462 198.074H92.462C92.8465 198.074 93.2153 198.227 93.4873 198.499C93.7592 198.771 93.912 199.14 93.912 199.524C93.9133 199.715 93.8767 199.905 93.8045 200.082C93.7322 200.259 93.6256 200.42 93.4908 200.556C93.356 200.692 93.1957 200.799 93.0192 200.873C92.8426 200.946 92.6532 200.984 92.462 200.984Z" fill="#E0E0E0"/>
<path d="M120.931 208.258H79.4815C79.0943 208.258 78.7229 208.104 78.4491 207.83C78.1753 207.556 78.0215 207.185 78.0215 206.798C78.0215 206.606 78.0593 206.417 78.1328 206.24C78.2063 206.064 78.314 205.904 78.4497 205.769C78.5854 205.634 78.7464 205.527 78.9235 205.455C79.1006 205.383 79.2902 205.346 79.4815 205.348H120.931C121.316 205.348 121.685 205.5 121.957 205.772C122.229 206.044 122.381 206.413 122.381 206.798C122.383 206.989 122.346 207.179 122.274 207.356C122.202 207.533 122.095 207.694 121.96 207.829C121.826 207.965 121.665 208.073 121.489 208.146C121.312 208.22 121.123 208.258 120.931 208.258Z" fill="#E0E0E0"/>
<path d="M125.712 200.984H99.252C98.8648 200.984 98.4934 200.83 98.2196 200.557C97.9458 200.283 97.792 199.911 97.792 199.524C97.7946 199.139 97.9496 198.77 98.2231 198.498C98.4966 198.227 98.8665 198.074 99.252 198.074H125.712C125.903 198.073 126.093 198.109 126.27 198.182C126.447 198.254 126.608 198.361 126.744 198.495C126.879 198.63 126.987 198.79 127.061 198.967C127.134 199.144 127.172 199.333 127.172 199.524C127.172 199.911 127.018 200.283 126.744 200.557C126.471 200.83 126.099 200.984 125.712 200.984Z" fill="#455A64"/>
<path d="M89.9816 182.395H78.0916C77.5448 182.395 77.1016 182.838 77.1016 183.385V184.315C77.1016 184.861 77.5448 185.305 78.0916 185.305H89.9816C90.5283 185.305 90.9716 184.861 90.9716 184.315V183.385C90.9716 182.838 90.5283 182.395 89.9816 182.395Z" fill="#455A64"/>
<path d="M99.472 182.395H95.822C95.2753 182.395 94.832 182.838 94.832 183.385V184.315C94.832 184.861 95.2753 185.305 95.822 185.305H99.472C100.019 185.305 100.462 184.861 100.462 184.315V183.385C100.462 182.838 100.019 182.395 99.472 182.395Z" fill="#E0E0E0"/>
<path d="M120.382 182.395H105.742C105.195 182.395 104.752 182.838 104.752 183.385V184.315C104.752 184.861 105.195 185.305 105.742 185.305H120.382C120.929 185.305 121.372 184.861 121.372 184.315V183.385C121.372 182.838 120.929 182.395 120.382 182.395Z" fill="#E0E0E0"/>
<path d="M78.7318 177.297H75.5918C75.4006 177.298 75.211 177.261 75.0339 177.189C74.8568 177.117 74.6958 177.01 74.5601 176.876C74.4244 176.741 74.3166 176.581 74.2431 176.404C74.1697 176.227 74.1318 176.038 74.1318 175.847C74.1318 175.459 74.2857 175.088 74.5595 174.814C74.8333 174.541 75.2046 174.387 75.5918 174.387H78.7318C79.1173 174.389 79.4861 174.544 79.7578 174.818C80.0294 175.091 80.1818 175.461 80.1818 175.847C80.1818 176.231 80.0291 176.6 79.7571 176.872C79.4852 177.144 79.1164 177.297 78.7318 177.297Z" fill="#263238"/>
<path d="M105.352 177.297H85.3523C84.9678 177.297 84.599 177.144 84.327 176.872C84.0551 176.6 83.9023 176.231 83.9023 175.847C83.9023 175.461 84.0548 175.091 84.3264 174.818C84.5981 174.544 84.9669 174.389 85.3523 174.387H105.352C105.739 174.389 106.109 174.544 106.382 174.817C106.655 175.09 106.81 175.46 106.812 175.847C106.81 176.232 106.655 176.601 106.381 176.873C106.108 177.144 105.738 177.297 105.352 177.297Z" fill="#E0E0E0"/>
<path d="M81.5016 131.687H68.0916C67.7071 131.687 67.3383 131.535 67.0663 131.263C66.7944 130.991 66.6416 130.622 66.6416 130.237C66.6403 130.046 66.6769 129.856 66.7491 129.679C66.8214 129.502 66.928 129.341 67.0628 129.206C67.1976 129.07 67.3579 128.962 67.5344 128.889C67.711 128.815 67.9004 128.777 68.0916 128.777H81.5016C81.8889 128.777 82.2602 128.931 82.534 129.205C82.8078 129.479 82.9616 129.85 82.9616 130.237C82.9616 130.429 82.9238 130.618 82.8503 130.795C82.7768 130.971 82.6691 131.131 82.5334 131.266C82.3977 131.401 82.2367 131.508 82.0596 131.58C81.8825 131.652 81.6929 131.689 81.5016 131.687Z" fill="#455A64"/>
<path d="M98.8316 139.305H68.0916C67.9004 139.305 67.711 139.267 67.5344 139.193C67.3579 139.12 67.1976 139.012 67.0628 138.876C66.928 138.741 66.8214 138.58 66.7491 138.403C66.6769 138.225 66.6403 138.036 66.6416 137.845C66.6416 137.46 66.7944 137.091 67.0663 136.819C67.3383 136.547 67.7071 136.395 68.0916 136.395H98.8316C99.0229 136.393 99.2125 136.43 99.3896 136.502C99.5667 136.574 99.7277 136.681 99.8634 136.816C99.9991 136.951 100.107 137.111 100.18 137.287C100.254 137.464 100.292 137.653 100.292 137.845C100.292 138.232 100.138 138.603 99.864 138.877C99.5902 139.151 99.2189 139.305 98.8316 139.305Z" fill="#263238"/>
<path d="M131.832 147.176H68.0916C67.7071 147.176 67.3383 147.023 67.0663 146.751C66.7944 146.479 66.6416 146.11 66.6416 145.726C66.6403 145.534 66.6769 145.345 66.7491 145.168C66.8214 144.991 66.928 144.83 67.0628 144.694C67.1976 144.558 67.3579 144.45 67.5344 144.377C67.711 144.303 67.9004 144.266 68.0916 144.266H131.832C132.023 144.266 132.212 144.303 132.389 144.377C132.565 144.45 132.726 144.558 132.861 144.694C132.995 144.83 133.102 144.991 133.174 145.168C133.246 145.345 133.283 145.534 133.282 145.726C133.282 146.11 133.129 146.479 132.857 146.751C132.585 147.023 132.216 147.176 131.832 147.176Z" fill="#E0E0E0"/>
<path d="M98.1416 152.726H68.0916C67.7061 152.724 67.3373 152.569 67.0657 152.295C66.794 152.022 66.6416 151.652 66.6416 151.266C66.6416 150.882 66.7944 150.513 67.0663 150.241C67.3382 149.969 67.707 149.816 68.0916 149.816H98.1416C98.3329 149.815 98.5225 149.852 98.6996 149.924C98.8766 149.996 99.0377 150.103 99.1734 150.238C99.3091 150.372 99.4168 150.533 99.4903 150.709C99.5638 150.886 99.6016 151.075 99.6016 151.266C99.6016 151.654 99.4478 152.025 99.174 152.299C98.9002 152.573 98.5288 152.726 98.1416 152.726Z" fill="#E0E0E0"/>
<path d="M92.0022 162.394H61.9422C61.751 162.394 61.5616 162.357 61.385 162.283C61.2084 162.21 61.0481 162.102 60.9134 161.966C60.7786 161.83 60.672 161.669 60.5997 161.492C60.5274 161.315 60.4909 161.126 60.4922 160.934C60.4922 160.55 60.645 160.181 60.9169 159.909C61.1888 159.637 61.5577 159.484 61.9422 159.484H92.0022C92.3868 159.484 92.7556 159.637 93.0275 159.909C93.2994 160.181 93.4522 160.55 93.4522 160.934C93.4535 161.126 93.417 161.315 93.3447 161.492C93.2725 161.669 93.1658 161.83 93.0311 161.966C92.8963 162.102 92.736 162.21 92.5594 162.283C92.3828 162.357 92.1935 162.394 92.0022 162.394Z" fill="#455A64"/>
<path d="M108.832 162.394H98.752C98.3648 162.394 97.9934 162.241 97.7196 161.967C97.4458 161.693 97.292 161.322 97.292 160.934C97.292 160.743 97.3298 160.554 97.4033 160.377C97.4768 160.201 97.5845 160.04 97.7202 159.906C97.8559 159.771 98.0169 159.664 98.194 159.592C98.3711 159.52 98.5607 159.483 98.752 159.484H108.832C109.217 159.484 109.587 159.637 109.861 159.908C110.134 160.18 110.289 160.549 110.292 160.934C110.292 161.322 110.138 161.693 109.864 161.967C109.591 162.241 109.219 162.394 108.832 162.394Z" fill="#90CAF9"/>
<path d="M134.582 162.348H115.582C115.391 162.349 115.201 162.312 115.024 162.24C114.847 162.168 114.686 162.061 114.55 161.926C114.415 161.792 114.307 161.631 114.233 161.455C114.16 161.278 114.122 161.089 114.122 160.897C114.122 160.51 114.276 160.139 114.55 159.865C114.823 159.591 115.195 159.438 115.582 159.438H134.582C134.773 159.437 134.963 159.475 135.139 159.549C135.316 159.622 135.476 159.73 135.611 159.866C135.746 160.001 135.852 160.162 135.925 160.34C135.997 160.517 136.033 160.706 136.032 160.897C136.032 161.282 135.879 161.651 135.607 161.923C135.335 162.195 134.967 162.348 134.582 162.348Z" fill="#263238"/>
<path d="M160.472 162.348H141.472C141.087 162.348 140.718 162.195 140.446 161.923C140.174 161.651 140.022 161.282 140.022 160.897C140.02 160.706 140.057 160.517 140.129 160.34C140.201 160.162 140.308 160.001 140.443 159.866C140.577 159.73 140.738 159.622 140.914 159.549C141.091 159.475 141.28 159.437 141.472 159.438H160.472C160.859 159.438 161.23 159.591 161.504 159.865C161.778 160.139 161.932 160.51 161.932 160.897C161.932 161.089 161.894 161.278 161.82 161.455C161.747 161.631 161.639 161.792 161.503 161.926C161.368 162.061 161.207 162.168 161.029 162.24C160.852 162.312 160.663 162.349 160.472 162.348Z" fill="#E0E0E0"/>
<path d="M15.8318 160.316H7.83183C7.44635 160.314 7.07755 160.159 6.80591 159.885C6.53426 159.612 6.38183 159.242 6.38184 158.856C6.38184 158.472 6.53461 158.103 6.80653 157.831C7.07846 157.559 7.44727 157.406 7.83183 157.406H15.8318C16.2164 157.406 16.5852 157.559 16.8571 157.831C17.1291 158.103 17.2818 158.472 17.2818 158.856C17.2818 159.242 17.1294 159.612 16.8578 159.885C16.5861 160.159 16.2173 160.314 15.8318 160.316Z" fill="#E0E0E0"/>
<path d="M13.4419 183.855H7.83187C7.64061 183.855 7.45124 183.817 7.27466 183.744C7.09809 183.67 6.93779 183.563 6.80301 183.427C6.66824 183.291 6.56163 183.13 6.48935 182.953C6.41707 182.776 6.38055 182.587 6.38187 182.395C6.38187 182.011 6.53464 181.642 6.80657 181.37C7.0785 181.098 7.4473 180.945 7.83187 180.945H13.4619C13.8464 180.945 14.2152 181.098 14.4872 181.37C14.7591 181.642 14.9119 182.011 14.9119 182.395C14.9132 182.588 14.876 182.78 14.8025 182.958C14.729 183.136 14.6206 183.298 14.4837 183.434C14.3468 183.57 14.1841 183.678 14.0052 183.75C13.8263 183.822 13.6348 183.858 13.4419 183.855Z" fill="#E0E0E0"/>
<path d="M23.4319 168.156H7.83187C7.4473 168.156 7.0785 168.003 6.80657 167.731C6.53464 167.459 6.38187 167.091 6.38187 166.706C6.38055 166.515 6.41707 166.325 6.48935 166.148C6.56163 165.971 6.66824 165.81 6.80301 165.674C6.93779 165.539 7.09809 165.431 7.27466 165.357C7.45124 165.284 7.64061 165.246 7.83187 165.246H23.4319C23.6231 165.246 23.8125 165.284 23.9891 165.357C24.1657 165.431 24.326 165.539 24.4607 165.674C24.5955 165.81 24.7021 165.971 24.7744 166.148C24.8467 166.325 24.8832 166.515 24.8819 166.706C24.8819 167.091 24.7291 167.459 24.4572 167.731C24.1852 168.003 23.8164 168.156 23.4319 168.156Z" fill="#E0E0E0"/>
<path d="M20.6919 176.008H7.83187C7.4473 176.008 7.0785 175.855 6.80657 175.583C6.53464 175.311 6.38187 174.942 6.38187 174.558C6.38055 174.366 6.41707 174.177 6.48935 174C6.56163 173.823 6.66824 173.662 6.80301 173.526C6.93779 173.39 7.09809 173.282 7.27466 173.209C7.45124 173.135 7.64061 173.098 7.83187 173.098H20.7119C20.9031 173.098 21.0925 173.135 21.2691 173.209C21.4457 173.282 21.606 173.39 21.7407 173.526C21.8755 173.662 21.9821 173.823 22.0544 174C22.1266 174.177 22.1632 174.366 22.1619 174.558C22.1619 174.75 22.1237 174.94 22.0496 175.117C21.9755 175.294 21.8669 175.455 21.7301 175.59C21.5934 175.725 21.4311 175.831 21.2529 175.903C21.0747 175.975 20.884 176.01 20.6919 176.008Z" fill="#E0E0E0"/>
<path d="M40.0323 130.238C40.0323 130.531 39.9455 130.817 39.7828 131.06C39.6202 131.303 39.3891 131.493 39.1186 131.605C38.8482 131.717 38.5506 131.746 38.2635 131.689C37.9764 131.632 37.7127 131.491 37.5057 131.284C37.2988 131.077 37.1578 130.814 37.1007 130.527C37.0436 130.239 37.0729 129.942 37.1849 129.671C37.2969 129.401 37.4866 129.17 37.73 129.007C37.9734 128.845 38.2596 128.758 38.5523 128.758C38.9448 128.758 39.3212 128.914 39.5988 129.191C39.8763 129.469 40.0323 129.845 40.0323 130.238Z" fill="#455A64"/>
<path d="M38.5523 123.944C39.3696 123.944 40.0323 123.282 40.0323 122.464C40.0323 121.647 39.3696 120.984 38.5523 120.984C37.7349 120.984 37.0723 121.647 37.0723 122.464C37.0723 123.282 37.7349 123.944 38.5523 123.944Z" fill="#455A64"/>
<path d="M38.5523 139.308C39.3696 139.308 40.0323 138.645 40.0323 137.828C40.0323 137.01 39.3696 136.348 38.5523 136.348C37.7349 136.348 37.0723 137.01 37.0723 137.828C37.0723 138.645 37.7349 139.308 38.5523 139.308Z" fill="#455A64"/>
<path d="M38.5523 147.206C39.3696 147.206 40.0323 146.543 40.0323 145.726C40.0323 144.909 39.3696 144.246 38.5523 144.246C37.7349 144.246 37.0723 144.909 37.0723 145.726C37.0723 146.543 37.7349 147.206 38.5523 147.206Z" fill="#455A64"/>
<path d="M38.5523 155.097C39.3696 155.097 40.0323 154.434 40.0323 153.617C40.0323 152.799 39.3696 152.137 38.5523 152.137C37.7349 152.137 37.0723 152.799 37.0723 153.617C37.0723 154.434 37.7349 155.097 38.5523 155.097Z" fill="#455A64"/>
<path d="M40.0322 161.505C40.0342 161.798 39.9491 162.085 39.7877 162.33C39.6263 162.575 39.3958 162.766 39.1256 162.88C38.8553 162.993 38.5574 163.024 38.2697 162.968C37.9819 162.912 37.7173 162.772 37.5093 162.565C37.3013 162.359 37.1594 162.095 37.1014 161.808C37.0435 161.52 37.0722 161.222 37.184 160.951C37.2957 160.68 37.4854 160.448 37.729 160.285C37.9726 160.122 38.2591 160.035 38.5522 160.035C38.943 160.035 39.318 160.19 39.5952 160.465C39.8725 160.74 40.0296 161.114 40.0322 161.505Z" fill="#455A64"/>
<path d="M38.5523 170.886C39.3696 170.886 40.0323 170.223 40.0323 169.406C40.0323 168.588 39.3696 167.926 38.5523 167.926C37.7349 167.926 37.0723 168.588 37.0723 169.406C37.0723 170.223 37.7349 170.886 38.5523 170.886Z" fill="#455A64"/>
<path d="M38.5523 178.776C39.3696 178.776 40.0323 178.114 40.0323 177.296C40.0323 176.479 39.3696 175.816 38.5523 175.816C37.7349 175.816 37.0723 176.479 37.0723 177.296C37.0723 178.114 37.7349 178.776 38.5523 178.776Z" fill="#455A64"/>
<path d="M40.0323 185.195C40.0323 185.488 39.9455 185.774 39.7828 186.017C39.6202 186.26 39.3891 186.45 39.1186 186.562C38.8482 186.674 38.5506 186.704 38.2635 186.646C37.9764 186.589 37.7127 186.448 37.5057 186.241C37.2988 186.034 37.1578 185.771 37.1007 185.484C37.0436 185.196 37.0729 184.899 37.1849 184.628C37.2969 184.358 37.4866 184.127 37.73 183.964C37.9734 183.802 38.2596 183.715 38.5523 183.715C38.9448 183.715 39.3212 183.871 39.5988 184.148C39.8763 184.426 40.0323 184.802 40.0323 185.195Z" fill="#455A64"/>
<path d="M40.0323 193.085C40.0323 193.378 39.9455 193.664 39.7828 193.908C39.6202 194.151 39.3891 194.341 39.1186 194.453C38.8482 194.565 38.5506 194.594 38.2635 194.537C37.9764 194.48 37.7127 194.339 37.5057 194.132C37.2988 193.925 37.1578 193.661 37.1007 193.374C37.0436 193.087 37.0729 192.79 37.1849 192.519C37.2969 192.249 37.4866 192.018 37.73 191.855C37.9734 191.692 38.2596 191.605 38.5523 191.605C38.9448 191.605 39.3212 191.761 39.5988 192.039C39.8763 192.316 40.0323 192.693 40.0323 193.085Z" fill="#455A64"/>
<path d="M38.5523 202.468C39.3696 202.468 40.0323 201.805 40.0323 200.988C40.0323 200.17 39.3696 199.508 38.5523 199.508C37.7349 199.508 37.0723 200.17 37.0723 200.988C37.0723 201.805 37.7349 202.468 38.5523 202.468Z" fill="#455A64"/>
<path d="M40.0323 208.875C40.0323 209.167 39.9455 209.453 39.7828 209.697C39.6202 209.94 39.3891 210.13 39.1186 210.242C38.8482 210.354 38.5506 210.383 38.2635 210.326C37.9764 210.269 37.7127 210.128 37.5057 209.921C37.2988 209.714 37.1578 209.45 37.1007 209.163C37.0436 208.876 37.0729 208.579 37.1849 208.308C37.2969 208.038 37.4866 207.807 37.73 207.644C37.9734 207.481 38.2596 207.395 38.5523 207.395C38.9448 207.395 39.3212 207.55 39.5988 207.828C39.8763 208.106 40.0323 208.482 40.0323 208.875Z" fill="#455A64"/>
<path d="M38.5523 218.257C39.3696 218.257 40.0323 217.594 40.0323 216.777C40.0323 215.959 39.3696 215.297 38.5523 215.297C37.7349 215.297 37.0723 215.959 37.0723 216.777C37.0723 217.594 37.7349 218.257 38.5523 218.257Z" fill="#455A64"/>
<path d="M5.60141 99.0977H176.711C177.727 99.0977 178.701 99.5012 179.42 100.219C180.138 100.938 180.541 101.912 180.541 102.928V114.788H0.191406V104.498C0.191405 103.788 0.331408 103.085 0.603409 102.429C0.875409 101.773 1.27407 101.177 1.77657 100.676C2.27906 100.174 2.87553 99.7766 3.53185 99.5058C4.18816 99.2351 4.89143 99.0964 5.60141 99.0977Z" fill="#90CAF9"/>
<path d="M9.51132 109.546C10.6987 109.546 11.6613 108.583 11.6613 107.396C11.6613 106.209 10.6987 105.246 9.51132 105.246C8.32391 105.246 7.36133 106.209 7.36133 107.396C7.36133 108.583 8.32391 109.546 9.51132 109.546Z" fill="white"/>
<path d="M18.2717 107.396C18.2717 107.821 18.1456 108.237 17.9094 108.591C17.6731 108.944 17.3373 109.22 16.9444 109.382C16.5516 109.545 16.1193 109.588 15.7022 109.505C15.2852 109.422 14.9021 109.217 14.6014 108.916C14.3007 108.616 14.0959 108.233 14.013 107.816C13.93 107.399 13.9726 106.966 14.1353 106.573C14.2981 106.18 14.5736 105.845 14.9272 105.608C15.2808 105.372 15.6964 105.246 16.1217 105.246C16.4044 105.245 16.6846 105.299 16.946 105.407C17.2075 105.515 17.445 105.673 17.6449 105.873C17.8448 106.073 18.0031 106.31 18.1107 106.572C18.2183 106.833 18.273 107.113 18.2717 107.396Z" fill="white"/>
<path d="M24.882 107.396C24.882 107.821 24.7559 108.237 24.5197 108.591C24.2834 108.944 23.9477 109.22 23.5548 109.382C23.1619 109.545 22.7297 109.588 22.3126 109.505C21.8955 109.422 21.5124 109.217 21.2117 108.916C20.9111 108.616 20.7063 108.233 20.6233 107.816C20.5404 107.399 20.583 106.966 20.7457 106.573C20.9084 106.18 21.184 105.845 21.5376 105.608C21.8911 105.372 22.3068 105.246 22.732 105.246C23.0147 105.245 23.2949 105.299 23.5564 105.407C23.8178 105.515 24.0554 105.673 24.2553 105.873C24.4552 106.073 24.6135 106.31 24.7211 106.572C24.8287 106.833 24.8834 107.113 24.882 107.396Z" fill="white"/>
<path d="M38.5518 227.664L53.8018 244.154L67.6318 227.664H38.5518Z" fill="white"/>
<path d="M175.652 229.466C176.189 229.434 176.72 229.333 177.232 229.166C177.975 228.904 178.643 228.467 179.179 227.89C179.716 227.314 180.104 226.616 180.312 225.856C180.457 225.329 180.514 224.782 180.482 224.236V222.396C180.482 221.106 180.482 219.696 180.482 218.176C180.482 215.126 180.482 211.606 180.482 207.646C180.482 191.796 180.432 168.876 180.402 140.546C180.402 133.466 180.402 126.056 180.402 118.316C180.402 114.443 180.402 110.499 180.402 106.486C180.402 105.486 180.402 104.486 180.402 103.486C180.295 102.507 179.882 101.586 179.221 100.855C178.56 100.124 177.686 99.6207 176.722 99.416C175.706 99.3066 174.683 99.2732 173.662 99.316H120.482H61.7118H6.71185C6.05185 99.316 5.34185 99.316 4.71185 99.316C4.07528 99.3772 3.45865 99.5714 2.90185 99.886C2.34281 100.205 1.85596 100.636 1.47212 101.152C1.08827 101.668 0.815759 102.259 0.671838 102.886C0.53668 103.799 0.493141 104.724 0.541848 105.646V147.226C0.541848 161.726 0.541848 175.873 0.541848 189.666V209.996C0.541848 213.329 0.541848 216.639 0.541848 219.926C0.541848 221.556 0.541848 223.206 0.541848 224.806C0.587294 225.576 0.8242 226.322 1.23109 226.977C1.63798 227.631 2.20195 228.174 2.87183 228.556C3.5388 228.941 4.29211 229.15 5.06184 229.166H39.8318L39.9018 229.236L53.9018 243.936H53.5918L65.8318 229.336L65.8918 229.266H65.9818L146.152 229.346L168.042 229.406H173.742H175.682H173.742H168.042L146.152 229.466L65.9818 229.546L66.1318 229.476L53.8318 244.286L53.6818 244.466L53.5218 244.296L39.5218 229.616L39.6818 229.686H4.98184C4.13948 229.66 3.31603 229.43 2.58184 229.016C1.84195 228.594 1.21869 227.995 0.768273 227.272C0.317856 226.549 0.0544536 225.726 0.00183951 224.876C0.00183951 223.216 0.00183951 221.606 0.00183951 219.966V210.036C0.00183951 203.369 0.00183951 196.593 0.00183951 189.706V147.276C0.00183951 140.029 0.00183951 132.696 0.00183951 125.276V104.276C-0.0101898 103.785 0.0368137 103.295 0.141839 102.816C0.307361 102.124 0.612796 101.474 1.03932 100.904C1.46583 100.335 2.0044 99.8592 2.62183 99.506C3.23747 99.1575 3.91829 98.9397 4.62183 98.866C5.35183 98.816 5.98183 98.866 6.62183 98.866H120.382H173.562C174.61 98.8184 175.66 98.8552 176.702 98.976C177.751 99.2012 178.702 99.7516 179.42 100.549C180.138 101.346 180.587 102.349 180.702 103.416C180.762 104.476 180.702 105.416 180.702 106.416C180.702 110.416 180.702 114.359 180.702 118.246C180.702 125.979 180.702 133.389 180.702 140.476C180.702 168.806 180.632 191.726 180.612 207.576C180.612 211.576 180.612 215.056 180.612 218.106C180.612 219.626 180.612 221.036 180.612 222.326V224.166C180.637 224.723 180.573 225.28 180.422 225.816C180.175 226.717 179.671 227.527 178.972 228.146C178.479 228.597 177.896 228.938 177.262 229.146C176.877 229.276 176.477 229.356 176.072 229.386L175.652 229.466Z" fill="#263238"/>
<path d="M14.3614 0.277344H150.601C151.442 0.277344 152.248 0.61132 152.843 1.20581C153.437 1.8003 153.771 2.60661 153.771 3.44734V71.9773C153.771 72.9825 153.372 73.9465 152.661 74.6573C151.951 75.368 150.987 75.7673 149.981 75.7673H14.3614C13.5207 75.7673 12.7144 75.4334 12.1199 74.8389C11.5254 74.2444 11.1914 73.4381 11.1914 72.5973V3.44734C11.1914 2.60661 11.5254 1.8003 12.1199 1.20581C12.7144 0.61132 13.5207 0.277344 14.3614 0.277344Z" fill="white"/>
<path d="M14.6616 0.277344H150.302C151.222 0.277344 152.105 0.642919 152.755 1.29367C153.406 1.94442 153.772 2.82704 153.772 3.74734V16.4873H11.1916V3.78734C11.1863 3.3283 11.2722 2.87277 11.4442 2.44714C11.6162 2.02152 11.871 1.63425 12.1937 1.30779C12.5165 0.981317 12.9008 0.722122 13.3244 0.545242C13.748 0.368363 14.2026 0.277313 14.6616 0.277344Z" fill="#90CAF9"/>
<path d="M149.762 75.7858C150.13 75.7523 150.494 75.6887 150.852 75.5958C151.369 75.4449 151.85 75.1896 152.264 74.8456C152.679 74.5016 153.018 74.0762 153.262 73.5958C153.618 72.8843 153.77 72.0884 153.702 71.2958C153.702 70.4058 153.702 69.4458 153.702 68.3958C153.702 66.3058 153.702 63.8858 153.702 61.1658C153.702 50.2858 153.702 34.5558 153.622 15.1158C153.622 12.6825 153.622 10.1925 153.622 7.64583C153.622 6.37583 153.622 5.09583 153.622 3.79583C153.679 3.17829 153.543 2.55824 153.234 2.021C152.924 1.48376 152.455 1.05573 151.892 0.795826C151.3 0.554388 150.659 0.458374 150.022 0.515827H135.422H98.9219H15.2819C14.8399 0.493843 14.3969 0.524063 13.962 0.605839C13.3329 0.754422 12.7623 1.08662 12.3225 1.56025C11.8827 2.03387 11.5936 2.62754 11.492 3.26583C11.4562 3.71178 11.4562 4.15989 11.492 4.60584V19.6058C11.492 26.8258 11.492 33.9392 11.492 40.9458V61.5458C11.492 64.8792 11.492 68.2125 11.492 71.5458C11.4641 72.3214 11.6743 73.0869 12.0944 73.7394C12.5146 74.392 13.1244 74.9002 13.8419 75.1958C14.584 75.4492 15.3715 75.5412 16.152 75.4658H18.572H86.882L132.932 75.5458H145.452H148.712H149.822H148.712H145.452L132.932 75.5958L86.882 75.6758L18.572 75.7358H16.152C15.3095 75.8041 14.462 75.6986 13.6619 75.4258C12.8556 75.0921 12.1696 74.5214 11.6946 73.7893C11.2197 73.0572 10.9781 72.1982 11.0019 71.3258V61.3258C11.0019 54.5958 11.0019 47.7158 11.0019 40.7258V4.62583C10.9793 4.15193 10.9961 3.67697 11.0519 3.20583C11.1639 2.46447 11.4967 1.77406 12.0068 1.22464C12.517 0.675225 13.1809 0.292301 13.9119 0.125828C14.385 0.0261426 14.8692 -0.0108423 15.352 0.0158274H98.992H135.492H150.042C150.725 -0.0439083 151.412 0.0660237 152.042 0.335835C152.682 0.628428 153.217 1.11033 153.575 1.71653C153.932 2.32272 154.095 3.02404 154.042 3.72583C154.042 5.02583 154.042 6.30582 154.042 7.57582C154.042 10.1292 154.042 12.6192 154.042 15.0458C154.042 34.4858 153.982 50.2158 153.962 61.0958C153.962 63.8158 153.962 66.2358 153.962 68.3258C153.962 69.3758 153.962 70.3258 153.962 71.2258C153.981 71.6508 153.955 72.0767 153.882 72.4958C153.799 72.8712 153.668 73.2342 153.492 73.5758C153.231 74.0602 152.875 74.487 152.446 74.8306C152.016 75.1743 151.522 75.4277 150.992 75.5758C150.599 75.7236 150.182 75.7949 149.762 75.7858Z" fill="#263238"/>
<path d="M21.8016 12.3044C23.2707 12.3044 24.4616 11.1135 24.4616 9.64438C24.4616 8.1753 23.2707 6.98438 21.8016 6.98438C20.3325 6.98438 19.1416 8.1753 19.1416 9.64438C19.1416 11.1135 20.3325 12.3044 21.8016 12.3044Z" fill="white"/>
<path d="M32.6218 9.6444C32.6217 10.1709 32.4655 10.6856 32.1728 11.1232C31.88 11.5609 31.464 11.9018 30.9774 12.1029C30.4907 12.3039 29.9554 12.356 29.4391 12.2525C28.9229 12.1491 28.4489 11.8947 28.0773 11.5217C27.7057 11.1487 27.4532 10.6738 27.3517 10.1572C27.2502 9.64054 27.3043 9.10538 27.5071 8.61951C27.71 8.13364 28.0525 7.71889 28.4912 7.42781C28.93 7.13674 29.4452 6.98241 29.9718 6.98439C30.3206 6.98439 30.666 7.05326 30.9882 7.18706C31.3104 7.32086 31.6029 7.51697 31.8491 7.7641C32.0953 8.01124 32.2903 8.30455 32.4229 8.62722C32.5555 8.94988 32.6231 9.29555 32.6218 9.6444Z" fill="white"/>
<path d="M38.1414 12.3044C39.6105 12.3044 40.8015 11.1135 40.8015 9.64438C40.8015 8.1753 39.6105 6.98438 38.1414 6.98438C36.6724 6.98438 35.4814 8.1753 35.4814 9.64438C35.4814 11.1135 36.6724 12.3044 38.1414 12.3044Z" fill="white"/>
<path d="M52.2724 39.3244H35.7024C35.4665 39.3257 35.2326 39.2804 35.0143 39.191C34.796 39.1017 34.5975 38.97 34.4302 38.8037C34.2629 38.6373 34.1301 38.4396 34.0396 38.2217C33.949 38.0039 33.9024 37.7703 33.9024 37.5344C33.901 37.2977 33.9467 37.063 34.0367 36.844C34.1267 36.625 34.2592 36.4261 34.4266 36.2586C34.594 36.0912 34.793 35.9587 35.012 35.8687C35.231 35.7787 35.4656 35.7331 35.7024 35.7344H52.2724C52.7498 35.7344 53.2076 35.924 53.5452 36.2616C53.8827 36.5992 54.0724 37.057 54.0724 37.5344C54.0697 38.0101 53.8789 38.4653 53.5416 38.8007C53.2044 39.1361 52.748 39.3244 52.2724 39.3244Z" fill="#263238"/>
<path d="M52.2723 48.7875H35.7023C35.466 48.7875 35.2319 48.7409 35.0135 48.6505C34.7951 48.56 34.5967 48.4274 34.4296 48.2603C34.2624 48.0932 34.1298 47.8947 34.0394 47.6763C33.9489 47.4579 33.9023 47.2239 33.9023 46.9875C33.9023 46.5101 34.092 46.0523 34.4296 45.7147C34.7671 45.3771 35.2249 45.1875 35.7023 45.1875H52.2723C52.7489 45.1901 53.2052 45.3806 53.5422 45.7176C53.8792 46.0546 54.0697 46.5109 54.0723 46.9875C54.0697 47.4641 53.8792 47.9204 53.5422 48.2574C53.2052 48.5944 52.7489 48.7849 52.2723 48.7875Z" fill="#E0E0E0"/>
<path d="M139.772 39.3244H91.6916C91.2159 39.3244 90.7596 39.1361 90.4223 38.8007C90.0851 38.4653 89.8942 38.01 89.8916 37.5344C89.8916 37.057 90.0812 36.5991 90.4188 36.2616C90.7564 35.924 91.2142 35.7344 91.6916 35.7344H139.772C140.249 35.7344 140.707 35.924 141.044 36.2616C141.382 36.5991 141.572 37.057 141.572 37.5344C141.569 38.01 141.378 38.4653 141.041 38.8007C140.704 39.1361 140.247 39.3244 139.772 39.3244Z" fill="#E0E0E0"/>
<path d="M52.2724 58.475H35.7024C35.225 58.475 34.7671 58.2854 34.4296 57.9478C34.092 57.6103 33.9024 57.1524 33.9024 56.675C33.901 56.4383 33.9467 56.2036 34.0367 55.9846C34.1267 55.7656 34.2592 55.5667 34.4266 55.3993C34.594 55.2319 34.793 55.0993 35.012 55.0094C35.231 54.9194 35.4656 54.8737 35.7024 54.875H52.2724C52.7498 54.875 53.2076 55.0647 53.5452 55.4022C53.8827 55.7398 54.0724 56.1976 54.0724 56.675C54.0697 57.1516 53.8792 57.6079 53.5422 57.9449C53.2053 58.2819 52.7489 58.4724 52.2724 58.475Z" fill="#90CAF9"/>
<path d="M128.302 48.7875H111.722C111.246 48.7849 110.791 48.5941 110.455 48.2568C110.12 47.9195 109.932 47.4632 109.932 46.9875C109.932 46.5118 110.12 46.0555 110.455 45.7182C110.791 45.381 111.246 45.1901 111.722 45.1875H128.302C128.778 45.1901 129.235 45.3806 129.572 45.7176C129.909 46.0546 130.099 46.5109 130.102 46.9875C130.099 47.4641 129.909 47.9204 129.572 48.2574C129.235 48.5944 128.778 48.7849 128.302 48.7875Z" fill="#90CAF9"/>
<path d="M78.8322 39.3244H62.2522C61.7765 39.3244 61.3202 39.1361 60.9829 38.8007C60.6456 38.4653 60.4548 38.01 60.4521 37.5344C60.4521 37.057 60.6418 36.5991 60.9794 36.2616C61.3169 35.924 61.7748 35.7344 62.2522 35.7344H78.8322C79.0681 35.7344 79.3016 35.781 79.5195 35.8716C79.7373 35.9622 79.9351 36.0949 80.1014 36.2622C80.2678 36.4295 80.3994 36.628 80.4888 36.8463C80.5781 37.0646 80.6235 37.2985 80.6221 37.5344C80.6221 38.0091 80.4336 38.4644 80.0979 38.8001C79.7622 39.1358 79.3069 39.3244 78.8322 39.3244Z" fill="#455A64"/>
<path d="M100.182 48.7875H62.2522C61.7756 48.7849 61.3193 48.5944 60.9823 48.2574C60.6453 47.9204 60.4548 47.4641 60.4521 46.9875C60.4548 46.5109 60.6453 46.0546 60.9823 45.7176C61.3193 45.3806 61.7756 45.1901 62.2522 45.1875H100.182C100.66 45.1875 101.117 45.3771 101.455 45.7147C101.793 46.0523 101.982 46.5101 101.982 46.9875C101.982 47.2239 101.936 47.4579 101.845 47.6763C101.755 47.8947 101.622 48.0932 101.455 48.2603C101.288 48.4274 101.089 48.56 100.871 48.6505C100.653 48.7409 100.419 48.7875 100.182 48.7875Z" fill="#263238"/>
<path d="M137.392 58.475H62.1716C61.9405 58.4698 61.7126 58.4191 61.5011 58.3259C61.2895 58.2326 61.0984 58.0985 60.9387 57.9314C60.779 57.7642 60.6538 57.5672 60.5702 57.3516C60.4866 57.1361 60.4463 56.9061 60.4516 56.675C60.4463 56.4439 60.4866 56.2139 60.5702 55.9984C60.6538 55.7828 60.779 55.5858 60.9387 55.4187C61.0984 55.2515 61.2895 55.1175 61.5011 55.0242C61.7126 54.9309 61.9405 54.8802 62.1716 54.875H137.392C137.622 54.8802 137.85 54.9309 138.061 55.0243C138.272 55.1177 138.462 55.252 138.621 55.4193C138.78 55.5865 138.904 55.7836 138.987 55.9991C139.069 56.2146 139.108 56.4443 139.102 56.675C139.112 57.1401 138.939 57.5906 138.618 57.9279C138.298 58.2652 137.857 58.4619 137.392 58.475Z" fill="#E0E0E0"/>
<path d="M99.3922 65.3266H62.2522C61.7756 65.3239 61.3193 65.1334 60.9823 64.7964C60.6453 64.4594 60.4548 64.0031 60.4521 63.5266C60.4548 63.05 60.6453 62.5937 60.9823 62.2567C61.3193 61.9197 61.7756 61.7292 62.2522 61.7266H99.3922C99.6285 61.7266 99.8626 61.7731 100.081 61.8636C100.299 61.954 100.498 62.0866 100.665 62.2538C100.832 62.4209 100.965 62.6193 101.055 62.8377C101.146 63.0561 101.192 63.2902 101.192 63.5266C101.192 63.7629 101.146 63.997 101.055 64.2154C100.965 64.4338 100.832 64.6322 100.665 64.7993C100.498 64.9665 100.299 65.0991 100.081 65.1895C99.8626 65.28 99.6285 65.3266 99.3922 65.3266Z" fill="#E0E0E0"/>
<path d="M27.5721 37.537C27.5721 37.899 27.4648 38.2528 27.2637 38.5537C27.0626 38.8547 26.7768 39.0892 26.4424 39.2277C26.108 39.3662 25.7401 39.4025 25.3851 39.3319C25.0301 39.2613 24.704 39.087 24.4481 38.831C24.1922 38.5751 24.0179 38.249 23.9473 37.894C23.8767 37.5391 23.9129 37.1711 24.0514 36.8367C24.1899 36.5023 24.4245 36.2165 24.7254 36.0154C25.0264 35.8144 25.3802 35.707 25.7421 35.707C25.9824 35.707 26.2204 35.7544 26.4424 35.8463C26.6644 35.9383 26.8662 36.0731 27.0361 36.243C27.2061 36.413 27.3408 36.6147 27.4328 36.8367C27.5248 37.0587 27.5721 37.2967 27.5721 37.537Z" fill="#455A64"/>
<path d="M27.5721 28.5253C27.5721 28.8873 27.4648 29.2411 27.2637 29.542C27.0626 29.843 26.7768 30.0775 26.4424 30.216C26.108 30.3545 25.7401 30.3908 25.3851 30.3202C25.0301 30.2496 24.704 30.0753 24.4481 29.8193C24.1922 29.5634 24.0179 29.2373 23.9473 28.8824C23.8767 28.5274 23.9129 28.1594 24.0514 27.825C24.1899 27.4906 24.4245 27.2048 24.7254 27.0038C25.0264 26.8027 25.3802 26.6953 25.7421 26.6953C25.9828 26.694 26.2214 26.7404 26.444 26.8319C26.6666 26.9234 26.8689 27.0582 27.0391 27.2284C27.2093 27.3986 27.344 27.6008 27.4355 27.8235C27.527 28.0461 27.5734 28.2847 27.5721 28.5253Z" fill="#455A64"/>
<path d="M25.7421 48.7459C26.7528 48.7459 27.5721 47.9266 27.5721 46.9159C27.5721 45.9053 26.7528 45.0859 25.7421 45.0859C24.7314 45.0859 23.9121 45.9053 23.9121 46.9159C23.9121 47.9266 24.7314 48.7459 25.7421 48.7459Z" fill="#455A64"/>
<path d="M25.7421 58.5077C26.7528 58.5077 27.5721 57.6883 27.5721 56.6777C27.5721 55.667 26.7528 54.8477 25.7421 54.8477C24.7314 54.8477 23.9121 55.667 23.9121 56.6777C23.9121 57.6883 24.7314 58.5077 25.7421 58.5077Z" fill="#455A64"/>
<path d="M45.4315 26.3672H35.2315C34.7013 26.3672 34.2715 26.797 34.2715 27.3272V28.8772C34.2715 29.4074 34.7013 29.8372 35.2315 29.8372H45.4315C45.9617 29.8372 46.3915 29.4074 46.3915 28.8772V27.3272C46.3915 26.797 45.9617 26.3672 45.4315 26.3672Z" fill="#455A64"/>
</svg>
