<svg width="2957" height="173" viewBox="0 0 2957 173" fill="none" xmlns="http://www.w3.org/2000/svg">
<path d="M2957 142.465L2886.57 127.197C2816.13 111.93 2675.67 81.3948 2533.98 71.1847C2393.73 61.3562 2252.66 70.8984 2113.02 55.9172C1971.33 40.3634 1829.64 0.286106 1690.01 -0.000147886C1548.93 0.286131 1408.68 40.3634 1266.99 40.6497C1126.53 40.3635 985.666 0.286194 843.977 10.1147C704.135 20.3249 562.651 81.395 423.015 116.987C281.531 152.962 141.689 162.504 69.8179 167.943L-0.000150761 173L70.4342 173C140.868 173 281.326 173 423.015 173C563.267 173 704.341 173 843.977 173C985.666 173 1127.36 173 1266.99 173C1408.07 173 1548.32 173 1690.01 173C1830.47 173 1971.33 173 2113.02 173C2252.86 173 2394.35 173 2533.98 173C2675.47 173 2815.31 173 2887.18 173L2957 173L2957 142.465Z" fill="#4DC9FF" fill-opacity="0.59"/>
</svg>
