<svg width="514" height="23" viewBox="0 0 514 23" fill="none" xmlns="http://www.w3.org/2000/svg">
<path d="M513.753 13.32L501.503 11.8156C489.253 10.3113 464.824 7.30175 440.206 6.48416C415.838 5.70483 391.351 7.01383 367.084 5.67818C342.46 4.28496 317.805 0.249945 293.556 0.497314C269.058 0.809222 244.752 5.40596 220.147 5.7191C195.755 5.9681 171.243 1.93146 146.65 3.27252C122.378 4.65103 97.8836 11.5117 73.6789 15.6241C49.1537 19.7812 24.8811 21.0878 12.4069 21.8169L0.288733 22.5008L12.5201 22.3605C24.7514 22.2201 49.1428 21.9403 73.7481 21.658C98.1038 21.3786 122.602 21.0975 146.851 20.8193C171.456 20.537 196.061 20.2547 220.31 19.9765C244.809 19.6954 269.164 19.416 293.77 19.1337C318.161 18.8538 342.624 18.5732 367.229 18.2909C391.513 18.0123 416.083 17.7304 440.332 17.4522C464.901 17.1703 489.186 16.8917 501.667 16.7485L513.791 16.6094L513.753 13.32Z" fill="#4DC9FF" fill-opacity="0.59"/>
</svg>
