<svg width="83" height="43" viewBox="0 0 83 43" fill="none" xmlns="http://www.w3.org/2000/svg">
<path d="M51.5264 21.1006V22.7002H46.3311V21.1006H51.5264ZM46.9395 17.0469V27H44.8887V17.0469H46.9395ZM52.9893 17.0469V27H50.9453V17.0469H52.9893ZM59.0186 17.0469V27H56.9746V17.0469H59.0186ZM62.0811 17.0469V18.6533H53.96V17.0469H62.0811ZM64.1865 17.0469H65.9229L68.4795 24.3545L71.0361 17.0469H72.7725L69.1768 27H67.7822L64.1865 17.0469ZM63.25 17.0469H64.9795L65.2939 24.1699V27H63.25V17.0469ZM71.9795 17.0469H73.7158V27H71.665V24.1699L71.9795 17.0469ZM81.9121 25.4004V27H76.9014V25.4004H81.9121ZM77.5645 17.0469V27H75.5137V17.0469H77.5645Z" fill="#4DC9FF"/>
<path d="M0 0L3.18099 37.9897L17.4544 43L31.819 37.9897L35 0H0ZM28.0911 12.2761H11.3385L11.7122 17.0176H27.7174L26.4779 31.2614L17.5547 33.8529V33.8817H17.4544L8.45833 31.2614L7.91146 23.9859H12.2591L12.5781 27.6429L17.4544 29.0346L22.349 27.6429L22.8958 21.6728H7.68359L6.51693 7.69777H28.4922L28.0911 12.2761V12.2761Z" fill="#4DC9FF"/>
</svg>
