<svg width="76" height="33" viewBox="0 0 76 33" fill="none" xmlns="http://www.w3.org/2000/svg">
<path d="M8.60156 8.39062C8.73177 8.49479 8.83594 8.625 8.91406 8.78125C9.01823 8.9375 9.09635 9.10677 9.14844 9.28906C9.22656 9.4974 9.27865 9.71875 9.30469 9.95312C9.33073 10.1875 9.34375 10.4219 9.34375 10.6562C9.34375 10.8646 9.33073 11.0729 9.30469 11.2812C9.27865 11.4896 9.23958 11.6849 9.1875 11.8672C8.19792 12.4922 7.29948 13.0781 6.49219 13.625C5.71094 14.1458 5.04688 14.6016 4.5 14.9922C3.84896 15.4609 3.27604 15.8906 2.78125 16.2812C3.22396 16.724 3.77083 17.2057 4.42188 17.7266C4.96875 18.1953 5.63281 18.7552 6.41406 19.4062C7.19531 20.0312 8.09375 20.7474 9.10938 21.5547C9.16146 21.763 9.17448 22.0104 9.14844 22.2969C9.14844 22.5573 9.1224 22.8177 9.07031 23.0781C9.01823 23.3646 8.95312 23.6641 8.875 23.9766C8.82292 24.2109 8.77083 24.4062 8.71875 24.5625C8.66667 24.6927 8.61458 24.8229 8.5625 24.9531C8.53646 25.0573 8.51042 25.0833 8.48438 25.0312C7.20833 24.0417 6.08854 23.1172 5.125 22.2578C4.1875 21.3984 3.40625 20.6562 2.78125 20.0312C2.02604 19.3021 1.38802 18.638 0.867188 18.0391C0.763021 17.9089 0.671875 17.6875 0.59375 17.375C0.515625 17.0365 0.463542 16.6979 0.4375 16.3594C0.411458 15.9948 0.398438 15.6693 0.398438 15.3828C0.424479 15.0703 0.489583 14.875 0.59375 14.7969C0.932292 14.4844 1.3099 14.1589 1.72656 13.8203C2.14323 13.4557 2.5599 13.0911 2.97656 12.7266C3.41927 12.362 3.86198 12.0104 4.30469 11.6719C4.7474 11.3073 5.16406 10.9818 5.55469 10.6953C5.94531 10.3828 6.32292 10.0833 6.6875 9.79688C7 9.53646 7.32552 9.28906 7.66406 9.05469C8.02865 8.79427 8.34115 8.57292 8.60156 8.39062ZM24.7344 20.9297C24.2917 21.2943 24.0443 21.9453 23.9922 22.8828C23.9661 23.7943 24.1224 24.7318 24.4609 25.6953C24.8255 26.6328 25.3724 27.4661 26.1016 28.1953C26.8307 28.9245 27.7422 29.2891 28.8359 29.2891C29.5391 29.2891 30.138 29.1198 30.6328 28.7812C31.1536 28.4427 31.5703 28.026 31.8828 27.5312C32.2214 27.0104 32.4688 26.4375 32.625 25.8125C32.7812 25.1875 32.8594 24.5755 32.8594 23.9766C32.8594 23.1172 32.6901 22.401 32.3516 21.8281C32.0391 21.2552 31.6094 20.7604 31.0625 20.3438C30.5417 19.901 29.9297 19.5365 29.2266 19.25C28.5495 18.9375 27.8594 18.625 27.1562 18.3125C26.5052 18.0521 25.724 17.7266 24.8125 17.3359C23.901 16.9193 23.0286 16.3854 22.1953 15.7344C21.362 15.0573 20.6458 14.237 20.0469 13.2734C19.474 12.2839 19.1875 11.0729 19.1875 9.64062C19.1875 8.70312 19.4349 7.7526 19.9297 6.78906C20.4245 5.82552 21.1276 4.95312 22.0391 4.17188C22.9505 3.36458 24.0443 2.71354 25.3203 2.21875C26.6224 1.72396 28.0807 1.47656 29.6953 1.47656C31.2839 1.47656 32.5729 1.61979 33.5625 1.90625C34.5521 2.19271 35.3203 2.57031 35.8672 3.03906C36.4141 3.48177 36.7786 3.97656 36.9609 4.52344C37.1693 5.04427 37.2734 5.53906 37.2734 6.00781C37.2734 6.47656 37.1302 6.95833 36.8438 7.45312C36.5573 7.92188 36.2188 8.36458 35.8281 8.78125C35.4375 9.17188 35.0339 9.52344 34.6172 9.83594C34.2005 10.1224 33.862 10.3177 33.6016 10.4219C33.7318 10.0833 33.862 9.61458 33.9922 9.01562C34.1224 8.41667 34.0833 7.81771 33.875 7.21875C33.6927 6.61979 33.237 6.09896 32.5078 5.65625C31.8047 5.21354 30.6589 4.99219 29.0703 4.99219C28.1589 4.99219 27.2734 5.13542 26.4141 5.42188C25.5547 5.70833 24.7865 6.08594 24.1094 6.55469C23.4583 6.9974 22.9375 7.50521 22.5469 8.07812C22.1562 8.65104 21.9609 9.23698 21.9609 9.83594C21.9609 10.4089 22.1562 10.9427 22.5469 11.4375C22.9635 11.9062 23.5104 12.362 24.1875 12.8047C24.8906 13.2214 25.6849 13.638 26.5703 14.0547C27.4818 14.4714 28.4323 14.888 29.4219 15.3047C30.3854 15.7214 31.3359 16.1771 32.2734 16.6719C33.2109 17.1406 34.0443 17.6875 34.7734 18.3125C35.5286 18.9375 36.1276 19.6406 36.5703 20.4219C37.013 21.2031 37.2344 22.1016 37.2344 23.1172C37.2344 24.2109 37.026 25.2656 36.6094 26.2812C36.2188 27.2708 35.6458 28.1432 34.8906 28.8984C34.1615 29.6536 33.263 30.2526 32.1953 30.6953C31.1276 31.1641 29.9167 31.3984 28.5625 31.3984C27.3646 31.3984 26.2318 31.2031 25.1641 30.8125C24.0964 30.4219 23.1589 29.9141 22.3516 29.2891C21.5703 28.6641 20.9453 27.974 20.4766 27.2188C20.0078 26.4635 19.7734 25.7214 19.7734 24.9922C19.7734 24.2109 19.9427 23.5469 20.2812 23C20.6458 22.4531 21.0885 22.0234 21.6094 21.7109C22.1302 21.3724 22.6641 21.138 23.2109 21.0078C23.7839 20.8776 24.2917 20.8516 24.7344 20.9297ZM50.3203 23.9766C50.0599 23.1693 49.7995 22.4531 49.5391 21.8281C49.3047 21.2031 49.0964 20.6693 48.9141 20.2266C47.8984 20.5651 46.7917 20.7995 45.5938 20.9297C45.5938 22.5964 45.6328 24.0156 45.7109 25.1875C45.737 25.9167 45.763 26.5417 45.7891 27.0625C45.8411 27.5573 45.8802 27.987 45.9062 28.3516C45.9583 28.7161 46.0104 29.0417 46.0625 29.3281C46.1146 29.6406 46.1927 29.9401 46.2969 30.2266C45.776 30.6172 45.2682 30.9036 44.7734 31.0859C44.3047 31.2682 43.888 31.3984 43.5234 31.4766C43.0807 31.5807 42.6901 31.6068 42.3516 31.5547C42.2214 31.1901 42.1042 30.7995 42 30.3828C41.8958 29.9922 41.8177 29.4453 41.7656 28.7422C41.7396 28.0651 41.7266 27.1927 41.7266 26.125C41.7266 25.0573 41.7656 23.6901 41.8438 22.0234C41.8698 21.8411 41.8828 21.6589 41.8828 21.4766C41.8828 21.2943 41.8958 21.112 41.9219 20.9297C41.6875 20.9036 41.4401 20.8776 41.1797 20.8516C40.9453 20.8255 40.7109 20.7995 40.4766 20.7734C40.3203 20.3568 40.2161 19.9922 40.1641 19.6797C40.112 19.3411 40.0859 19.0677 40.0859 18.8594C40.0859 18.599 40.112 18.3906 40.1641 18.2344C40.5807 18.3125 40.9974 18.3516 41.4141 18.3516H42C42.0521 17.2578 42.1042 16.151 42.1562 15.0312C42.2083 13.8854 42.2474 12.7786 42.2734 11.7109C42.3255 10.6172 42.3646 9.58854 42.3906 8.625C42.4167 7.63542 42.4427 6.73698 42.4688 5.92969C41.6875 6.45052 41.0104 7.1276 40.4375 7.96094C39.8646 8.79427 39.474 9.75781 39.2656 10.8516C38.9271 10.7995 38.6406 10.6432 38.4062 10.3828C38.1719 10.0964 37.9766 9.8099 37.8203 9.52344C37.638 9.1849 37.4818 8.80729 37.3516 8.39062C37.2214 7.89583 37.2214 7.40104 37.3516 6.90625C37.4818 6.38542 37.6771 5.90365 37.9375 5.46094C38.1979 4.99219 38.4974 4.58854 38.8359 4.25C39.1745 3.88542 39.5 3.59896 39.8125 3.39062C40.3594 3.05208 40.9193 2.7526 41.4922 2.49219C42.0911 2.20573 42.7552 1.97135 43.4844 1.78906C43.7708 1.5026 44.0833 1.24219 44.4219 1.00781C44.7865 0.773438 45.125 0.630208 45.4375 0.578125C45.8802 0.473958 46.1276 0.747396 46.1797 1.39844C46.4141 1.3724 46.6615 1.35938 46.9219 1.35938C47.1823 1.33333 47.4557 1.32031 47.7422 1.32031C48.7318 1.32031 49.7604 1.47656 50.8281 1.78906C51.8958 2.10156 52.8724 2.60938 53.7578 3.3125C54.6693 3.98958 55.4115 4.88802 55.9844 6.00781C56.5573 7.10156 56.8438 8.44271 56.8438 10.0312C56.8438 11.8281 56.4141 13.4818 55.5547 14.9922C54.7214 16.5026 53.5234 17.7526 51.9609 18.7422C52.1432 19.2109 52.3776 19.7969 52.6641 20.5C52.9505 21.2031 53.237 21.9974 53.5234 22.8828C53.9401 23.9766 54.3828 25.0052 54.8516 25.9688C55.3464 26.9062 55.8542 27.7266 56.375 28.4297C56.8958 29.1328 57.4427 29.6927 58.0156 30.1094C58.5885 30.5521 59.1615 30.8125 59.7344 30.8906C59.3958 31.4115 59.0052 31.776 58.5625 31.9844C58.1198 32.1927 57.6771 32.3229 57.2344 32.375C56.7396 32.4531 56.2188 32.4531 55.6719 32.375C54.9167 32.2188 54.2656 31.8542 53.7188 31.2812C53.1719 30.7083 52.6901 30.0182 52.2734 29.2109C51.8828 28.4036 51.5182 27.5443 51.1797 26.6328C50.8672 25.6953 50.5807 24.8099 50.3203 23.9766ZM45.7891 7.33594C45.7891 7.90885 45.776 8.59896 45.75 9.40625C45.724 10.2135 45.6979 11.0859 45.6719 12.0234C45.6719 12.9609 45.6589 13.9505 45.6328 14.9922C45.6068 16.0078 45.5938 17.0234 45.5938 18.0391C46.2969 17.9349 47.0651 17.7656 47.8984 17.5312C48.7578 17.2969 49.5521 16.9062 50.2812 16.3594C51.0104 15.8125 51.6224 15.0833 52.1172 14.1719C52.612 13.2604 52.8594 12.0885 52.8594 10.6562C52.8594 9.5625 52.6641 8.63802 52.2734 7.88281C51.9089 7.10156 51.4271 6.47656 50.8281 6.00781C50.2292 5.51302 49.5651 5.16146 48.8359 4.95312C48.1328 4.71875 47.4297 4.60156 46.7266 4.60156C46.5964 4.60156 46.4661 4.60156 46.3359 4.60156C46.2057 4.60156 46.0625 4.61458 45.9062 4.64062C45.8281 5.47396 45.7891 6.3724 45.7891 7.33594ZM67.1172 8.39062C67.3516 8.57292 67.638 8.79427 67.9766 9.05469C68.3411 9.28906 68.6797 9.53646 68.9922 9.79688C69.3568 10.0833 69.7344 10.3828 70.125 10.6953C70.9062 11.2943 71.7526 11.9844 72.6641 12.7656C73.6016 13.5208 74.4089 14.1979 75.0859 14.7969C75.1901 14.875 75.2552 15.0703 75.2812 15.3828C75.3073 15.6693 75.2943 15.9948 75.2422 16.3594C75.2161 16.6979 75.1641 17.0365 75.0859 17.375C75.0078 17.6875 74.9167 17.9089 74.8125 18.0391C74.2917 18.638 73.6667 19.3021 72.9375 20.0312C72.3125 20.6562 71.5182 21.3984 70.5547 22.2578C69.6172 23.1172 68.5104 24.0417 67.2344 25.0312C67.2083 25.0833 67.1693 25.0573 67.1172 24.9531C67.0911 24.8229 67.0521 24.6927 67 24.5625C66.9219 24.4062 66.8568 24.2109 66.8047 23.9766C66.7266 23.6641 66.6615 23.3646 66.6094 23.0781C66.5573 22.8177 66.5182 22.5573 66.4922 22.2969C66.4922 22.0104 66.5182 21.763 66.5703 21.5547C67.5859 20.7474 68.4844 20.0312 69.2656 19.4062C70.0469 18.7552 70.7109 18.1953 71.2578 17.7266C71.8828 17.2057 72.4297 16.724 72.8984 16.2812C72.4036 15.8906 71.8307 15.4609 71.1797 14.9922C70.6328 14.6016 69.9557 14.1458 69.1484 13.625C68.3672 13.0781 67.4818 12.4922 66.4922 11.8672C66.4141 11.6849 66.362 11.4896 66.3359 11.2812C66.3359 11.0729 66.3359 10.8646 66.3359 10.6562C66.3359 10.4219 66.349 10.1875 66.375 9.95312C66.401 9.71875 66.4531 9.4974 66.5312 9.28906C66.5833 9.10677 66.6484 8.9375 66.7266 8.78125C66.8307 8.625 66.9609 8.49479 67.1172 8.39062Z" fill="black"/>
</svg>
