<svg width="1440" height="314" viewBox="0 0 1440 314" fill="none" xmlns="http://www.w3.org/2000/svg">
<path d="M-1085.7 113.088L-1011.25 142.125C-936.807 171.161 -788.324 229.283 -644.638 237.371C-502.491 244.693 -365.267 204.373 -222.206 224.417C-76.9369 245.62 75.5953 327.016 214.304 310.991C354.27 293.389 481.635 178.219 622.213 160.543C761.737 144.42 913.454 225.914 1051.21 184.817C1187.01 143.005 1309.38 -23.8395 1437.46 -127.928C1567.27 -233.174 1703.27 -273.347 1773.01 -295.307L1840.82 -316.084L1770.9 -307.646C1700.97 -299.209 1561.54 -282.383 1420.87 -265.41C1281.64 -248.609 1141.59 -231.709 1002.96 -214.982C862.3 -198.009 721.638 -181.036 583.014 -164.308C442.964 -147.409 303.728 -130.608 163.066 -113.635C23.6265 -96.809 -116.22 -79.9342 -256.883 -62.9609C-395.71 -46.209 -536.169 -29.2604 -674.793 -12.5331C-815.251 4.41552 -954.079 21.1674 -1025.43 29.777L-1094.74 38.1406L-1085.7 113.088Z" fill="#4DC9FF" fill-opacity="0.59"/>
</svg>
