<svg width="2560" height="199" viewBox="0 0 1440 199" fill="none" xmlns="http://www.w3.org/2000/svg">
<path d="M-559.23 -21.0802L-494.452 7.8348C-429.675 36.7498 -300.478 94.6146 -174.712 105.949C-50.285 116.534 70.5638 82.8022 195.597 105.209C322.546 128.749 454.933 208.306 576.708 197.146C699.609 184.557 812.972 81.1474 936.41 68.5062C1058.9 57.277 1190.57 136.903 1311.89 102.466C1431.52 67.3129 1541.3 -84.1528 1655.12 -177.266C1770.47 -271.408 1890.25 -305.035 1951.68 -323.54L2011.42 -340.998L1950.03 -335.039C1888.63 -329.08 1766.21 -317.197 1642.71 -305.21C1520.46 -293.344 1397.49 -281.409 1275.78 -269.596C1152.28 -257.608 1028.78 -245.621 907.067 -233.807C784.102 -221.872 661.854 -210.006 538.353 -198.019C415.925 -186.136 293.14 -174.218 169.638 -162.231C47.748 -150.4 -75.5744 -138.43 -197.286 -126.616C-320.608 -114.646 -442.499 -102.815 -505.144 -96.7349L-566 -90.8281L-559.23 -21.0802Z" fill="#4DC9FF" fill-opacity="0.59"/>
</svg>
