<svg width="98" height="32" viewBox="0 0 98 32" fill="none" xmlns="http://www.w3.org/2000/svg">
<path d="M74.7646 17.4521H72.2285V15.8525H74.7646C75.1566 15.8525 75.4756 15.7887 75.7217 15.6611C75.9678 15.529 76.1478 15.3467 76.2617 15.1143C76.3757 14.8818 76.4326 14.6198 76.4326 14.3281C76.4326 14.0319 76.3757 13.7562 76.2617 13.501C76.1478 13.2458 75.9678 13.0407 75.7217 12.8857C75.4756 12.7308 75.1566 12.6533 74.7646 12.6533H72.9395V21H70.8887V11.0469H74.7646C75.5439 11.0469 76.2116 11.1882 76.7676 11.4707C77.3281 11.7487 77.7565 12.1338 78.0527 12.626C78.349 13.1182 78.4971 13.681 78.4971 14.3145C78.4971 14.957 78.349 15.513 78.0527 15.9824C77.7565 16.4518 77.3281 16.8141 76.7676 17.0693C76.2116 17.3245 75.5439 17.4521 74.7646 17.4521ZM86.5498 15.1006V16.7002H81.3545V15.1006H86.5498ZM81.9629 11.0469V21H79.9121V11.0469H81.9629ZM88.0127 11.0469V21H85.9688V11.0469H88.0127ZM93.6729 17.4521H91.1367V15.8525H93.6729C94.0648 15.8525 94.3838 15.7887 94.6299 15.6611C94.876 15.529 95.056 15.3467 95.1699 15.1143C95.2839 14.8818 95.3408 14.6198 95.3408 14.3281C95.3408 14.0319 95.2839 13.7562 95.1699 13.501C95.056 13.2458 94.876 13.0407 94.6299 12.8857C94.3838 12.7308 94.0648 12.6533 93.6729 12.6533H91.8477V21H89.7969V11.0469H93.6729C94.4521 11.0469 95.1198 11.1882 95.6758 11.4707C96.2363 11.7487 96.6647 12.1338 96.9609 12.626C97.2572 13.1182 97.4053 13.681 97.4053 14.3145C97.4053 14.957 97.2572 15.513 96.9609 15.9824C96.6647 16.4518 96.2363 16.8141 95.6758 17.0693C95.1198 17.3245 94.4521 17.4521 93.6729 17.4521Z" fill="#4CC9FF"/>
<path d="M30 1.55278C46.0687 1.55278 58.425 8.22605 58.425 15.5556C58.425 22.8851 46.0594 29.5583 30 29.5583C13.9313 29.5583 1.575 22.8851 1.575 15.5556C1.575 8.22605 13.9406 1.55278 30 1.55278ZM30 0C13.4344 0 0 6.95979 0 15.5556C0 24.1513 13.4344 31.1111 30 31.1111C46.5656 31.1111 60 24.1513 60 15.5556C60 6.95979 46.5656 0 30 0ZM20.4562 14.3078C19.7156 18.0511 17.1 17.6629 13.8844 17.6629L15.1688 11.1375C18.7313 11.1375 21.15 10.7586 20.4562 14.3078ZM9.13125 24.2715H12.5719L13.3875 20.1307C17.2406 20.1307 19.6313 20.408 21.8438 18.3654C24.2906 16.1471 24.9281 12.2004 23.1844 10.2225C22.275 9.1873 20.8125 8.67895 18.825 8.67895H12.1969L9.13125 24.2715ZM26.5406 4.52895H29.9625L29.1469 8.6697C32.1 8.6697 34.8375 8.45712 36.1594 9.65868C37.5469 10.9157 36.8812 12.5239 35.3812 20.1122H31.9125C33.3563 12.7735 33.6281 12.1635 33.1031 11.6089C32.5969 11.0728 31.4438 11.1837 28.6594 11.1837L26.8969 20.1122H23.475L26.5406 4.52895ZM47.3438 14.3078C46.5938 18.1066 43.9031 17.6629 40.7719 17.6629L42.0563 11.1375C45.6375 11.1375 48.0375 10.7586 47.3438 14.3078ZM36.0188 24.2715H39.4688L40.2844 20.1307C44.3344 20.1307 46.575 20.3618 48.7406 18.3654C51.1875 16.1471 51.825 12.2004 50.0813 10.2225C49.1719 9.1873 47.7094 8.67895 45.7219 8.67895H39.0938L36.0188 24.2715Z" fill="#4CC9FF"/>
</svg>
