<svg width="105" height="41" viewBox="0 0 105 41" fill="none" xmlns="http://www.w3.org/2000/svg">
<path d="M59.8887 15.0469H63.6006C64.3617 15.0469 65.0156 15.1608 65.5625 15.3887C66.1139 15.6165 66.5378 15.9538 66.834 16.4004C67.1302 16.847 67.2783 17.3962 67.2783 18.0479C67.2783 18.5811 67.1872 19.0391 67.0049 19.4219C66.8271 19.8001 66.5742 20.1169 66.2461 20.3721C65.9225 20.6227 65.542 20.8232 65.1045 20.9736L64.4551 21.3154H61.2285L61.2148 19.7158H63.6143C63.9743 19.7158 64.2728 19.652 64.5098 19.5244C64.7467 19.3968 64.9245 19.2191 65.043 18.9912C65.166 18.7633 65.2275 18.499 65.2275 18.1982C65.2275 17.8792 65.1683 17.6035 65.0498 17.3711C64.9313 17.1387 64.7513 16.9609 64.5098 16.8379C64.2682 16.7148 63.9652 16.6533 63.6006 16.6533H61.9395V25H59.8887V15.0469ZM65.4531 25L63.1836 20.5635L65.3506 20.5498L67.6475 24.9043V25H65.4531ZM75.5361 23.4004V25H70.2383V23.4004H75.5361ZM70.9082 15.0469V25H68.8574V15.0469H70.9082ZM74.8457 19.1006V20.6592H70.2383V19.1006H74.8457ZM75.5293 15.0469V16.6533H70.2383V15.0469H75.5293ZM80.7793 16.749L78.0723 25H75.8916L79.5898 15.0469H80.9775L80.7793 16.749ZM83.0283 25L80.3145 16.749L80.0957 15.0469H81.4971L85.2158 25H83.0283ZM82.9053 21.2949V22.9014H77.6484V21.2949H82.9053ZM91.7852 21.6982H93.8291C93.7881 22.3682 93.6035 22.9629 93.2754 23.4824C92.9518 24.002 92.4984 24.4076 91.915 24.6992C91.3363 24.9909 90.639 25.1367 89.8232 25.1367C89.1852 25.1367 88.6133 25.0273 88.1074 24.8086C87.6016 24.5853 87.1686 24.2663 86.8086 23.8516C86.4531 23.4368 86.182 22.9355 85.9951 22.3477C85.8083 21.7598 85.7148 21.1012 85.7148 20.3721V19.6816C85.7148 18.9525 85.8105 18.2939 86.002 17.7061C86.1979 17.1136 86.4759 16.61 86.8359 16.1953C87.2005 15.7806 87.6357 15.4616 88.1416 15.2383C88.6475 15.015 89.2126 14.9033 89.8369 14.9033C90.6663 14.9033 91.3659 15.0537 91.9355 15.3545C92.5098 15.6553 92.9541 16.07 93.2686 16.5986C93.5876 17.1273 93.779 17.7288 93.8428 18.4033H91.792C91.7692 18.0023 91.6895 17.6628 91.5527 17.3848C91.416 17.1022 91.2087 16.8903 90.9307 16.749C90.6572 16.6032 90.2926 16.5303 89.8369 16.5303C89.4951 16.5303 89.1966 16.5941 88.9414 16.7217C88.6862 16.8493 88.472 17.043 88.2988 17.3027C88.1257 17.5625 87.9958 17.8906 87.9092 18.2871C87.8271 18.679 87.7861 19.1393 87.7861 19.668V20.3721C87.7861 20.887 87.8249 21.3405 87.9023 21.7324C87.9798 22.1198 88.0983 22.4479 88.2578 22.7168C88.4219 22.9811 88.6315 23.1816 88.8867 23.3184C89.1465 23.4505 89.4587 23.5166 89.8232 23.5166C90.2516 23.5166 90.6048 23.4482 90.8828 23.3115C91.1608 23.1748 91.3727 22.972 91.5186 22.7031C91.6689 22.4342 91.7578 22.0993 91.7852 21.6982ZM99.4209 15.0469V25H97.377V15.0469H99.4209ZM102.483 15.0469V16.6533H94.3623V15.0469H102.483Z" fill="#4CC9FF"/>
<path d="M39.2063 13.2865C38.7 13.1218 38.1937 12.9662 37.6875 12.8198C37.7719 12.4812 37.8469 12.1426 37.9219 11.804C39.075 6.34986 38.3156 1.96638 35.7562 0.52048C33.2906 -0.861366 29.2687 0.575387 25.2 4.03458C24.7969 4.37318 24.4031 4.73008 24.0281 5.08698C23.775 4.84904 23.5125 4.61111 23.25 4.38233C18.9844 0.685203 14.7094 -0.870517 12.15 0.584539C9.69375 1.97554 8.9625 6.10277 9.99375 11.2641C10.0969 11.7766 10.2094 12.2799 10.3406 12.7924C9.74063 12.9571 9.15 13.1401 8.59687 13.3323C3.59062 15.0253 0 17.6975 0 20.4612C0 23.3164 3.825 26.1807 9.02813 27.9195C9.45 28.0567 9.87187 28.194 10.3031 28.313C10.1625 28.862 10.0406 29.402 9.92813 29.9602C8.94375 35.0392 9.7125 39.0657 12.1688 40.4476C14.7 41.8752 18.9562 40.411 23.1 36.8694C23.4281 36.5857 23.7562 36.2929 24.0844 35.9818C24.4969 36.3753 24.9281 36.7505 25.3594 37.1165C29.3719 40.4842 33.3375 41.8477 35.7844 40.4659C38.3156 39.0383 39.1406 34.7097 38.0719 29.4386C37.9875 29.0359 37.8937 28.6241 37.7906 28.2032C38.0906 28.1208 38.3812 28.0293 38.6719 27.9378C44.0812 26.1899 48 23.3621 48 20.4612C48 17.6883 44.3063 14.9978 39.2063 13.2865ZM26.5219 5.51709C30.0094 2.55207 33.2625 1.38985 34.7438 2.22262C36.3281 3.1103 36.9375 6.6976 35.9437 11.4105C35.8781 11.7217 35.8125 12.0237 35.7281 12.3257C33.6469 11.8681 31.5375 11.5386 29.4187 11.3556C28.2 9.65347 26.8688 8.02454 25.425 6.49628C25.7906 6.15768 26.1469 5.83738 26.5219 5.51709ZM15.675 25.2107C16.1531 26.0068 16.6406 26.803 17.1562 27.5809C15.6938 27.4253 14.2406 27.1965 12.8063 26.8945C13.2188 25.5767 13.7344 24.2132 14.3344 22.8222C14.7656 23.6275 15.2062 24.4237 15.675 25.2107ZM12.8344 14.2017C14.1844 13.9088 15.6187 13.6709 17.1094 13.4879C16.6125 14.2474 16.125 15.0253 15.6656 15.8123C15.2063 16.5902 14.7562 17.3863 14.3344 18.1916C13.7437 16.8281 13.2469 15.492 12.8344 14.2017ZM15.4031 20.5069C16.0219 19.244 16.6969 18.0086 17.4094 16.7915C18.1219 15.5744 18.8906 14.3938 19.6969 13.2316C21.1031 13.131 22.5375 13.0761 24 13.0761C25.4625 13.0761 26.9062 13.131 28.3031 13.2316C29.1 14.3847 29.8594 15.5652 30.5813 16.7732C31.3031 17.9812 31.9781 19.2166 32.6156 20.4703C31.9875 21.7332 31.3125 22.9778 30.5906 24.204C29.8781 25.4212 29.1188 26.6017 28.3219 27.773C26.925 27.8737 25.4719 27.9195 24 27.9195C22.5281 27.9195 21.1031 27.8737 19.725 27.7913C18.9094 26.6291 18.1406 25.4395 17.4188 24.2223C16.6969 23.0052 16.0312 21.7698 15.4031 20.5069ZM32.3344 25.1924C32.8125 24.3871 33.2625 23.5726 33.7031 22.749C34.3031 24.0759 34.8281 25.4212 35.2875 26.803C33.8344 27.1233 32.3625 27.3704 30.8812 27.5351C31.3875 26.7664 31.8656 25.9794 32.3344 25.1924ZM33.6844 18.1916C33.2437 17.3863 32.7937 16.581 32.325 15.794C31.8656 15.0161 31.3875 14.2474 30.8906 13.4879C32.4 13.6709 33.8438 13.918 35.1937 14.22C34.7625 15.5744 34.2562 16.8921 33.6844 18.1916ZM24.0188 7.89643C25.0031 8.93967 25.9312 10.0378 26.7937 11.1726C24.9375 11.0902 23.0719 11.0902 21.2156 11.1726C22.1344 9.99207 23.0813 8.89392 24.0188 7.89643ZM13.1437 2.28668C14.7188 1.38985 18.2156 2.67103 21.9 5.85569C22.1344 6.05701 22.3687 6.27665 22.6125 6.49628C21.1594 8.02454 19.8188 9.65347 18.5906 11.3556C16.4719 11.5386 14.3719 11.8589 12.2906 12.3073C12.1688 11.8406 12.0656 11.3648 11.9625 10.8889C11.0813 6.45967 11.6625 3.11945 13.1437 2.28668ZM10.8469 26.4095C10.4531 26.2997 10.0688 26.1807 9.68438 26.0526C7.6875 25.4395 5.41875 24.4694 3.77812 23.1974C2.83125 22.5568 2.19375 21.5685 2.01562 20.4612C2.01562 18.7865 4.97812 16.6451 9.25312 15.19C9.7875 15.007 10.3313 14.8423 10.875 14.6867C11.5125 16.6725 12.2812 18.6217 13.1719 20.5069C12.2719 22.4195 11.4937 24.3962 10.8469 26.4095ZM21.7781 35.3778C20.2313 36.7596 18.4406 37.8578 16.4906 38.6082C15.45 39.0932 14.25 39.139 13.1813 38.7271C11.6906 37.8852 11.0719 34.6548 11.9156 30.308C12.0188 29.7955 12.1313 29.283 12.2625 28.7797C14.3625 29.2189 16.4812 29.5209 18.6281 29.6765C19.8656 31.3878 21.225 33.0259 22.6781 34.5633C22.3781 34.847 22.0781 35.1215 21.7781 35.3778ZM24.075 33.154C23.1187 32.1474 22.1625 31.0309 21.2344 29.8321C22.1344 29.8687 23.0625 29.887 24 29.887C24.9656 29.887 25.9125 29.8687 26.85 29.8229C25.9875 30.9851 25.0594 32.0925 24.075 33.154ZM36.3281 35.8994C36.2438 37.0159 35.6813 38.0591 34.7812 38.7637C33.2906 39.6057 30.1125 38.5075 26.6813 35.634C26.2875 35.3046 25.8937 34.9477 25.4906 34.5816C26.925 33.035 28.2469 31.397 29.4469 29.6765C31.5938 29.5026 33.7312 29.1823 35.8406 28.7156C35.9344 29.0908 36.0187 29.466 36.0938 29.8321C36.5531 31.8088 36.6281 33.8678 36.3281 35.8994ZM38.0344 26.0617C37.7719 26.1441 37.5094 26.2265 37.2375 26.2997C36.5813 24.3047 35.775 22.3555 34.8469 20.4612C35.7469 18.5943 36.5063 16.6725 37.1438 14.705C37.6313 14.8423 38.1 14.9887 38.55 15.1351C42.9188 16.5993 45.9844 18.7773 45.9844 20.4429C45.9844 22.2365 42.7125 24.5518 38.0344 26.0617ZM24 24.6891C26.3719 24.6891 28.2937 22.813 28.2937 20.4978C28.2937 18.1825 26.3719 16.3065 24 16.3065C21.6281 16.3065 19.7062 18.1825 19.7062 20.4978C19.7062 22.813 21.6281 24.6891 24 24.6891Z" fill="#4CC9FF"/>
</svg>
