<svg width="52" height="52" viewBox="0 0 52 52" fill="none" xmlns="http://www.w3.org/2000/svg">
<path d="M14.8489 7.58815C16.4921 6.60155 18.2606 5.8404 20.1067 5.32518L21.1852 0.154078L29.9096 0L31.1615 5.12297C33.0125 5.57925 34.7939 6.28206 36.4578 7.21258L40.8681 4.32369L47.1467 10.3807L44.4119 14.8874C45.3974 16.5175 46.1586 18.2731 46.6748 20.1067L51.8459 21.1852L52 29.9096L46.877 31.1615C46.4208 33.0125 45.7179 34.7939 44.7874 36.4578L47.6763 40.8682L41.6193 47.1467L37.1126 44.4118C35.4809 45.3966 33.7258 46.1608 31.8933 46.6845L30.8148 51.8459L22.0904 52L20.8385 46.877C18.9875 46.4207 17.2061 45.7179 15.5422 44.7874L11.1319 47.6763L4.81482 41.6193L7.58815 37.1126C6.60164 35.4818 5.83735 33.7265 5.31555 31.8933L0.15407 30.8148L0 22.0904L5.12296 20.8385C5.57925 18.9875 6.28207 17.2062 7.21259 15.5422L4.3237 11.1318L10.3904 4.85334L14.897 7.58815H14.8489ZM19.5 19.2111C18.2148 20.5431 17.3534 22.2262 17.0247 24.0476C16.6959 25.8691 16.9145 27.7471 17.6529 29.4443C18.3914 31.1416 19.6164 32.5817 21.1732 33.5829C22.7299 34.584 24.5486 35.1011 26.3992 35.0688C28.2498 35.0365 30.0493 34.4562 31.5702 33.4014C33.0911 32.3466 34.2651 30.8645 34.9438 29.1426C35.6225 27.4206 35.7755 25.5361 35.3834 23.7272C34.9912 21.9183 34.0716 20.2663 32.7407 18.98C30.9536 17.2562 28.5552 16.3123 26.0725 16.3556C23.5899 16.399 21.2259 17.426 19.5 19.2111V19.2111Z" fill="#EBEBEB"/>
</svg>
