<svg width="85" height="78" viewBox="0 0 85 78" fill="none" xmlns="http://www.w3.org/2000/svg">
<path d="M27.8489 33.5882C29.4921 32.6015 31.2606 31.8404 33.1067 31.3252L34.1852 26.1541L42.9096 26L44.1615 31.123C46.0125 31.5793 47.7939 32.2821 49.4578 33.2126L53.8681 30.3237L60.1467 36.3807L57.4119 40.8874C58.3974 42.5175 59.1586 44.2731 59.6748 46.1067L64.8459 47.1852L65 55.9096L59.877 57.1615C59.4208 59.0125 58.7179 60.7939 57.7874 62.4578L60.6763 66.8682L54.6193 73.1467L50.1126 70.4118C48.4809 71.3966 46.7258 72.1608 44.8933 72.6845L43.8148 77.8459L35.0904 78L33.8385 72.877C31.9875 72.4207 30.2061 71.7179 28.5422 70.7874L24.1319 73.6763L17.8148 67.6193L20.5881 63.1126C19.6016 61.4818 18.8374 59.7265 18.3156 57.8933L13.1541 56.8148L13 48.0904L18.123 46.8385C18.5792 44.9875 19.2821 43.2062 20.2126 41.5422L17.3237 37.1318L23.3904 30.8533L27.897 33.5882H27.8489ZM32.5 45.2111C31.2148 46.5431 30.3534 48.2262 30.0247 50.0476C29.6959 51.8691 29.9145 53.7471 30.6529 55.4443C31.3914 57.1416 32.6164 58.5817 34.1732 59.5829C35.7299 60.584 37.5486 61.1011 39.3992 61.0688C41.2498 61.0365 43.0493 60.4562 44.5702 59.4014C46.0911 58.3466 47.2651 56.8645 47.9438 55.1426C48.6225 53.4206 48.7755 51.5361 48.3834 49.7272C47.9912 47.9183 47.0716 46.2663 45.7407 44.98C43.9536 43.2562 41.5552 42.3123 39.0725 42.3556C36.5899 42.399 34.2259 43.426 32.5 45.2111V45.2111Z" fill="#EBEBEB"/>
<path d="M65.71 3.94C66.5632 3.42773 67.4814 3.03251 68.44 2.765L69 0.0800018L73.53 0L74.18 2.66C75.1411 2.89692 76.066 3.26184 76.93 3.745L79.22 2.245L82.48 5.39L81.06 7.73C81.5717 8.5764 81.9669 9.48795 82.235 10.44L84.92 11L85 15.53L82.34 16.18C82.1031 17.1411 81.7382 18.0661 81.255 18.93L82.755 21.22L79.61 24.48L77.27 23.06C76.4228 23.5713 75.5115 23.9681 74.56 24.24L74 26.92L69.47 27L68.82 24.34C67.8589 24.1031 66.934 23.7382 66.07 23.255L63.78 24.755L60.5 21.61L61.94 19.27C61.4278 18.4232 61.0309 17.5118 60.76 16.56L58.08 16L58 11.47L60.66 10.82C60.8969 9.8589 61.2618 8.93396 61.745 8.07001L60.245 5.78L63.395 2.52L65.735 3.94H65.71ZM68.125 9.97501C67.4577 10.6666 67.0104 11.5405 66.8397 12.4863C66.669 13.432 66.7825 14.4072 67.166 15.2884C67.5494 16.1697 68.1854 16.9174 68.9938 17.4373C69.8021 17.9571 70.7464 18.2256 71.7073 18.2088C72.6682 18.192 73.6025 17.8907 74.3922 17.343C75.1819 16.7953 75.7915 16.0258 76.1439 15.1317C76.4963 14.2376 76.5757 13.2591 76.3721 12.3199C76.1685 11.3807 75.691 10.5229 75 9.855C74.072 8.95994 72.8267 8.46984 71.5377 8.49234C70.2486 8.51484 69.0212 9.04811 68.125 9.97501V9.97501Z" fill="#EBEBEB"/>
<path d="M7.71 10.94C8.56321 10.4277 9.48144 10.0325 10.44 9.765L11 7.08L15.53 7L16.18 9.66C17.1411 9.89692 18.066 10.2618 18.93 10.745L21.22 9.245L24.48 12.39L23.06 14.73C23.5717 15.5764 23.9669 16.488 24.235 17.44L26.92 18L27 22.53L24.34 23.18C24.1031 24.1411 23.7382 25.0661 23.255 25.93L24.755 28.22L21.61 31.48L19.27 30.06C18.4228 30.5713 17.5115 30.9681 16.56 31.24L16 33.92L11.47 34L10.82 31.34C9.85889 31.1031 8.93396 30.7382 8.07 30.255L5.78 31.755L2.5 28.61L3.94 26.27C3.42777 25.4232 3.03093 24.5118 2.76 23.56L0.079998 23L0 18.47L2.66 17.82C2.89692 16.8589 3.26184 15.934 3.745 15.07L2.245 12.78L5.395 9.52L7.735 10.94H7.71ZM10.125 16.975C9.45771 17.6666 9.01043 18.5405 8.83973 19.4863C8.66903 20.432 8.78255 21.4072 9.16595 22.2884C9.54936 23.1697 10.1854 23.9174 10.9938 24.4373C11.8021 24.9571 12.7464 25.2256 13.7073 25.2088C14.6682 25.192 15.6025 24.8907 16.3922 24.343C17.1819 23.7953 17.7915 23.0258 18.1439 22.1317C18.4963 21.2376 18.5757 20.2591 18.3721 19.3199C18.1685 18.3807 17.691 17.5229 17 16.855C16.072 15.9599 14.8267 15.4698 13.5377 15.4923C12.2486 15.5148 11.0212 16.0481 10.125 16.975V16.975Z" fill="#EBEBEB"/>
</svg>
