<svg width="30" height="28" viewBox="0 0 30 28" fill="none" xmlns="http://www.w3.org/2000/svg">
<path d="M26.7857 0H3.21429C1.43973 0 0 1.3396 0 2.99074V24.9228C0 26.5739 1.43973 27.9135 3.21429 27.9135H26.7857C28.5603 27.9135 30 26.5739 30 24.9228V2.99074C30 1.3396 28.5603 0 26.7857 0ZM18.5692 23.9072C18.0067 24.0007 17.7991 23.6767 17.7991 23.4087C17.7991 23.0723 17.8125 21.3526 17.8125 19.9632C17.8125 18.9912 17.4643 18.3743 17.0558 18.0503C19.5335 17.7949 22.1451 17.4771 22.1451 13.4957C22.1451 12.3617 21.7098 11.7947 21 11.0657C21.1138 10.7978 21.4955 9.69497 20.8862 8.26191C19.9554 7.99399 17.8259 9.3772 17.8259 9.3772C16.942 9.14667 15.9844 9.02828 15.0402 9.02828C14.096 9.02828 13.1384 9.14667 12.2545 9.3772C12.2545 9.3772 10.125 7.99399 9.1942 8.26191C8.58482 9.68874 8.95982 10.7916 9.08036 11.0657C8.37054 11.7947 8.03571 12.3617 8.03571 13.4957C8.03571 17.4584 10.5335 17.7949 13.0112 18.0503C12.6897 18.3183 12.4018 18.7793 12.3013 19.4398C11.6652 19.7077 10.0379 20.1688 9.06696 18.5737C8.45759 17.5893 7.35938 17.5083 7.35938 17.5083C6.27455 17.4958 7.28571 18.1438 7.28571 18.1438C8.00893 18.4553 8.51786 19.6516 8.51786 19.6516C9.16741 21.5021 12.2746 20.8791 12.2746 20.8791C12.2746 21.7451 12.2879 23.1533 12.2879 23.4087C12.2879 23.6767 12.0871 24.0007 11.5179 23.9072C7.09821 22.5302 4.00446 18.6173 4.00446 14.044C4.00446 8.32421 8.70536 3.98142 14.8527 3.98142C21 3.98142 25.9821 8.32421 25.9821 14.044C25.9888 18.6173 22.9888 22.5364 18.5692 23.9072ZM12 20.1002C11.8728 20.1252 11.7522 20.0753 11.7388 19.9943C11.7254 19.9009 11.8125 19.8199 11.9397 19.7949C12.067 19.7825 12.1875 19.8323 12.2009 19.9133C12.221 19.9943 12.1339 20.0753 12 20.1002ZM11.3638 20.0442C11.3638 20.1252 11.2634 20.1937 11.1295 20.1937C10.9821 20.2062 10.8817 20.1376 10.8817 20.0442C10.8817 19.9632 10.9821 19.8946 11.1161 19.8946C11.2433 19.8822 11.3638 19.9507 11.3638 20.0442ZM10.4464 19.9756C10.4196 20.0566 10.2857 20.094 10.1719 20.0566C10.0446 20.0317 9.95759 19.9382 9.98438 19.8572C10.0112 19.7762 10.1451 19.7389 10.2589 19.7638C10.3929 19.8012 10.4799 19.8946 10.4464 19.9756ZM9.62277 19.6392C9.5625 19.7077 9.43527 19.6952 9.33482 19.6018C9.23437 19.5208 9.20759 19.4024 9.27455 19.3463C9.33482 19.2778 9.46205 19.2902 9.5625 19.3837C9.64955 19.4647 9.68303 19.5893 9.62277 19.6392ZM9.01339 19.0722C8.95312 19.1096 8.83928 19.0722 8.76562 18.9787C8.69196 18.8852 8.69196 18.7793 8.76562 18.7357C8.83928 18.6796 8.95312 18.7232 9.01339 18.8167C9.08705 18.9102 9.08705 19.0223 9.01339 19.0722ZM8.57812 18.4678C8.51786 18.5239 8.41741 18.4927 8.34375 18.4304C8.27009 18.3494 8.2567 18.2559 8.31696 18.2123C8.37723 18.1563 8.47768 18.1874 8.55134 18.2497C8.625 18.3307 8.63839 18.4242 8.57812 18.4678ZM8.12946 18.0067C8.10268 18.0628 8.01562 18.0753 7.94196 18.0316C7.85491 17.9943 7.81473 17.9257 7.84152 17.8696C7.8683 17.8323 7.94196 17.8136 8.02902 17.8447C8.11607 17.8883 8.15625 17.9569 8.12946 18.0067Z" fill="#37474F"/>
</svg>
