<svg width="191" height="136" viewBox="0 0 191 136" fill="none" xmlns="http://www.w3.org/2000/svg">
<path d="M129.5 87.5L121.5 97H84.5L108.5 78.5L111 82H118L123 81L127.5 78.5L131 75.5L134 74L132.5 82L129.5 87.5Z" fill="#47505e9c"/>
<path d="M98.437 81.3877L79.5 96.5L61.9998 96.5L61.9998 86.9998L81.4999 72.4995L98.437 57.9995L100.264 62.362L103.441 65.145L107.569 65.0109L114.259 61.4951L121.424 56.5208L125.573 54.5306L125.573 57.9995L110.022 70.9097L98.437 81.3877Z" fill="#47505e9c"/>
<path d="M77.0779 72.3311L62.0003 83.5L62.0003 79.5L62.0003 67.4997L64.2965 65.7603L80 51.5L82.3067 55.6196L84.4891 57.8248L88.0474 57.421L94 55.6196L101 50.0582L105.473 47.0343L104.805 50.0582L89.0099 62.3925L77.0779 72.3311Z" fill="#47505e9c"/>
<path d="M82.5 51.5L84.5 48C90.8333 43.3333 103.7 34 104.5 34C105.3 34 107.833 32.6667 109 32V34V36.5L91.5 53.5H82.5V51.5Z" fill="#47505e9c"/>
<path d="M103 57.5L105 54C111.333 49.3333 124.2 40 125 40C125.8 40 128.333 38.6667 129.5 38V40V42.5L112 59.5L105 61.5L103 57.5Z" fill="#47505e9c"/>
<path d="M121.5 79.5H112.5V73L121.5 65.5L131 58L137 54L146.5 18L142.5 13.5V10V5V0.5H158V18H151L138.5 58L135 62V65.5L131 70L121.5 79.5Z" fill="#47505e9c"/>
<path d="M12.8906 77.5547L43.457 89.9082V99.4785L3.51562 80.9727V73.8438L43.457 55.3867V64.957L12.8906 77.5547Z" fill="#47505e9c"/>
<path d="M178.109 74.4453L147.543 62.0918L147.543 52.5215L187.484 71.0273L187.484 78.1563L147.543 96.6133L147.543 87.043L178.109 74.4453Z" fill="#47505e9c"/>
</svg>
