<svg width="192" height="136" viewBox="0 0 192 136" fill="none" xmlns="http://www.w3.org/2000/svg">
<path opacity="0.1" d="M179.31 0.168715L144.31 19.6515C143.903 19.9077 143.565 20.2525 143.322 20.6582C143.079 21.0638 142.938 21.5189 142.91 21.9867V62.7664C142.91 63.6252 143.54 63.9726 144.31 63.548L179.31 44.0653C179.717 43.8075 180.056 43.461 180.299 43.0537C180.543 42.6464 180.683 42.1897 180.71 41.7204V0.969643C180.71 0.110819 180.08 -0.236572 179.31 0.168715Z" fill="black"/>
<path d="M184.68 1.8184L149.68 21.3012C149.273 21.5569 148.934 21.9016 148.691 22.3073C148.447 22.7131 148.307 23.1684 148.28 23.6365V64.3873C148.302 64.8562 148.442 65.3129 148.688 65.718C148.933 66.1232 149.277 66.4646 149.69 66.7129L152.35 68.1797C152.786 68.3917 153.267 68.5022 153.755 68.5022C154.243 68.5022 154.724 68.3917 155.16 68.1797L190.16 48.7065C190.567 48.4482 190.905 48.1016 191.148 47.6944C191.392 47.2872 191.532 46.8308 191.56 46.3616V5.59145C191.535 5.12435 191.395 4.66975 191.151 4.26532C190.908 3.86088 190.568 3.51826 190.16 3.26586L187.5 1.7991C187.061 1.59138 186.577 1.48501 186.088 1.48836C185.598 1.49171 185.116 1.60469 184.68 1.8184Z" fill="#75DB8D"/>
<path opacity="0.2" d="M155.16 68.1603C154.722 68.3652 154.242 68.4717 153.755 68.4717C153.268 68.4717 152.788 68.3652 152.35 68.1603L149.65 66.7514C149.237 66.5032 148.893 66.1617 148.648 65.7566C148.402 65.3515 148.262 64.8948 148.24 64.4259V23.6367C148.257 23.1458 148.412 22.6686 148.69 22.2568L154.16 25.2579C153.91 25.6618 153.769 26.1196 153.75 26.5895V67.3401C153.72 68.1699 154.3 68.6235 155.16 68.1603Z" fill="black"/>
<path opacity="0.5" d="M191.54 5.3412C191.43 4.66572 190.86 4.37623 190.16 4.81047L155.16 24.2933C154.75 24.5311 154.406 24.8624 154.16 25.2583L148.71 22.2186C148.951 21.8189 149.296 21.4864 149.71 21.2537L184.71 1.77079C185.146 1.55872 185.627 1.44824 186.115 1.44824C186.603 1.44824 187.084 1.55872 187.52 1.77079L190.16 3.25685C190.53 3.4897 190.845 3.79604 191.083 4.15546C191.321 4.51487 191.477 4.9191 191.54 5.3412Z" fill="white"/>
<path d="M190.16 4.81021L155.16 24.2929C154.753 24.5485 154.414 24.8932 154.171 25.299C153.927 25.7047 153.787 26.1601 153.76 26.6281V67.3786C153.76 68.2471 154.39 68.5945 155.16 68.1602L190.16 48.6872C190.567 48.4289 190.905 48.0823 191.148 47.6751C191.392 47.2679 191.533 46.8115 191.56 46.3423V5.59183C191.56 4.73301 190.93 4.37597 190.16 4.81021Z" fill="#75DB8D"/>
<path d="M163.45 32.0124C163.445 31.8535 163.476 31.6955 163.54 31.5492C163.608 31.3968 163.692 31.2514 163.79 31.115L168.36 23.9741C168.378 23.9445 168.402 23.9184 168.43 23.8969H168.49C168.514 23.8789 168.544 23.8691 168.575 23.8691C168.606 23.8691 168.636 23.8789 168.66 23.8969C168.71 23.9606 168.735 24.0392 168.73 24.1188V26.869C168.733 27.0702 168.685 27.269 168.59 27.448C168.523 27.5787 168.446 27.7045 168.36 27.8244L166.36 30.7869L168.36 31.5395C168.441 31.5653 168.518 31.601 168.59 31.6457C168.68 31.7036 168.73 31.8387 168.73 32.0703V34.8108C168.726 34.9107 168.702 35.009 168.66 35.1003C168.622 35.1807 168.564 35.2504 168.49 35.303H168.43H168.36L163.79 33.2572C163.696 33.2244 163.61 33.1717 163.54 33.1028C163.468 32.9937 163.437 32.8646 163.45 32.7361V32.0124Z" fill="white"/>
<path d="M173.42 19.9409C173.464 19.7874 173.524 19.6387 173.6 19.497C173.669 19.3525 173.785 19.2338 173.93 19.1593L175.46 18.3004C175.486 18.2816 175.518 18.2715 175.55 18.2715C175.582 18.2715 175.614 18.2816 175.64 18.3004C175.692 18.3628 175.717 18.4424 175.71 18.5224C175.714 18.5802 175.714 18.6382 175.71 18.6961L171.84 34.5893C171.804 34.7364 171.75 34.8789 171.68 35.0139C171.611 35.1662 171.492 35.2919 171.34 35.3709L169.84 36.2104C169.816 36.2301 169.786 36.241 169.755 36.241C169.724 36.241 169.694 36.2301 169.67 36.2104C169.614 36.1495 169.585 36.0698 169.59 35.9885C169.586 35.9307 169.586 35.8726 169.59 35.8148L173.42 19.9409Z" fill="white"/>
<path d="M181.83 22.5165C181.835 22.6754 181.804 22.8334 181.74 22.9797C181.667 23.13 181.584 23.2751 181.49 23.4139L176.92 30.5451L176.85 30.6319H176.8C176.774 30.6507 176.742 30.6609 176.71 30.6609C176.678 30.6609 176.646 30.6507 176.62 30.6319C176.574 30.5707 176.552 30.4951 176.56 30.4196V27.6888C176.551 27.4944 176.596 27.3011 176.69 27.1291C176.758 27.0021 176.835 26.8796 176.92 26.7624L178.92 23.7806L176.92 23.0376C176.838 23.0106 176.76 22.9715 176.69 22.9218C176.6 22.8639 176.56 22.7191 176.56 22.4972V19.747C176.559 19.6445 176.58 19.5428 176.62 19.4479C176.661 19.3692 176.723 19.3025 176.8 19.2549H176.85H176.92L181.49 21.291C181.585 21.3272 181.67 21.3832 181.74 21.455C181.814 21.5632 181.846 21.6931 181.83 21.8217V22.5165Z" fill="white"/>
<path d="M171.85 48.0222C171.858 48.8557 171.751 49.6865 171.53 50.4924C171.334 51.2389 171.042 51.9586 170.66 52.6346C170.319 53.2537 169.891 53.8251 169.39 54.3329C168.947 54.7966 168.435 55.1934 167.87 55.5101C167.385 55.8038 166.839 55.9915 166.27 56.0602C165.837 56.1135 165.398 56.0287 165.02 55.8189C164.649 55.5857 164.359 55.2492 164.19 54.854C163.97 54.2898 163.861 53.6909 163.87 53.0881C163.872 52.9642 163.903 52.8422 163.96 52.7311C164.006 52.6335 164.078 52.55 164.17 52.4899L165.88 51.5249C166.05 51.4284 166.16 51.4091 166.22 51.4574C166.301 51.5663 166.356 51.6917 166.38 51.8241C166.402 51.9755 166.459 52.1205 166.545 52.2488C166.631 52.3772 166.746 52.4858 166.88 52.5671C167.11 52.6732 167.44 52.5671 167.88 52.3741C168.379 52.0941 168.777 51.6731 169.02 51.1679C169.29 50.5858 169.419 49.9525 169.4 49.3152V43.7185L164.82 46.2756C164.785 46.3048 164.741 46.3209 164.695 46.3209C164.649 46.3209 164.605 46.3048 164.57 46.2756C164.531 46.2323 164.501 46.1818 164.482 46.1271C164.463 46.0724 164.456 46.0147 164.46 45.9572V43.8247C164.463 43.6739 164.501 43.5256 164.57 43.3905C164.617 43.2669 164.705 43.1618 164.82 43.0913L171.5 39.3666C171.536 39.3367 171.582 39.3203 171.63 39.3203C171.678 39.3203 171.724 39.3367 171.76 39.3666C171.798 39.4108 171.826 39.4616 171.843 39.5163C171.86 39.5709 171.866 39.6283 171.86 39.6851L171.85 48.0222Z" fill="#FAFAFA"/>
<path d="M177.16 36.0267C177.637 35.7366 178.179 35.5612 178.74 35.5152C179.167 35.4857 179.595 35.5762 179.97 35.7758C180.321 35.9607 180.607 36.2431 180.79 36.5863C180.989 36.9457 181.096 37.3463 181.1 37.7539C181.098 37.8779 181.067 37.9998 181.01 38.111C180.971 38.2042 180.905 38.2847 180.82 38.3426L179.06 39.3075C178.972 39.3667 178.867 39.3972 178.76 39.3944C178.676 39.3776 178.597 39.3411 178.53 39.2882L178.4 39.1531C178.329 39.0875 178.243 39.0381 178.15 39.0084C178.019 38.9765 177.881 38.9765 177.75 39.0084C177.54 39.0421 177.339 39.1177 177.16 39.2303C176.991 39.3275 176.827 39.4338 176.67 39.5488C176.521 39.6683 176.384 39.8008 176.26 39.9444C176.137 40.0873 176.036 40.2465 175.96 40.4172C175.887 40.5955 175.85 40.7853 175.85 40.9769C175.834 41.1294 175.881 41.2817 175.98 41.4015C176.039 41.4494 176.108 41.4853 176.182 41.5068C176.256 41.5284 176.333 41.5352 176.41 41.5269C176.677 41.5174 176.942 41.4786 177.2 41.4111C177.53 41.3339 177.94 41.2374 178.43 41.1024C178.849 40.9866 179.284 40.9345 179.72 40.948C180.057 40.9582 180.381 41.0771 180.64 41.2857C180.911 41.5224 181.102 41.8314 181.19 42.1735C181.323 42.6678 181.384 43.1778 181.37 43.6884C181.367 44.3621 181.263 45.0317 181.06 45.6763C180.85 46.3214 180.562 46.9401 180.2 47.5193C179.825 48.0977 179.383 48.632 178.88 49.1115C178.369 49.5988 177.79 50.0146 177.16 50.3467C176.658 50.6552 176.091 50.8499 175.5 50.916C175.057 50.9677 174.607 50.8905 174.21 50.6941C173.842 50.5036 173.544 50.2067 173.36 49.8449C173.142 49.4395 173.029 48.9893 173.03 48.5325C173.031 48.4085 173.062 48.2863 173.12 48.1755C173.159 48.0771 173.229 47.9929 173.32 47.9343L175.07 46.9693C175.157 46.9142 175.256 46.881 175.36 46.8728C175.44 46.8831 175.516 46.913 175.58 46.9597L175.74 47.1334C175.824 47.2184 175.922 47.29 176.03 47.3456C176.171 47.4054 176.326 47.4287 176.48 47.4132C176.722 47.3856 176.954 47.3065 177.16 47.1816C177.596 46.9428 177.994 46.6437 178.34 46.2938C178.64 46.0041 178.812 45.6132 178.82 45.2034C178.83 45.1275 178.82 45.0502 178.79 44.9792C178.761 44.9082 178.712 44.8458 178.65 44.7982C178.486 44.7211 178.301 44.6941 178.12 44.721C177.82 44.7542 177.522 44.8091 177.23 44.885L175.95 45.2034C175.617 45.332 175.254 45.3685 174.9 45.3089C174.547 45.2492 174.218 45.0957 173.95 44.8657C173.447 44.171 173.22 43.3251 173.31 42.4822C173.316 41.882 173.404 41.2852 173.57 40.7067C173.751 40.0823 174.006 39.4801 174.33 38.9119C174.661 38.3299 175.064 37.7888 175.53 37.3004C175.999 36.794 176.549 36.3639 177.16 36.0267Z" fill="#FAFAFA"/>
<path opacity="0.1" d="M179.31 66.9349L144.31 86.4176C143.903 86.6738 143.565 87.0186 143.322 87.4242C143.079 87.8299 142.938 88.2849 142.91 88.7528V129.474C142.91 130.333 143.54 130.681 144.31 130.256L179.31 110.773C179.717 110.516 180.056 110.169 180.299 109.762C180.543 109.355 180.683 108.898 180.71 108.428V67.7165C180.71 66.8577 180.08 66.5103 179.31 66.9349Z" fill="black"/>
<path d="M184.68 68.566L149.68 88.0487C149.273 88.3043 148.934 88.649 148.691 89.0548C148.447 89.4605 148.307 89.9158 148.28 90.3839V131.134C148.302 131.603 148.442 132.06 148.688 132.465C148.933 132.87 149.277 133.212 149.69 133.46L152.35 134.927C152.786 135.139 153.267 135.249 153.755 135.249C154.243 135.249 154.724 135.139 155.16 134.927L190.16 115.454C190.567 115.195 190.905 114.849 191.148 114.442C191.392 114.034 191.532 113.578 191.56 113.109V72.339C191.534 71.8711 191.392 71.4159 191.147 71.0114C190.902 70.6069 190.56 70.2648 190.15 70.0134L187.49 68.5467C187.052 68.3405 186.57 68.235 186.083 68.2384C185.595 68.2417 185.115 68.3538 184.68 68.566Z" fill="#75DB8D"/>
<path opacity="0.2" d="M155.16 134.907C154.723 135.114 154.242 135.222 153.755 135.222C153.268 135.222 152.787 135.114 152.35 134.907L149.69 133.441C149.277 133.192 148.933 132.851 148.688 132.446C148.442 132.041 148.302 131.584 148.28 131.115V90.3838C148.297 89.8928 148.452 89.4156 148.73 89.0039L154.17 92.0436C153.92 92.4475 153.779 92.9052 153.76 93.3752V134.126C153.72 134.917 154.3 135.37 155.16 134.907Z" fill="black"/>
<path opacity="0.5" d="M191.54 72.0873C191.43 71.4118 190.86 71.1223 190.16 71.5566L155.16 91.0394C154.75 91.2771 154.406 91.6085 154.16 92.0044L148.71 88.9647C148.951 88.565 149.296 88.2325 149.71 87.9997L184.71 68.5169C185.146 68.3048 185.627 68.1943 186.115 68.1943C186.603 68.1943 187.084 68.3048 187.52 68.5169L190.18 69.974C190.55 70.2119 190.863 70.5237 191.098 70.8883C191.332 71.2528 191.483 71.6617 191.54 72.0873Z" fill="white"/>
<path d="M190.16 71.5766L155.16 91.0593C154.753 91.315 154.414 91.6597 154.171 92.0654C153.927 92.4711 153.787 92.9265 153.76 93.3946V134.145C153.76 135.014 154.39 135.361 155.16 134.927L190.16 115.454C190.567 115.195 190.905 114.849 191.148 114.442C191.392 114.034 191.532 113.578 191.56 113.109V72.3389C191.56 71.4801 190.93 71.1231 190.16 71.5766Z" fill="#75DB8D"/>
<path d="M163.45 98.7887C163.445 98.6298 163.476 98.4718 163.54 98.3255C163.608 98.1731 163.692 98.0277 163.79 97.8912L168.36 90.7505C168.378 90.7209 168.402 90.6948 168.43 90.6733H168.49C168.514 90.6553 168.544 90.6455 168.575 90.6455C168.606 90.6455 168.636 90.6553 168.66 90.6733C168.71 90.7369 168.735 90.8156 168.73 90.8952V93.6454C168.735 93.8466 168.686 94.0458 168.59 94.2244C168.523 94.355 168.446 94.4808 168.36 94.6007L166.36 97.5631L168.36 98.3158C168.441 98.3416 168.518 98.3773 168.59 98.422C168.68 98.4799 168.73 98.615 168.73 98.8466V101.597C168.726 101.697 168.702 101.795 168.66 101.886C168.622 101.967 168.564 102.036 168.49 102.089H168.43H168.36L163.79 100.043C163.696 100.01 163.61 99.9576 163.54 99.8887C163.468 99.7796 163.437 99.6505 163.45 99.5221V98.7887Z" fill="white"/>
<path d="M173.42 86.688C173.464 86.5345 173.524 86.3857 173.6 86.2441C173.669 86.0996 173.785 85.9809 173.93 85.9063L175.46 85.0475C175.486 85.0287 175.518 85.0186 175.55 85.0186C175.582 85.0186 175.614 85.0287 175.64 85.0475C175.692 85.1099 175.717 85.1895 175.71 85.2695C175.714 85.3273 175.714 85.3853 175.71 85.4431L171.84 101.336C171.804 101.483 171.75 101.626 171.68 101.761C171.611 101.913 171.492 102.039 171.34 102.118L169.84 102.958C169.816 102.977 169.786 102.988 169.755 102.988C169.724 102.988 169.694 102.977 169.67 102.958C169.614 102.897 169.585 102.817 169.59 102.736C169.586 102.678 169.586 102.62 169.59 102.562L173.42 86.688Z" fill="white"/>
<path d="M181.83 89.2636C181.835 89.4224 181.804 89.5804 181.74 89.7267C181.667 89.877 181.584 90.0221 181.49 90.161L176.92 97.2922L176.85 97.379H176.8C176.775 97.3995 176.743 97.4106 176.71 97.4106C176.677 97.4106 176.645 97.3995 176.62 97.379C176.574 97.3178 176.552 97.2422 176.56 97.1667V94.4455C176.551 94.248 176.596 94.0517 176.69 93.8762C176.758 93.7492 176.835 93.6267 176.92 93.5095L178.92 90.5277L176.92 89.7846C176.838 89.7576 176.76 89.7186 176.69 89.6688C176.6 89.6109 176.56 89.4662 176.56 89.2442V86.4941C176.559 86.3915 176.58 86.2899 176.62 86.1949C176.661 86.1162 176.723 86.0495 176.8 86.0019H176.85C176.861 85.9968 176.873 85.9941 176.885 85.9941C176.897 85.9941 176.909 85.9968 176.92 86.0019L181.49 88.038C181.585 88.0742 181.67 88.1302 181.74 88.2021C181.814 88.3103 181.846 88.4401 181.83 88.5688V89.2636Z" fill="white"/>
<path d="M162.01 116.689C162.01 116.872 162.01 117.113 162.01 117.422C162.01 117.731 162.01 118.039 162.01 118.387C162.01 118.734 162.01 119.033 162.01 119.352C162.01 119.67 162.01 119.892 162.01 120.066C162.017 120.336 162.057 120.605 162.13 120.867C162.175 121.08 162.275 121.279 162.42 121.446C162.553 121.581 162.736 121.661 162.93 121.668C163.202 121.66 163.466 121.577 163.69 121.426C163.973 121.281 164.227 121.089 164.44 120.857C164.626 120.655 164.79 120.435 164.93 120.201C165.049 119.986 165.143 119.76 165.21 119.525C165.28 119.304 165.33 119.101 165.37 118.927C165.396 118.746 165.443 118.568 165.51 118.396C165.581 118.27 165.689 118.166 165.82 118.097L167.58 117.132C167.607 117.109 167.643 117.096 167.68 117.096C167.717 117.096 167.752 117.109 167.78 117.132C167.813 117.167 167.838 117.209 167.854 117.253C167.869 117.298 167.875 117.346 167.87 117.393C167.855 118.102 167.744 118.806 167.54 119.487C167.325 120.199 167.026 120.886 166.65 121.533C166.284 122.172 165.841 122.768 165.33 123.308C164.859 123.824 164.305 124.264 163.69 124.611C163.177 124.934 162.582 125.117 161.97 125.142C161.498 125.153 161.038 124.994 160.68 124.698C160.292 124.361 160.008 123.926 159.86 123.443C159.651 122.819 159.54 122.169 159.53 121.513C159.53 120.979 159.53 120.4 159.53 119.776C159.53 119.149 159.53 118.551 159.53 117.972C159.549 117.21 159.657 116.453 159.85 115.714C160.043 114.961 160.318 114.23 160.67 113.533C161.022 112.857 161.459 112.225 161.97 111.651C162.458 111.098 163.04 110.629 163.69 110.262C164.187 109.965 164.748 109.784 165.33 109.731C165.792 109.702 166.253 109.81 166.65 110.04C167.05 110.3 167.36 110.67 167.54 111.101C167.764 111.651 167.876 112.238 167.87 112.829C167.868 112.953 167.837 113.075 167.78 113.186C167.741 113.284 167.671 113.369 167.58 113.427L165.82 114.392C165.67 114.479 165.57 114.498 165.51 114.44C165.438 114.328 165.39 114.204 165.37 114.073C165.329 113.925 165.275 113.78 165.21 113.639C165.152 113.501 165.055 113.381 164.93 113.292C164.781 113.209 164.611 113.169 164.44 113.176C164.172 113.202 163.914 113.291 163.69 113.437C163.401 113.593 163.143 113.799 162.93 114.045C162.726 114.287 162.555 114.553 162.42 114.836C162.287 115.126 162.19 115.431 162.13 115.743C162.06 116.054 162.02 116.37 162.01 116.689Z" fill="#FAFAFA"/>
<path d="M172.73 105.225C173.207 104.935 173.748 104.759 174.31 104.713C174.737 104.684 175.165 104.774 175.54 104.974C175.891 105.159 176.177 105.441 176.36 105.785C176.559 106.144 176.666 106.545 176.67 106.952C176.668 107.076 176.637 107.198 176.58 107.309C176.545 107.404 176.478 107.486 176.39 107.541L174.63 108.506C174.542 108.565 174.437 108.595 174.33 108.593C174.246 108.576 174.167 108.539 174.1 108.486L173.97 108.351C173.899 108.286 173.813 108.236 173.72 108.207C173.589 108.17 173.451 108.17 173.32 108.207C173.11 108.242 172.909 108.317 172.73 108.429C172.561 108.526 172.397 108.632 172.24 108.747C172.091 108.867 171.954 108.999 171.83 109.143C171.707 109.286 171.606 109.445 171.53 109.615C171.457 109.794 171.42 109.984 171.42 110.175C171.404 110.328 171.451 110.48 171.55 110.6C171.609 110.648 171.678 110.684 171.752 110.705C171.826 110.727 171.903 110.733 171.98 110.725C172.247 110.716 172.512 110.677 172.77 110.609C173.1 110.532 173.51 110.436 174 110.301C174.419 110.185 174.854 110.133 175.29 110.146C175.627 110.156 175.951 110.275 176.21 110.484C176.481 110.721 176.672 111.03 176.76 111.372C176.893 111.866 176.954 112.376 176.94 112.887C176.942 113.561 176.838 114.231 176.63 114.875C176.42 115.52 176.132 116.138 175.77 116.718C175.399 117.298 174.955 117.833 174.45 118.31C173.957 118.785 173.403 119.197 172.8 119.535C172.297 119.838 171.729 120.03 171.14 120.095C170.697 120.147 170.247 120.069 169.85 119.873C169.484 119.679 169.188 119.383 169 119.024C168.781 118.619 168.671 118.168 168.68 117.711C168.677 117.588 168.704 117.466 168.76 117.354C168.799 117.256 168.869 117.172 168.96 117.113L170.71 116.148C170.8 116.093 170.903 116.06 171.01 116.052C171.086 116.064 171.158 116.094 171.22 116.139L171.38 116.312C171.462 116.397 171.561 116.466 171.67 116.515C171.809 116.583 171.965 116.61 172.12 116.592C172.362 116.565 172.594 116.485 172.8 116.361C173.236 116.122 173.634 115.823 173.98 115.473C174.283 115.181 174.455 114.786 174.46 114.373C174.469 114.298 174.457 114.223 174.428 114.154C174.398 114.085 174.351 114.024 174.29 113.977C174.126 113.9 173.941 113.873 173.76 113.9C173.46 113.933 173.162 113.988 172.87 114.064L171.59 114.382C171.257 114.511 170.894 114.547 170.54 114.488C170.187 114.428 169.858 114.275 169.59 114.045C169.086 113.35 168.859 112.504 168.95 111.661C168.956 111.061 169.044 110.464 169.21 109.886C169.391 109.261 169.646 108.659 169.97 108.091C170.301 107.509 170.704 106.968 171.17 106.479C171.619 105.985 172.145 105.562 172.73 105.225Z" fill="#FAFAFA"/>
<path d="M181.76 100.198C182.233 99.9077 182.772 99.7322 183.33 99.6862C183.761 99.6564 184.191 99.7469 184.57 99.9467C184.921 100.132 185.207 100.414 185.39 100.757C185.585 101.118 185.691 101.518 185.7 101.925C185.698 102.049 185.667 102.171 185.61 102.282C185.571 102.378 185.501 102.459 185.41 102.514L183.66 103.479C183.585 103.542 183.489 103.576 183.39 103.576C183.291 103.576 183.195 103.542 183.12 103.479L183 103.343C182.929 103.278 182.843 103.228 182.75 103.199C182.619 103.168 182.481 103.168 182.35 103.199C182.139 103.232 181.939 103.308 181.76 103.421C181.591 103.518 181.427 103.624 181.27 103.739C181.118 103.858 180.977 103.991 180.85 104.135C180.73 104.275 180.633 104.431 180.56 104.598C180.483 104.778 180.446 104.972 180.45 105.167C180.436 105.318 180.479 105.469 180.57 105.592C180.629 105.639 180.698 105.675 180.772 105.696C180.846 105.718 180.923 105.725 181 105.717C181.27 105.708 181.539 105.669 181.8 105.601C182.13 105.524 182.54 105.428 183.03 105.293C183.449 105.177 183.884 105.125 184.32 105.138C184.652 105.149 184.972 105.264 185.23 105.466C185.5 105.704 185.691 106.013 185.78 106.354C185.913 106.852 185.974 107.365 185.96 107.879C185.958 108.533 185.853 109.184 185.65 109.809C185.446 110.459 185.157 111.082 184.79 111.661C184.419 112.24 183.979 112.774 183.48 113.254C182.985 113.725 182.431 114.133 181.83 114.469C181.324 114.777 180.754 114.972 180.16 115.039C179.717 115.086 179.269 115.009 178.87 114.817C178.506 114.621 178.211 114.325 178.02 113.968C177.81 113.56 177.7 113.111 177.7 112.655C177.7 112.531 177.731 112.409 177.79 112.298C177.827 112.201 177.893 112.117 177.98 112.057L179.74 111.092C179.824 111.032 179.925 110.999 180.03 110.996C180.109 111.009 180.184 111.039 180.25 111.082C180.299 111.144 180.352 111.202 180.41 111.256C180.488 111.341 180.584 111.41 180.69 111.459C180.832 111.526 180.992 111.553 181.15 111.536C181.393 111.507 181.626 111.425 181.83 111.295C182.269 111.06 182.667 110.76 183.01 110.407C183.16 110.265 183.28 110.095 183.363 109.908C183.445 109.721 183.488 109.52 183.49 109.317C183.499 109.241 183.488 109.165 183.456 109.095C183.424 109.025 183.374 108.965 183.31 108.921C183.149 108.843 182.967 108.816 182.79 108.844C182.489 108.872 182.191 108.927 181.9 109.008L180.62 109.326C180.286 109.447 179.924 109.48 179.572 109.42C179.221 109.361 178.892 109.212 178.62 108.988C178.126 108.29 177.903 107.446 177.99 106.605C177.996 106.005 178.083 105.408 178.25 104.829C178.427 104.204 178.682 103.601 179.01 103.035C179.341 102.455 179.74 101.914 180.2 101.423C180.652 100.94 181.178 100.527 181.76 100.198Z" fill="#FAFAFA"/>
<path opacity="0.1" d="M82.72 19.8248L2 64.6958C1.41642 65.062 0.930969 65.5563 0.583355 66.1382C0.23574 66.7202 0.0358393 67.3733 0 68.0442V111.468C0 112.703 0.89 113.205 2 112.587L82.72 67.7161C83.3019 67.3482 83.7861 66.8535 84.1335 66.2719C84.4809 65.6902 84.6818 65.038 84.72 64.3677V20.9442C84.72 19.709 83.82 19.2073 82.72 19.8248Z" fill="black"/>
<path d="M90.47 24.5052L9.76001 69.3762C9.17699 69.743 8.69197 70.2374 8.34443 70.8193C7.99688 71.4011 7.79664 72.054 7.76001 72.7246V116.206C7.7981 116.872 7.9992 117.521 8.34682 118.098C8.69445 118.675 9.17872 119.164 9.76001 119.526L13.07 121.34C13.6912 121.639 14.3758 121.794 15.07 121.794C15.7642 121.794 16.4489 121.639 17.07 121.34L97.78 76.4687C98.363 76.1019 98.848 75.6075 99.1956 75.0256C99.5431 74.4438 99.7434 73.7909 99.78 73.1203V29.6967C99.7451 29.0283 99.5454 28.3776 99.1976 27.7986C98.8497 27.2196 98.3637 26.729 97.78 26.3676L94.47 24.5534C93.8527 24.2469 93.1701 24.0829 92.4759 24.0746C91.7817 24.0662 91.095 24.2136 90.47 24.5052Z" fill="#75DB8D"/>
<path opacity="0.4" d="M90.47 24.5052L9.76001 69.3762C9.17699 69.743 8.69197 70.2374 8.34443 70.8193C7.99688 71.4011 7.79664 72.054 7.76001 72.7246V116.206C7.7981 116.872 7.9992 117.521 8.34682 118.098C8.69445 118.675 9.17872 119.164 9.76001 119.526L13.07 121.34C13.6912 121.639 14.3758 121.794 15.07 121.794C15.7642 121.794 16.4489 121.639 17.07 121.34L97.78 76.4687C98.363 76.1019 98.848 75.6075 99.1956 75.0256C99.5431 74.4438 99.7434 73.7909 99.78 73.1203V29.6967C99.7451 29.0283 99.5454 28.3776 99.1976 27.7986C98.8497 27.2196 98.3637 26.729 97.78 26.3676L94.47 24.5534C93.8527 24.2469 93.1701 24.0829 92.4759 24.0746C91.7817 24.0662 91.095 24.2136 90.47 24.5052Z" fill="black"/>
<path d="M99.79 29.2718C99.63 28.3068 98.79 27.9594 97.79 28.5095L17.08 73.3807C16.4898 73.7393 16.0044 74.2375 15.67 74.8281L8.36002 70.7463C8.69092 70.1831 9.16608 69.7113 9.74002 69.376L90.46 24.5048C91.0807 24.2043 91.7656 24.0479 92.46 24.0479C93.1545 24.0479 93.8393 24.2043 94.46 24.5048L97.77 26.3093C98.3064 26.6354 98.7641 27.0684 99.1126 27.5794C99.461 28.0904 99.692 28.6675 99.79 29.2718Z" fill="#75DB8D"/>
<path d="M97.81 28.5094L17.1 73.3803C16.5164 73.7465 16.031 74.2408 15.6834 74.8228C15.3358 75.4048 15.1358 76.0579 15.1 76.7288V120.152C15.1 121.387 15.99 121.889 17.1 121.272L97.81 76.4007C98.393 76.0339 98.8781 75.5395 99.2256 74.9576C99.5731 74.3757 99.7734 73.7229 99.81 73.0522V29.6288C99.82 28.3936 98.92 27.8918 97.81 28.5094Z" fill="#75DB8D"/>
<g opacity="0.2">
<path opacity="0.2" d="M97.81 28.5094L17.1 73.3803C16.5164 73.7465 16.031 74.2408 15.6834 74.8228C15.3358 75.4048 15.1358 76.0579 15.1 76.7288V120.152C15.1 121.387 15.99 121.889 17.1 121.272L97.81 76.4007C98.393 76.0339 98.8781 75.5395 99.2256 74.9576C99.5731 74.3757 99.7734 73.7229 99.81 73.0522V29.6288C99.82 28.3936 98.92 27.8918 97.81 28.5094Z" fill="black"/>
</g>
<path d="M35.43 74.1237C35.4976 74.066 35.5847 74.0342 35.675 74.0342C35.7652 74.0342 35.8524 74.066 35.92 74.1237C35.9932 74.2073 36.0486 74.304 36.0829 74.4084C36.1172 74.5127 36.1298 74.6225 36.12 74.7316V99.4638C36.1169 99.7574 36.0487 100.047 35.92 100.313C35.8198 100.549 35.6492 100.75 35.43 100.892L32.05 102.822C31.9824 102.88 31.8952 102.911 31.805 102.911C31.7147 102.911 31.6276 102.88 31.56 102.822C31.4848 102.74 31.4281 102.643 31.3937 102.538C31.3593 102.434 31.3478 102.323 31.36 102.214V92.8055L25.63 95.9899V105.35C25.6297 105.641 25.5613 105.928 25.43 106.19C25.3298 106.425 25.1592 106.627 24.94 106.769L21.56 108.65C21.4906 108.704 21.4042 108.734 21.315 108.734C21.2258 108.734 21.1394 108.704 21.07 108.65C20.9918 108.564 20.9336 108.462 20.8991 108.353C20.8647 108.243 20.8547 108.127 20.87 108.013V83.2716C20.8703 82.9808 20.9386 82.6938 21.07 82.4321C21.1702 82.1964 21.3407 81.9949 21.56 81.8531L24.94 79.9231C25.0085 79.8674 25.0953 79.8368 25.185 79.8368C25.2747 79.8368 25.3614 79.8674 25.43 79.9231C25.505 80.0076 25.5614 80.1059 25.5958 80.2121C25.6301 80.3183 25.6418 80.4301 25.63 80.5407V89.7659L31.36 86.5815V77.3467C31.3602 77.0559 31.4286 76.7689 31.56 76.5071C31.6602 76.2715 31.8307 76.07 32.05 75.9282L35.43 74.1237Z" fill="#FAFAFA"/>
<path d="M54.27 63.6245C54.3385 63.5687 54.4253 63.5381 54.515 63.5381C54.6047 63.5381 54.6914 63.5687 54.76 63.6245C54.8365 63.7064 54.8946 63.8027 54.9307 63.9073C54.9669 64.0119 54.9802 64.1226 54.97 64.2324V68.2949C54.9666 68.5865 54.8948 68.8735 54.76 69.1345C54.6598 69.3701 54.4892 69.5717 54.27 69.7135L49.73 72.2417V91.8886C49.7258 92.1789 49.6577 92.4651 49.53 92.7281C49.4298 92.9637 49.2592 93.1653 49.04 93.3071L45.66 95.1888C45.5914 95.2445 45.5047 95.2751 45.415 95.2751C45.3253 95.2751 45.2385 95.2445 45.17 95.1888C45.0942 95.1045 45.0366 95.0064 45.0005 94.9004C44.9645 94.7943 44.9507 94.6824 44.96 94.5712V74.934L40.43 77.4622C40.3614 77.518 40.2747 77.5486 40.185 77.5486C40.0953 77.5486 40.0085 77.518 39.94 77.4622C39.8632 77.3785 39.805 77.2805 39.7689 77.1743C39.7328 77.0681 39.7195 76.9559 39.73 76.8446V72.7917C39.7319 72.4969 39.8037 72.2064 39.94 71.9425C40.0402 71.7069 40.2107 71.5054 40.43 71.3636L54.27 63.6245Z" fill="#FAFAFA"/>
<path d="M66.16 77.0768C66.0179 76.9492 65.8996 76.799 65.81 76.6329L63.39 71.6729V84.343C63.3866 84.6346 63.3148 84.9216 63.18 85.1825C63.0862 85.4218 62.9142 85.625 62.69 85.7615L59.32 87.6914C59.2515 87.7472 59.1647 87.7778 59.075 87.7778C58.9853 87.7778 58.8986 87.7472 58.83 87.6914C58.7527 87.6081 58.6942 87.5101 58.658 87.4039C58.6219 87.2976 58.609 87.1852 58.62 87.0739V62.2645C58.6234 61.9729 58.6952 61.6859 58.83 61.425C58.9302 61.1893 59.1008 60.9878 59.32 60.846L62.32 59.1766C62.66 58.9836 62.92 58.9836 63.09 59.1766C63.2163 59.308 63.33 59.4501 63.43 59.6012L67.6 67.8806L71.78 54.95C71.78 54.7956 71.94 54.5254 72.11 54.1491C72.2655 53.7905 72.5398 53.4919 72.89 53.2999L75.89 51.6305C75.9576 51.5728 76.0448 51.541 76.135 51.541C76.2252 51.541 76.3124 51.5728 76.38 51.6305C76.4565 51.7124 76.5146 51.8087 76.5508 51.9133C76.5869 52.0179 76.6003 52.1286 76.59 52.2384V76.9803C76.5866 77.2718 76.5148 77.5589 76.38 77.8198C76.2831 78.0573 76.1118 78.2597 75.89 78.3988L72.52 80.3287C72.4524 80.3864 72.3652 80.4182 72.275 80.4182C72.1848 80.4182 72.0976 80.3864 72.03 80.3287C71.9535 80.2468 71.8954 80.1505 71.8593 80.0459C71.8231 79.9413 71.8098 79.8306 71.82 79.7208V66.9928L69.4 74.6547C69.3005 74.9378 69.1836 75.2149 69.05 75.4846C68.9255 75.7581 68.7158 75.9875 68.45 76.1407L66.8 77.1057C66.46 77.2022 66.26 77.2119 66.16 77.0768Z" fill="#FAFAFA"/>
<path d="M94.04 62.1475C94.1085 62.0917 94.1953 62.0611 94.285 62.0611C94.3747 62.0611 94.4614 62.0917 94.53 62.1475C94.6757 62.3213 94.7472 62.5421 94.73 62.7651V66.8275C94.7258 67.1179 94.6576 67.4041 94.53 67.6671C94.4298 67.9027 94.2592 68.1042 94.04 68.246L82.1 74.8946C82.0324 74.9523 81.9452 74.9841 81.855 74.9841C81.7648 74.9841 81.6776 74.9523 81.61 74.8946C81.5368 74.811 81.4814 74.7143 81.4471 74.61C81.4127 74.5056 81.4001 74.3958 81.41 74.2867V49.545C81.413 49.2515 81.4812 48.9619 81.61 48.6959C81.7102 48.4602 81.8807 48.2587 82.1 48.1169L85.48 46.187C85.5485 46.1312 85.6353 46.1006 85.725 46.1006C85.8147 46.1006 85.9014 46.1312 85.97 46.187C86.0465 46.2689 86.1046 46.3652 86.1407 46.4698C86.1769 46.5744 86.1902 46.6851 86.18 46.7949V66.4416L94.04 62.1475Z" fill="#FAFAFA"/>
<path d="M107.4 35.6987C108.55 35.0521 109.49 35.5732 109.49 36.8567C109.451 37.5578 109.241 38.2402 108.878 38.8487C108.515 39.4572 108.009 39.9748 107.4 40.3597C106.24 41.0062 105.3 40.4851 105.3 39.192C105.34 38.4911 105.551 37.8093 105.916 37.2021C106.281 36.595 106.789 36.0798 107.4 35.6987Z" fill="#455A64"/>
<path d="M140.89 45.0297C142.05 44.3832 142.98 44.9043 142.98 46.1877C142.942 46.8891 142.733 47.572 142.37 48.1808C142.007 48.7895 141.5 49.3068 140.89 49.6905C139.73 50.337 138.8 49.8159 138.8 48.5229C138.838 47.8227 139.047 47.1412 139.41 46.534C139.773 45.9268 140.281 45.4113 140.89 45.0297Z" fill="#455A64"/>
<path d="M130.3 53.4639C129.641 53.4588 129.011 53.204 128.545 52.7545C128.079 52.305 127.815 51.6968 127.81 51.0611V29.6C127.81 29.3594 127.744 29.1231 127.62 28.9147C127.495 28.7064 127.316 28.5334 127.1 28.4131C126.884 28.2928 126.639 28.2295 126.39 28.2295C126.141 28.2294 125.896 28.2928 125.68 28.413L107.68 38.4585L107.17 37.5996L125.17 27.5542C125.542 27.348 125.964 27.2397 126.393 27.2402C126.822 27.2408 127.244 27.3501 127.616 27.5572C127.987 27.7644 128.296 28.0621 128.511 28.4206C128.726 28.7791 128.839 29.1858 128.84 29.6V51.0611C128.841 51.308 128.909 51.5504 129.037 51.764C129.166 51.9776 129.35 52.1549 129.572 52.278C129.794 52.4012 130.045 52.4659 130.301 52.4657C130.557 52.4655 130.808 52.4004 131.03 52.2769L140.63 46.931L141.15 47.7898L131.55 53.1358C131.171 53.3514 130.74 53.4647 130.3 53.4639Z" fill="#455A64"/>
<path d="M107.4 59.0313C108.55 58.3945 109.49 58.9155 109.49 60.1989C109.451 60.9 109.241 61.5824 108.878 62.1909C108.515 62.7993 108.009 63.3169 107.4 63.7017C106.24 64.3483 105.3 63.8175 105.3 62.5341C105.34 61.832 105.551 61.1488 105.915 60.5402C106.28 59.9315 106.789 59.4145 107.4 59.0313Z" fill="#455A64"/>
<path d="M140.89 110.34C142.05 109.694 142.98 110.215 142.98 111.508C142.942 112.208 142.732 112.889 142.369 113.496C142.006 114.103 141.499 114.619 140.89 115.001C139.73 115.648 138.8 115.126 138.8 113.833C138.838 113.133 139.047 112.452 139.41 111.844C139.773 111.237 140.281 110.722 140.89 110.34Z" fill="#455A64"/>
<path d="M121.93 123.424C121.603 123.424 121.279 123.362 120.977 123.241C120.675 123.121 120.401 122.944 120.169 122.721C119.938 122.497 119.755 122.233 119.63 121.941C119.504 121.65 119.44 121.337 119.44 121.022V57.5845C119.44 57.3439 119.374 57.1076 119.25 56.8993C119.125 56.6909 118.946 56.5179 118.73 56.3976C118.514 56.2773 118.269 56.214 118.02 56.214C117.771 56.214 117.526 56.2773 117.31 56.3976L107.65 61.7917L107.16 60.9619L116.81 55.5773C117.182 55.3687 117.605 55.2585 118.036 55.2578C118.467 55.2571 118.89 55.366 119.263 55.5734C119.636 55.7809 119.946 56.0796 120.161 56.4394C120.377 56.7992 120.49 57.2075 120.49 57.6231V121.06C120.49 121.307 120.557 121.549 120.685 121.763C120.814 121.976 120.998 122.153 121.22 122.276C121.441 122.404 121.693 122.471 121.95 122.471C122.207 122.471 122.459 122.404 122.68 122.276L140.68 112.279L141.2 113.138L123.16 123.106C122.785 123.313 122.362 123.422 121.93 123.424Z" fill="#455A64"/>
</svg>
