<svg width="455" height="303" viewBox="0 0 455 303" fill="none" xmlns="http://www.w3.org/2000/svg">
<path d="M386.592 53.9694C387.627 53.3477 388.738 52.8648 389.899 52.5332L390.578 49.2669L396.105 49.1699L396.9 52.412C398.072 52.699 399.2 53.1413 400.255 53.727L403.045 51.909L407.019 55.7511L405.29 58.6053C405.915 59.6372 406.398 60.748 406.728 61.908L409.998 62.5868L410.095 68.1074L406.849 68.9013C406.558 70.0688 406.115 71.1934 405.533 72.2464L407.353 75.0401L403.518 79.0094L400.661 77.2823C399.627 77.9033 398.515 78.3842 397.355 78.7124L396.675 81.9788L391.148 82.0757L390.354 78.8336C389.183 78.5476 388.057 78.1053 387.005 77.5186L384.208 79.3366L380.235 75.5006L381.964 72.6464C381.34 71.6171 380.858 70.5081 380.532 69.3497L377.262 68.671L377.165 63.1503L380.404 62.3565C380.694 61.1856 381.139 60.0585 381.727 59.0053L379.907 56.2177L383.747 52.2484L386.598 53.9755L386.592 53.9694ZM389.541 61.3202C388.727 62.1627 388.181 63.2272 387.973 64.3794C387.765 65.5315 387.903 66.7195 388.37 67.7932C388.838 68.8668 389.613 69.7779 390.599 70.4113C391.585 71.0447 392.737 71.3719 393.909 71.3515C395.08 71.3312 396.22 70.9643 397.183 70.2971C398.146 69.6299 398.89 68.6925 399.32 67.6032C399.75 66.514 399.847 65.322 399.598 64.1777C399.35 63.0335 398.768 61.9885 397.925 61.1748C396.793 60.0844 395.275 59.4873 393.703 59.5146C392.131 59.5419 390.634 60.1913 389.541 61.3202Z" fill="#EBEBEB"/>
<path d="M205.873 67.0958C206.705 66.5932 207.6 66.204 208.536 65.9383L209.082 63.3083L213.541 63.2295L214.178 65.8414C215.123 66.0733 216.033 66.4299 216.884 66.9019L219.134 65.4293L222.337 68.5199L220.942 70.8227C221.448 71.6526 221.838 72.5477 222.101 73.483L224.74 74.0284L224.819 78.4825L222.204 79.1188C221.97 80.0631 221.611 80.972 221.136 81.8216L222.617 84.0698L219.516 87.2635L217.217 85.8697C216.385 86.3726 215.489 86.7619 214.554 87.0271L214.002 89.6632L209.549 89.742L208.906 87.1301C207.962 86.8933 207.054 86.5305 206.206 86.0515L203.949 87.5301L200.746 84.4334L202.142 82.1367C201.641 81.3043 201.251 80.4099 200.983 79.4764L198.35 78.9249L198.271 74.4769L200.886 73.8345C201.117 72.8921 201.474 71.985 201.947 71.1378L200.473 68.8835L203.567 65.6838L205.873 67.0776V67.0958ZM208.245 73.0225C207.587 73.7015 207.146 74.56 206.978 75.4894C206.809 76.4188 206.92 77.3773 207.296 78.2437C207.673 79.1101 208.298 79.8454 209.093 80.3568C209.888 80.8681 210.817 81.1324 211.763 81.1163C212.708 81.1002 213.628 80.8044 214.405 80.2663C215.182 79.7282 215.782 78.9719 216.129 78.0932C216.476 77.2145 216.554 76.2527 216.353 75.3297C216.153 74.4066 215.683 73.5636 215.003 72.9073C214.09 72.0291 212.867 71.5481 211.6 71.5697C210.333 71.5913 209.126 72.1137 208.245 73.0225Z" fill="#F5F5F5"/>
<path d="M208.244 73.0226C208.496 72.7157 208.797 72.4534 209.136 72.2469C210.059 71.6475 211.161 71.3862 212.254 71.5075C213.068 71.5957 213.847 71.8881 214.517 72.3574C215.187 72.8268 215.728 73.458 216.089 74.1921C216.3 74.614 216.445 75.0656 216.519 75.5314C216.612 76.0151 216.622 76.5108 216.55 76.9979C216.424 78.0409 215.963 79.0149 215.235 79.7734C214.508 80.5319 213.553 81.0338 212.515 81.2036C212.027 81.2852 211.529 81.2852 211.041 81.2036C210.573 81.1476 210.117 81.0187 209.688 80.8218C208.888 80.4595 208.199 79.8905 207.692 79.1735C207.259 78.5502 206.979 77.8341 206.873 77.0828C206.704 75.9978 206.918 74.8877 207.48 73.9437C207.676 73.5976 207.928 73.2863 208.226 73.0226C208.226 73.0226 207.941 73.3377 207.571 73.9922C207.06 74.9255 206.874 76.0021 207.043 77.0525C207.166 77.8227 207.48 78.5498 207.957 79.1671C208.434 79.7845 209.058 80.2722 209.773 80.5854C210.613 80.9554 211.544 81.0693 212.449 80.9127C213.423 80.7468 214.32 80.2739 215.006 79.5631C215.693 78.8522 216.134 77.9406 216.265 76.9616C216.337 76.5018 216.337 76.0335 216.265 75.5738C216.197 75.131 216.059 74.7016 215.858 74.3012C215.518 73.5979 215.007 72.9912 214.37 72.537C213.734 72.0827 212.994 71.7954 212.218 71.7015C211.164 71.5707 210.097 71.7946 209.185 72.3378C208.548 72.7196 208.269 73.0529 208.244 73.0226Z" fill="#F5F5F5"/>
<path d="M205.872 67.0961C205.819 67.0752 205.768 67.0488 205.721 67.0173L205.278 66.7628L203.543 65.7386H203.597L200.522 68.9565V68.8716L202.002 71.1138L202.032 71.1562V71.1987C201.567 72.044 201.214 72.9465 200.983 73.8832V73.9317H200.934L198.319 74.5801L198.392 74.4832C198.416 75.881 198.445 77.3637 198.477 78.9312L198.392 78.8282L201.031 79.3675H201.098V79.4342C201.367 80.3569 201.754 81.2409 202.251 82.0642L202.287 82.1249L202.251 82.1854L200.855 84.4882V84.3367C201.862 85.3063 202.948 86.3547 204.065 87.4213H203.907L206.158 85.9427L206.224 85.9002L206.291 85.9366C207.13 86.4037 208.028 86.7563 208.96 86.985H209.039V87.0637C209.245 87.8818 209.464 88.7787 209.682 89.6756L209.555 89.5787L214.008 89.4938L213.874 89.6029C214.05 88.7727 214.238 87.8758 214.426 86.9729V86.888H214.511C215.434 86.6232 216.317 86.2381 217.138 85.7427L217.211 85.7002L217.284 85.7427L219.583 87.1365H219.413L222.507 83.9368V84.1004L221.033 81.8522L220.984 81.7855L221.027 81.7128C221.495 80.8752 221.848 79.9783 222.076 79.0464V78.9676H222.149L224.77 78.3616L224.667 78.4889C224.643 76.9698 224.618 75.4871 224.594 74.0408L224.697 74.162L222.058 73.6106H221.985V73.5378C221.719 72.6113 221.329 71.7246 220.827 70.9017L220.79 70.8411L220.827 70.7745L222.222 68.4777V68.6232L219.025 65.5205H219.158L216.902 66.993H216.853H216.798C215.956 66.5262 215.057 66.1698 214.123 65.9325H214.068V65.878C213.838 64.9326 213.632 64.06 213.462 63.2661L213.541 63.3267L209.082 63.3873L209.142 63.3389C208.918 64.3872 208.73 65.2478 208.578 65.9689C207.875 66.1645 207.193 66.4262 206.54 66.7506L206.06 67.0052C206.012 67.0381 205.958 67.0646 205.903 67.0839L206.048 66.9809C206.151 66.9203 206.303 66.8294 206.522 66.7143C207.169 66.3683 207.85 66.09 208.554 65.8841L208.524 65.9204C208.669 65.1993 208.839 64.3327 209.051 63.2843V63.2358H209.1L213.553 63.1328H213.62V63.1995L214.269 65.8053L214.202 65.7447C215.155 65.9758 216.073 66.3325 216.932 66.8052H216.829C217.545 66.3325 218.285 65.8416 219.08 65.3265L219.146 65.2781L219.207 65.3387L222.416 68.4232L222.483 68.4838L222.434 68.5626L221.045 70.8654V70.7381C221.553 71.58 221.949 72.4845 222.222 73.4287L222.125 73.3439L224.764 73.8893H224.861V73.9923C224.861 75.4407 224.916 76.9254 224.94 78.4404V78.5434L224.837 78.5737L222.222 79.216L222.319 79.1191C222.082 80.0729 221.721 80.9917 221.245 81.8522V81.7128L222.72 83.961L222.78 84.0519L222.707 84.1307L219.613 87.3304L219.535 87.4092L219.444 87.3546L217.138 85.9608H217.278C216.435 86.4678 215.53 86.8611 214.584 87.1304L214.681 87.0274C214.493 87.9303 214.305 88.8454 214.129 89.6574V89.7665H214.02L209.561 89.8453H209.458L209.427 89.7423C209.209 88.8393 208.991 87.9243 208.79 87.1304L208.888 87.2274C207.932 86.9896 207.012 86.6269 206.151 86.1487H206.267L204.016 87.6213L203.931 87.6758L203.858 87.6092L200.655 84.5125L200.588 84.4458L200.637 84.361L202.032 82.0642V82.1854C201.528 81.3432 201.136 80.4387 200.867 79.4948L200.958 79.5736L198.319 79.0221H198.234V78.9373C198.234 77.3738 198.186 75.9073 198.168 74.4832V74.4044H198.247L200.861 73.7984L200.801 73.8651C201.037 72.9139 201.4 71.9987 201.881 71.1441V71.229L200.412 68.9747L200.382 68.9262L200.425 68.8898L203.537 65.7023L205.229 66.7567C205.417 66.8718 205.563 66.9627 205.666 67.0355L205.872 67.0961Z" fill="#F5F5F5"/>
<path d="M81.2388 51.6307C81.1309 51.1595 81.076 50.6778 81.075 50.1945C81.0502 49.615 80.9854 49.0379 80.8809 48.4674C80.7861 47.6856 80.634 46.9119 80.4259 46.1524C79.9203 44.0547 79.1023 42.0446 77.9992 40.1894C76.5713 37.7278 74.6875 35.5602 72.4482 33.8021C69.5484 31.5136 66.121 29.9869 62.4789 29.3613C58.8367 28.7357 55.0956 29.0312 51.5971 30.2207C49.581 30.8856 47.6783 31.8542 45.9551 33.0931C45.0696 33.7219 44.2266 34.4081 43.4314 35.1475C42.6365 35.9299 41.8966 36.7661 41.217 37.6502C38.3528 41.3486 36.7487 45.8656 36.6395 50.5403C36.5304 55.2149 37.9219 59.8017 40.6104 63.6295C41.2511 64.5422 41.9502 65.4126 42.7034 66.2353C43.4623 67.0179 44.273 67.7488 45.13 68.4229C46.78 69.7416 48.621 70.8021 50.59 71.5681C55.3812 73.4425 60.6743 73.6024 65.5702 72.0205C70.466 70.4386 74.6626 67.2124 77.4472 62.8902C78.6293 61.088 79.539 59.1216 80.1468 57.0544C80.3867 56.3024 80.5752 55.5351 80.711 54.7576C80.8434 54.1933 80.9346 53.6201 80.984 53.0427C81.0104 52.5607 81.0897 52.0831 81.2206 51.6185C81.2765 52.0997 81.2765 52.5857 81.2206 53.0669C81.2172 53.6543 81.1624 54.2403 81.0568 54.8182C80.9631 55.617 80.8069 56.4072 80.5897 57.1816C80.054 59.3233 79.1861 61.3681 78.0174 63.2416C76.3076 66.0275 74.0209 68.4157 71.3108 70.2459C68.6007 72.076 65.5299 73.3058 62.3048 73.8527C58.2246 74.5394 54.0347 74.1208 50.1714 72.6407C48.0774 71.8518 46.1172 70.746 44.3596 69.3622C43.4485 68.6564 42.5852 67.8911 41.7752 67.0716C40.9749 66.2105 40.235 65.2952 39.5608 64.3324C36.7134 60.2946 35.2411 55.4492 35.3613 50.5116C35.4815 45.574 37.1877 40.8058 40.2282 36.9109C40.9493 35.9814 41.7337 35.1026 42.576 34.2809C43.4326 33.5 44.3406 32.7772 45.2938 32.1175C47.1146 30.8224 49.1239 29.8147 51.2513 29.1299C55.1829 27.8298 59.3916 27.6059 63.4392 28.4815C66.631 29.1866 69.6351 30.5646 72.2507 32.5231C74.8663 34.4816 77.033 36.9755 78.6059 39.8379C79.6909 41.778 80.4647 43.876 80.8991 46.0555C81.0737 46.8398 81.1913 47.6358 81.251 48.437C81.3256 49.0197 81.35 49.6076 81.3238 50.1945C81.351 50.6749 81.3225 51.1568 81.2388 51.6307Z" fill="#EBEBEB"/>
<path d="M76.713 37.5108C76.7615 37.5835 76.3551 37.935 75.5664 38.5228L74.1104 39.5651C73.8192 39.7651 73.5037 39.9893 73.1822 40.1711L72.072 40.7771C68.0286 43.0852 63.4293 44.2421 58.7739 44.1223L56.7597 44.0374L54.8245 43.7344C54.509 43.6799 54.2178 43.6375 53.8841 43.5769L52.9863 43.3345C52.3796 43.1708 51.7729 43.0315 51.2451 42.8557C49.2777 42.191 47.3864 41.3196 45.6031 40.256C42.5698 38.438 41.0956 36.7594 41.2109 36.62C41.3261 36.4806 42.9823 37.8744 46.0339 39.4621C47.8067 40.3892 49.6582 41.1578 51.5667 41.7589C52.1066 41.9164 52.6708 42.0376 53.2411 42.1831L54.1086 42.3952L55.0065 42.5345L56.8568 42.8072L58.7739 42.88C63.2458 42.9796 67.6748 41.9896 71.6777 39.9954L72.8 39.5045C73.1458 39.3288 73.4552 39.1349 73.7585 38.9652L75.2995 38.1168C76.1609 37.6623 76.6645 37.4441 76.713 37.5108Z" fill="#EBEBEB"/>
<path d="M40.5253 64.9868C40.4707 64.9141 40.8832 64.5626 41.6658 63.9748L43.1218 62.9325C43.413 62.7385 43.7285 62.5143 44.05 62.3265L45.1663 61.7205C49.2105 59.4145 53.8092 58.2577 58.4644 58.3753L60.4786 58.4662L62.4078 58.7692C62.7232 58.8238 63.0144 58.8601 63.3481 58.9268L64.246 59.1631C64.8526 59.3268 65.429 59.4661 65.9871 59.6479C67.9543 60.3108 69.8456 61.1802 71.6291 62.2416C74.6624 64.0596 76.1366 65.7383 76.0214 65.8776C75.9061 66.017 74.2499 64.6232 71.168 63.0415C69.3883 62.1223 67.5307 61.3619 65.617 60.769C65.071 60.6115 64.5068 60.4963 63.9366 60.3448L63.0933 60.1024L62.2015 59.9934L60.3815 59.7207L58.4584 59.6419C53.9962 59.55 49.5785 60.542 45.5849 62.5325L44.4565 63.0173C44.1107 63.1991 43.8013 63.393 43.504 63.5566L41.957 64.405C41.0774 64.8414 40.5738 65.0595 40.5253 64.9868Z" fill="#EBEBEB"/>
<path d="M81.2267 52.1581C81.2267 52.4974 71.0833 52.5338 58.592 52.2308C46.1007 51.9278 35.9815 51.4006 35.9937 51.0612C36.0058 50.7218 46.1311 50.6855 58.6223 50.9885C71.1136 51.2915 81.2328 51.8126 81.2267 52.1581Z" fill="#EBEBEB"/>
<path d="M57.5668 73.6527C57.221 73.6527 57.1906 63.5264 57.494 51.0549C57.7973 38.5835 58.319 28.4814 58.6648 28.4814C59.0106 28.4814 59.041 38.6016 58.7376 51.0792C58.4343 63.5567 57.9065 73.6588 57.5668 73.6527Z" fill="#EBEBEB"/>
<path d="M57.5667 73.6161C57.4818 73.7494 54.9884 72.0647 52.1067 68.2408C50.4287 65.9939 49.069 63.5265 48.0663 60.9082C46.8481 57.6736 46.2552 54.2374 46.3191 50.782C46.4044 47.3219 47.182 43.9139 48.6063 40.7587C49.7512 38.2033 51.2369 35.8142 53.0228 33.6564C56.0561 29.978 58.5798 28.3479 58.6648 28.4812C58.7497 28.6145 56.5111 30.4689 53.7144 34.1958C52.0869 36.3631 50.7243 38.7169 49.6558 41.2072C48.3552 44.2454 47.6449 47.5029 47.5628 50.8062C47.5041 54.1069 48.0404 57.3912 49.1462 60.5022C50.0689 63.0514 51.3059 65.4759 52.8287 67.7197C55.4495 71.586 57.6941 73.4827 57.5667 73.6161Z" fill="#EBEBEB"/>
<path d="M59.1684 28.4819C59.2533 28.3486 61.7467 30.0393 64.6284 33.8571C66.3102 36.1082 67.67 38.5822 68.6688 41.2079C69.8899 44.4418 70.4829 47.8785 70.416 51.3342C70.3327 54.7938 69.5571 58.2018 68.1349 61.3574C66.9809 63.9177 65.4894 66.3124 63.7002 68.4779C60.6669 72.1563 58.1371 73.7865 58.0521 73.6531C57.9672 73.5198 60.2058 71.6655 63.0025 67.9386C64.6305 65.7693 65.993 63.4134 67.0611 60.9211C68.3694 57.8787 69.0819 54.6141 69.1602 51.3039C69.2218 48.0029 68.6854 44.7181 67.5768 41.6079C66.6541 39.0587 65.4171 36.6342 63.8943 34.3904C61.2735 30.5241 59.0471 28.6273 59.1684 28.4819Z" fill="#EBEBEB"/>
<path d="M108.393 75.0584C110.272 73.9254 112.294 73.0471 114.405 72.4466L115.619 66.5078L125.665 66.332L127.109 72.2284C129.241 72.7593 131.292 73.5746 133.206 74.6524L138.284 71.3255L145.515 78.3005L142.367 83.4879C143.501 85.363 144.38 87.3805 144.981 89.4873L150.927 90.6993L151.103 100.735L145.2 102.183C144.674 104.3 143.868 106.338 142.803 108.243L146.134 113.315L139.175 120.593L133.982 117.448C132.105 118.579 130.085 119.455 127.976 120.054L126.763 125.993L116.717 126.175L115.267 120.248C113.136 119.713 111.086 118.898 109.17 117.824L104.068 121.199L96.8362 114.23L99.9848 109.043C98.8499 107.167 97.9725 105.147 97.3761 103.037L91.4308 101.825L91.2488 91.7901L97.1516 90.3478C97.6857 88.2285 98.5018 86.1903 99.5783 84.2878L96.2538 79.2156L103.23 71.9921L108.424 75.1372L108.393 75.0584ZM113.75 88.4268C112.269 89.9591 111.277 91.8955 110.898 93.9913C110.518 96.0871 110.77 98.2481 111.62 100.201C112.471 102.154 113.882 103.811 115.675 104.963C117.468 106.115 119.563 106.71 121.695 106.673C123.827 106.636 125.899 105.968 127.651 104.754C129.403 103.54 130.755 101.834 131.537 99.8527C132.318 97.8712 132.494 95.7027 132.041 93.6215C131.589 91.5402 130.529 89.6397 128.996 88.1601C127.977 87.1776 126.775 86.405 125.457 85.8866C124.14 85.3682 122.733 85.1141 121.318 85.1389C119.902 85.1637 118.505 85.4668 117.206 86.0309C115.908 86.5951 114.733 87.4092 113.75 88.4268Z" fill="#E0E0E0"/>
<path d="M113.75 88.4274C114.318 87.735 114.996 87.1412 115.758 86.67C117.838 85.3191 120.324 84.7321 122.789 85.0096C124.495 85.1891 126.133 85.7707 127.57 86.7064C129.227 87.7827 130.562 89.286 131.434 91.0575C131.92 92.0094 132.251 93.0321 132.417 94.0875C132.617 95.1839 132.638 96.3054 132.478 97.4084C132.173 99.7447 131.123 101.921 129.484 103.616C127.846 105.31 125.705 106.434 123.378 106.82C122.282 107.018 121.162 107.038 120.059 106.88C119.01 106.744 117.987 106.45 117.026 106.007C115.224 105.195 113.674 103.914 112.537 102.299C111.552 100.896 110.912 99.2805 110.668 97.5841C110.305 95.1317 110.807 92.6294 112.088 90.506C112.532 89.729 113.102 89.0308 113.774 88.4396C113.835 88.488 113.125 89.1486 112.294 90.6272C111.13 92.724 110.703 95.1498 111.081 97.5174C111.361 99.253 112.071 100.891 113.147 102.283C114.222 103.674 115.629 104.776 117.238 105.486C119.143 106.325 121.254 106.583 123.305 106.226C125.501 105.851 127.52 104.785 129.067 103.183C130.615 101.582 131.61 99.5292 131.908 97.3235C132.064 96.2818 132.049 95.2216 131.865 94.1844C131.71 93.1883 131.403 92.2217 130.955 91.3181C130.189 89.7298 129.035 88.3595 127.599 87.3334C126.164 86.3073 124.493 85.6582 122.741 85.4459C120.359 85.1458 117.946 85.6514 115.886 86.8821C114.436 87.7548 113.805 88.4759 113.75 88.4274Z" fill="#E0E0E0"/>
<path d="M108.393 75.0588C108.393 75.0588 108.284 75.0043 108.06 74.8831L107.065 74.3074L103.133 71.9985H103.255L96.3145 79.2705V79.0766L99.6633 84.1306L99.724 84.2215L99.6694 84.3185C98.6199 86.2263 97.8264 88.2638 97.3095 90.3785V90.4936L97.1881 90.5239L91.2913 91.9844L91.4612 91.7723C91.5219 94.9296 91.5886 98.2868 91.6614 101.808L91.4673 101.571L97.4126 102.783H97.5643L97.6067 102.935C98.2048 105.019 99.078 107.014 100.203 108.868L100.288 109.007L100.203 109.146C99.2265 110.752 98.1527 112.528 97.0607 114.334L97.0183 113.994L104.256 120.957L103.898 120.927L108.976 117.594L109.121 117.497L109.279 117.582C111.173 118.633 113.199 119.428 115.303 119.945L115.479 119.988L115.522 120.163C115.977 122.012 116.474 124.024 116.972 126.06L116.674 125.83L126.721 125.648L126.423 125.89C126.818 124.012 127.236 121.987 127.637 119.951L127.673 119.77L127.855 119.715C129.936 119.124 131.929 118.26 133.782 117.146L133.946 117.049L134.104 117.146L139.291 120.291L138.915 120.339L145.891 113.122L145.855 113.503L142.567 108.431L142.47 108.28L142.555 108.116C143.611 106.227 144.409 104.206 144.927 102.105L144.975 101.929L145.151 101.886L151.048 100.444L150.824 100.735C150.771 97.3132 150.716 93.968 150.66 90.6997L150.884 90.9724L144.939 89.7301L144.775 89.6937L144.733 89.5362C144.141 87.4489 143.274 85.4497 142.154 83.5913L142.075 83.4519L142.154 83.3186L145.315 78.1373L145.357 78.4524L138.138 71.4652H138.435L133.345 74.774L133.236 74.8528L133.115 74.7861C131.209 73.7204 129.169 72.9153 127.048 72.3924L126.927 72.3621V72.2409C126.405 70.1017 125.938 68.1686 125.501 66.3445L125.677 66.4839L115.631 66.6172L115.764 66.5082C115.255 68.8776 114.836 70.8229 114.49 72.4409V72.5015H114.436C112.85 72.9387 111.312 73.5314 109.843 74.271L108.757 74.8346C108.643 74.9039 108.523 74.9647 108.399 75.0164C108.399 75.0164 108.515 74.9316 108.733 74.7861C108.951 74.6407 109.34 74.4346 109.795 74.1801C111.252 73.3964 112.79 72.7706 114.381 72.3136L114.314 72.3864C114.636 70.7623 115.03 68.817 115.528 66.4354V66.3324H115.637L125.683 66.1143H125.829L125.865 66.2597C126.32 68.0777 126.8 70.0048 127.333 72.15L127.182 71.9985C129.333 72.5289 131.404 73.3441 133.339 74.4225H133.109L138.181 71.0895L138.338 70.9804L138.472 71.1138L145.715 78.0706L145.867 78.2161L145.758 78.3918L142.621 83.5792V83.3065C143.77 85.1993 144.66 87.2375 145.266 89.3665L145.06 89.1665L151.006 90.3785L151.23 90.427V90.6512C151.291 93.9155 151.351 97.2627 151.412 100.693V100.923L151.181 100.984L145.285 102.432L145.503 102.214C144.973 104.367 144.157 106.44 143.076 108.377V108.062C144.176 109.742 145.287 111.433 146.407 113.134L146.54 113.34L146.371 113.516L139.394 120.739L139.224 120.915L139.012 120.788L133.819 117.642H134.134C132.238 118.786 130.198 119.672 128.067 120.279L128.286 120.048C127.855 122.084 127.437 124.108 127.073 125.987L127.024 126.223H126.781L116.729 126.393H116.48L116.419 126.157C115.922 124.127 115.431 122.109 114.976 120.266L115.194 120.485C113.042 119.951 110.969 119.136 109.03 118.061H109.334L104.25 121.381L104.056 121.509L103.892 121.345L96.6725 114.364L96.5147 114.212L96.63 114.025C97.7281 112.207 98.8019 110.449 99.7847 108.843V109.122C98.642 107.228 97.7566 105.19 97.1517 103.062L97.3459 103.244L91.4005 101.996L91.2125 101.953V101.808C91.1639 98.2868 91.1093 94.9296 91.0608 91.7723V91.5966L91.2307 91.5541L97.1335 90.124L96.9879 90.2755C97.5204 88.1326 98.3365 86.0702 99.4146 84.1428V84.3306L96.1083 79.2463L96.0415 79.1372L96.1265 79.0524L103.133 71.847L103.194 71.7864L103.261 71.8288L107.083 74.2044L108.066 74.8104C108.182 74.8835 108.291 74.9667 108.393 75.0588Z" fill="#E0E0E0"/>
<path d="M161.719 34.9054C163.128 34.0549 164.644 33.3966 166.227 32.948L167.161 28.4818L174.72 28.3545L175.806 32.7783C177.407 33.1786 178.947 33.79 180.386 34.5963L184.196 32.0996L189.626 37.3354L187.254 41.2078C188.106 42.6165 188.765 44.1328 189.213 45.7164L193.678 46.6618L193.812 54.2004L189.383 55.2851C188.98 56.8834 188.368 58.4217 187.563 59.8604L190.063 63.6661L184.839 69.0838L180.938 66.7264C179.528 67.5773 178.01 68.2357 176.425 68.6838L175.497 73.144L167.95 73.2773L166.864 68.8535C165.264 68.4508 163.724 67.8396 162.283 67.0355L158.474 69.5322L153.014 64.2964L155.373 60.3998C154.522 58.9911 153.863 57.4747 153.414 55.8911L148.949 54.964L148.815 47.4253L153.244 46.3406C153.645 44.7416 154.257 43.2029 155.064 41.7653L152.565 37.9596L157.806 32.5359L161.707 34.8932L161.719 34.9054ZM165.741 44.9468C164.628 46.0976 163.882 47.5524 163.596 49.1271C163.311 50.7018 163.499 52.3257 164.138 53.7934C164.776 55.2611 165.836 56.5066 167.184 57.3724C168.531 58.2382 170.105 58.6854 171.707 58.6574C173.309 58.6294 174.867 58.1275 176.183 57.2152C177.499 56.3029 178.515 55.0211 179.102 53.532C179.688 52.0429 179.82 50.4134 179.48 48.8496C179.139 47.2858 178.342 45.858 177.189 44.7468C175.644 43.2576 173.571 42.4422 171.424 42.4797C169.277 42.5172 167.233 43.4046 165.741 44.9468Z" fill="#EBEBEB"/>
<path d="M75.2268 237.182C75.3607 236.991 75.5153 236.817 75.6879 236.66L77.0104 235.333C78.1327 234.224 79.704 232.703 81.4512 231.037L81.4937 231V231.225C79.7343 229.594 78.1509 228.104 77.0165 227.013L75.6879 225.71C75.5172 225.559 75.3627 225.39 75.2268 225.207C75.4244 225.322 75.6059 225.463 75.7667 225.625L77.1681 226.837C78.339 227.886 79.9406 229.346 81.6999 230.982L81.8213 231.091L81.6999 231.206L81.6635 231.243C79.9163 232.909 78.3208 234.4 77.156 235.485L75.7667 236.745C75.6039 236.911 75.4227 237.057 75.2268 237.182Z" fill="#E0E0E0"/>
<path d="M61.6555 225.207C61.5185 225.393 61.3641 225.565 61.1944 225.722L59.8719 227.049C58.7496 228.158 57.1783 229.679 55.4311 231.346L55.3886 231.382V231.158C57.148 232.794 58.7314 234.279 59.8658 235.37L61.1944 236.673C61.3681 236.823 61.5229 236.994 61.6555 237.182C61.4607 237.06 61.2797 236.918 61.1156 236.757C60.7334 236.424 60.2662 236.018 59.7142 235.545C58.5433 234.503 56.9417 233.037 55.1824 231.4L55.061 231.291L55.1824 231.176L55.2188 231.14C56.966 229.473 58.5615 227.983 59.7263 226.898L61.1156 225.643C61.2763 225.476 61.4577 225.329 61.6555 225.207Z" fill="#E0E0E0"/>
<path d="M65.1379 239.976C65.059 239.945 66.4847 235.94 68.3229 231.031C70.1611 226.122 71.7202 222.165 71.7991 222.195C71.878 222.226 70.4523 226.231 68.6141 231.14C66.7759 236.049 65.2228 240.03 65.1379 239.976Z" fill="#E0E0E0"/>
<path d="M90.6845 248.568C90.6845 248.568 90.6845 248.338 90.6845 247.896C90.6845 247.453 90.6845 246.811 90.6845 245.975C90.6845 244.278 90.6845 241.817 90.6481 238.703C90.6481 232.418 90.6118 223.443 90.5875 212.614L90.7149 212.748H46.5192L46.6709 212.59C46.6709 225.601 46.6709 237.878 46.6709 248.568L46.5313 248.429L78.4481 248.502L87.4935 248.538H89.9202H90.5268H89.9202H87.542L78.5269 248.574L46.5253 248.647H46.3857V248.508C46.3857 237.818 46.3857 225.54 46.3857 212.529V212.378H46.5435H90.7392H90.8665V212.505C90.8362 223.365 90.8119 232.37 90.7998 238.672C90.7998 241.799 90.7998 244.254 90.7634 245.944C90.7634 246.768 90.7634 247.405 90.7634 247.847C90.7634 248.289 90.6845 248.568 90.6845 248.568Z" fill="#E0E0E0"/>
<path d="M91.0303 217.929C91.0303 218.014 81.0507 218.086 68.7475 218.086C56.4443 218.086 46.4646 218.014 46.4646 217.929C46.4646 217.844 56.4382 217.777 68.7475 217.777C81.0567 217.777 91.0303 217.844 91.0303 217.929Z" fill="#E0E0E0"/>
<path d="M50.0925 215.305C50.0925 215.466 50.0286 215.62 49.9148 215.734C49.801 215.847 49.6467 215.911 49.4858 215.911C49.3249 215.911 49.1706 215.847 49.0568 215.734C48.9431 215.62 48.8792 215.466 48.8792 215.305C48.8792 215.144 48.9431 214.99 49.0568 214.877C49.1706 214.763 49.3249 214.699 49.4858 214.699C49.6467 214.699 49.801 214.763 49.9148 214.877C50.0286 214.99 50.0925 215.144 50.0925 215.305Z" fill="#E0E0E0"/>
<path d="M51.6639 215.899C51.9922 215.899 52.2584 215.633 52.2584 215.305C52.2584 214.977 51.9922 214.711 51.6639 214.711C51.3355 214.711 51.0693 214.977 51.0693 215.305C51.0693 215.633 51.3355 215.899 51.6639 215.899Z" fill="#E0E0E0"/>
<path d="M54.4301 215.305C54.4301 215.425 54.3946 215.542 54.3279 215.642C54.2612 215.742 54.1665 215.819 54.0556 215.865C53.9448 215.911 53.8228 215.923 53.7051 215.9C53.5874 215.876 53.4793 215.818 53.3945 215.734C53.3096 215.649 53.2519 215.541 53.2285 215.423C53.205 215.306 53.2171 215.184 53.263 215.073C53.3089 214.963 53.3867 214.868 53.4864 214.801C53.5862 214.735 53.7035 214.699 53.8235 214.699C53.9844 214.699 54.1387 214.763 54.2524 214.877C54.3662 214.99 54.4301 215.145 54.4301 215.305Z" fill="#E0E0E0"/>
<path d="M442.26 272.136C442.26 272.227 349.749 272.294 235.66 272.294C121.57 272.294 29.0471 272.227 29.0471 272.136C29.0471 272.045 121.533 271.979 235.66 271.979C349.786 271.979 442.26 272.051 442.26 272.136Z" fill="#263238"/>
<path d="M84.272 97.748H335.954C337.038 97.748 338.078 98.1784 338.845 98.9443C339.612 99.7103 340.043 100.749 340.043 101.832V260.98C340.043 262.14 339.814 263.288 339.37 264.359C338.926 265.43 338.275 266.404 337.454 267.224C336.633 268.043 335.659 268.694 334.586 269.138C333.514 269.581 332.364 269.81 331.204 269.81H88.4094C86.0652 269.81 83.8169 268.879 82.1592 267.224C80.5016 265.568 79.5703 263.322 79.5703 260.98V102.445C79.5703 101.199 80.0657 100.004 80.9474 99.1236C81.8291 98.2428 83.025 97.748 84.272 97.748Z" fill="#455A64"/>
<path d="M68.6807 257.084H350.884V263.823C350.884 264.915 350.669 265.996 350.25 267.004C349.832 268.013 349.219 268.93 348.446 269.702C347.673 270.474 346.755 271.086 345.746 271.504C344.736 271.922 343.653 272.137 342.56 272.137H77.0041C75.9111 272.137 74.8287 271.922 73.8189 271.504C72.809 271.086 71.8915 270.474 71.1186 269.702C70.3456 268.93 69.7325 268.013 69.3143 267.004C68.896 265.996 68.6807 264.915 68.6807 263.823V257.084Z" fill="#455A64"/>
<path d="M332.326 104.584H86.5652V249.885H332.326V104.584Z" fill="#E0E0E0"/>
<path d="M184.129 257.084L187.636 262.647H236.909L240.161 257.084H184.129Z" fill="#263238"/>
<path d="M325.628 113.001H93.8574V249.884H325.628V113.001Z" fill="#263238"/>
<path d="M111.627 245.873C111.505 245.873 111.408 216.718 111.408 180.764C111.408 144.81 111.505 115.649 111.627 115.649C111.748 115.649 111.845 144.798 111.845 180.764C111.845 216.73 111.76 245.873 111.627 245.873Z" fill="#E0E0E0"/>
<path d="M106.961 127.454C106.961 127.57 105.275 127.667 103.2 127.667C101.125 127.667 99.4326 127.57 99.4326 127.454C99.4326 127.339 101.119 127.236 103.2 127.236C105.281 127.236 106.961 127.333 106.961 127.454Z" fill="#E0E0E0"/>
<path d="M107.253 120.061C107.253 120.182 105.566 120.279 103.485 120.279C101.404 120.279 99.7239 120.182 99.7239 120.061C99.7239 119.94 101.41 119.843 103.485 119.843C105.56 119.843 107.253 119.94 107.253 120.061Z" fill="#E0E0E0"/>
<path d="M106.961 135.417C106.961 135.539 105.275 135.636 103.2 135.636C101.125 135.636 99.4326 135.539 99.4326 135.417C99.4326 135.296 101.119 135.199 103.2 135.199C105.281 135.199 106.961 135.296 106.961 135.417Z" fill="#E0E0E0"/>
<path d="M106.961 143.38C106.961 143.501 105.275 143.598 103.2 143.598C101.125 143.598 99.4326 143.501 99.4326 143.38C99.4326 143.259 101.119 143.162 103.2 143.162C105.281 143.162 106.961 143.259 106.961 143.38Z" fill="#E0E0E0"/>
<path d="M106.961 151.343C106.961 151.464 105.275 151.561 103.2 151.561C101.125 151.561 99.4326 151.464 99.4326 151.343C99.4326 151.222 101.119 151.131 103.2 151.131C105.281 151.131 106.961 151.228 106.961 151.343Z" fill="#E0E0E0"/>
<path d="M106.961 159.311C106.961 159.432 105.275 159.529 103.2 159.529C101.125 159.529 99.4326 159.432 99.4326 159.311C99.4326 159.19 101.119 159.093 103.2 159.093C105.281 159.093 106.961 159.19 106.961 159.311Z" fill="#E0E0E0"/>
<path d="M106.961 167.256C106.961 167.377 105.275 167.474 103.2 167.474C101.125 167.474 99.4326 167.377 99.4326 167.256C99.4326 167.135 101.119 167.038 103.2 167.038C105.281 167.038 106.961 167.153 106.961 167.256Z" fill="#E0E0E0"/>
<path d="M106.961 175.237C106.961 175.359 105.275 175.456 103.2 175.456C101.125 175.456 99.4326 175.359 99.4326 175.237C99.4326 175.116 101.119 175.025 103.2 175.025C105.281 175.025 106.961 175.134 106.961 175.237Z" fill="#E0E0E0"/>
<path d="M106.961 183.206C106.961 183.322 105.275 183.419 103.2 183.419C101.125 183.419 99.4326 183.322 99.4326 183.206C99.4326 183.091 101.119 182.988 103.2 182.988C105.281 182.988 106.961 183.085 106.961 183.206Z" fill="#E0E0E0"/>
<path d="M106.961 191.169C106.961 191.291 105.275 191.387 103.2 191.387C101.125 191.387 99.4326 191.291 99.4326 191.169C99.4326 191.048 101.119 190.951 103.2 190.951C105.281 190.951 106.961 191.048 106.961 191.169Z" fill="#E0E0E0"/>
<path d="M106.961 199.131C106.961 199.252 105.275 199.349 103.2 199.349C101.125 199.349 99.4326 199.252 99.4326 199.131C99.4326 199.01 101.119 198.913 103.2 198.913C105.281 198.913 106.961 199.01 106.961 199.131Z" fill="#E0E0E0"/>
<path d="M106.961 207.101C106.961 207.216 105.275 207.313 103.2 207.313C101.125 207.313 99.4326 207.216 99.4326 207.101C99.4326 206.986 101.119 206.883 103.2 206.883C105.281 206.883 106.961 206.98 106.961 207.101Z" fill="#E0E0E0"/>
<path d="M106.961 215.064C106.961 215.185 105.275 215.282 103.2 215.282C101.125 215.282 99.4326 215.185 99.4326 215.064C99.4326 214.943 101.119 214.846 103.2 214.846C105.281 214.846 106.961 214.943 106.961 215.064Z" fill="#E0E0E0"/>
<path d="M106.961 223.008C106.961 223.129 105.275 223.226 103.2 223.226C101.125 223.226 99.4326 223.129 99.4326 223.008C99.4326 222.887 101.119 222.79 103.2 222.79C105.281 222.79 106.961 222.905 106.961 223.008Z" fill="#E0E0E0"/>
<path d="M106.961 230.989C106.961 231.111 105.275 231.208 103.2 231.208C101.125 231.208 99.4326 231.111 99.4326 230.989C99.4326 230.868 101.119 230.777 103.2 230.777C105.281 230.777 106.961 230.886 106.961 230.989Z" fill="#E0E0E0"/>
<path d="M106.961 238.958C106.961 239.08 105.275 239.177 103.2 239.177C101.125 239.177 99.4326 239.08 99.4326 238.958C99.4326 238.837 101.119 238.74 103.2 238.74C105.281 238.74 106.961 238.837 106.961 238.958Z" fill="#E0E0E0"/>
<path d="M137.143 238.958C137.143 239.08 132.769 239.177 127.37 239.177C121.97 239.177 117.602 239.08 117.602 238.958C117.602 238.837 121.976 238.74 127.37 238.74C132.763 238.74 137.143 238.837 137.143 238.958Z" fill="#90CAF9"/>
<path d="M143.895 126.26C143.895 126.381 139.521 126.478 134.128 126.478C128.735 126.478 124.354 126.381 124.354 126.26C124.354 126.139 128.729 126.042 134.128 126.042C139.527 126.042 143.895 126.139 143.895 126.26Z" fill="#90CAF9"/>
<path d="M164.358 143.38C164.358 143.501 156.168 143.598 146.079 143.598C135.99 143.598 127.794 143.501 127.794 143.38C127.794 143.259 135.978 143.162 146.079 143.162C156.18 143.162 164.358 143.259 164.358 143.38Z" fill="#90CAF9"/>
<path d="M206.63 143.38C206.63 143.501 198.447 143.598 188.352 143.598C178.257 143.598 170.073 143.501 170.073 143.38C170.073 143.259 178.257 143.162 188.352 143.162C198.447 143.162 206.63 143.259 206.63 143.38Z" fill="#E0E0E0"/>
<path d="M190.493 151.343C190.493 151.464 178.433 151.561 163.551 151.561C148.67 151.561 136.609 151.464 136.609 151.343C136.609 151.222 148.67 151.131 163.551 151.131C178.433 151.131 190.493 151.228 190.493 151.343Z" fill="#E0E0E0"/>
<path d="M190.493 159.311C190.493 159.432 178.433 159.529 163.551 159.529C148.67 159.529 136.609 159.432 136.609 159.311C136.609 159.19 148.67 159.093 163.551 159.093C178.433 159.093 190.493 159.19 190.493 159.311Z" fill="#E0E0E0"/>
<path d="M227.567 183.206C227.567 183.322 215.5 183.419 200.625 183.419C185.749 183.419 173.683 183.322 173.683 183.206C173.683 183.091 185.743 182.988 200.625 182.988C215.506 182.988 227.567 183.085 227.567 183.206Z" fill="#E0E0E0"/>
<path d="M211.563 167.256C211.563 167.377 199.496 167.474 184.621 167.474C169.745 167.474 157.679 167.377 157.679 167.256C157.679 167.135 169.739 167.038 184.621 167.038C199.502 167.038 211.563 167.153 211.563 167.256Z" fill="#E0E0E0"/>
<path d="M277.404 167.256C277.404 167.377 265.344 167.474 250.462 167.474C235.581 167.474 223.52 167.377 223.52 167.256C223.52 167.135 235.581 167.038 250.462 167.038C265.344 167.038 277.404 167.153 277.404 167.256Z" fill="#E0E0E0"/>
<path d="M254.509 151.343C254.509 151.464 242.442 151.561 227.567 151.561C212.691 151.561 200.625 151.464 200.625 151.343C200.625 151.222 212.685 151.131 227.567 151.131C242.448 151.131 254.509 151.228 254.509 151.343Z" fill="#FAFAFA"/>
<path d="M291.728 183.206C291.728 183.322 279.661 183.419 264.786 183.419C249.91 183.419 237.844 183.322 237.844 183.206C237.844 183.091 249.904 182.988 264.786 182.988C279.667 182.988 291.728 183.085 291.728 183.206Z" fill="#FAFAFA"/>
<path d="M284.296 159.311C284.296 159.432 265.562 159.529 242.436 159.529C219.31 159.529 200.576 159.432 200.576 159.311C200.576 159.19 219.304 159.093 242.436 159.093C265.568 159.093 284.296 159.19 284.296 159.311Z" fill="#455A64"/>
<path d="M137.143 230.989C137.143 231.111 132.769 231.208 127.37 231.208C121.97 231.208 117.602 231.111 117.602 230.989C117.602 230.868 121.976 230.777 127.37 230.777C132.763 230.777 137.143 230.886 137.143 230.989Z" fill="#FAFAFA"/>
<path d="M146.813 167.256C146.813 167.377 142.439 167.474 137.04 167.474C131.64 167.474 127.272 167.377 127.272 167.256C127.272 167.135 131.647 167.038 137.04 167.038C142.433 167.038 146.813 167.153 146.813 167.256Z" fill="#FAFAFA"/>
<path d="M303.436 167.256C303.436 167.377 299.062 167.474 293.669 167.474C288.276 167.474 283.92 167.396 283.92 167.256C283.92 167.117 288.294 167.038 293.693 167.038C299.093 167.038 303.436 167.153 303.436 167.256Z" fill="#90CAF9"/>
<path d="M164.358 199.089C164.358 199.204 156.168 199.301 146.079 199.301C135.99 199.301 127.794 199.204 127.794 199.089C127.794 198.974 135.978 198.871 146.079 198.871C156.18 198.871 164.358 198.968 164.358 199.089Z" fill="#90CAF9"/>
<path d="M206.63 199.089C206.63 199.204 198.447 199.301 188.352 199.301C178.257 199.301 170.073 199.204 170.073 199.089C170.073 198.974 178.257 198.871 188.352 198.871C198.447 198.871 206.63 198.968 206.63 199.089Z" fill="#E0E0E0"/>
<path d="M190.493 207.052C190.493 207.173 178.433 207.27 163.551 207.27C148.67 207.27 136.609 207.173 136.609 207.052C136.609 206.931 148.67 206.834 163.551 206.834C178.433 206.834 190.493 206.931 190.493 207.052Z" fill="#E0E0E0"/>
<path d="M190.493 215.015C190.493 215.136 178.433 215.233 163.551 215.233C148.67 215.233 136.609 215.136 136.609 215.015C136.609 214.894 148.67 214.797 163.551 214.797C178.433 214.797 190.493 214.894 190.493 215.015Z" fill="#E0E0E0"/>
<path d="M211.563 223.008C211.563 223.129 199.496 223.226 184.621 223.226C169.745 223.226 157.679 223.129 157.679 223.008C157.679 222.887 169.739 222.796 184.621 222.796C199.502 222.796 211.563 222.863 211.563 223.008Z" fill="#E0E0E0"/>
<path d="M277.404 223.008C277.404 223.129 265.344 223.226 250.462 223.226C235.581 223.226 223.52 223.129 223.52 223.008C223.52 222.887 235.581 222.796 250.462 222.796C265.344 222.796 277.404 222.863 277.404 223.008Z" fill="#E0E0E0"/>
<path d="M200.151 230.789C200.151 230.911 188.091 231.008 173.215 231.008C158.34 231.008 146.267 230.911 146.267 230.789C146.267 230.668 158.328 230.571 173.215 230.571C188.103 230.571 200.151 230.668 200.151 230.789Z" fill="#E0E0E0"/>
<path d="M181.509 133.321C181.509 133.442 169.442 133.539 154.567 133.539C139.691 133.539 127.625 133.442 127.625 133.321C127.625 133.2 139.685 133.103 154.567 133.103C169.448 133.103 181.509 133.218 181.509 133.321Z" fill="#E0E0E0"/>
<path d="M254.509 207.052C254.509 207.173 242.442 207.27 227.567 207.27C212.691 207.27 200.625 207.173 200.625 207.052C200.625 206.931 212.685 206.834 227.567 206.834C242.448 206.834 254.509 206.931 254.509 207.052Z" fill="#FAFAFA"/>
<path d="M284.296 215.015C284.296 215.136 265.562 215.233 242.436 215.233C219.31 215.233 200.576 215.136 200.576 215.015C200.576 214.894 219.304 214.797 242.436 214.797C265.568 214.797 284.296 214.894 284.296 215.015Z" fill="#455A64"/>
<path d="M146.813 223.008C146.813 223.129 142.439 223.226 137.04 223.226C131.64 223.226 127.272 223.129 127.272 223.008C127.272 222.887 131.647 222.796 137.04 222.796C142.433 222.796 146.813 222.863 146.813 223.008Z" fill="#FAFAFA"/>
<path d="M303.436 223.008C303.436 223.129 299.062 223.226 293.669 223.226C288.276 223.226 283.92 223.099 283.92 223.008C283.92 222.917 288.294 222.796 293.693 222.796C299.093 222.796 303.436 222.863 303.436 223.008Z" fill="#90CAF9"/>
<path d="M229.278 74.8526C229.278 74.8526 229.278 74.6587 229.278 74.2466C229.278 73.8346 229.278 73.277 229.278 72.5256C229.278 71.7742 229.278 70.8288 229.278 69.7259C229.255 69.1214 229.358 68.5188 229.581 67.9564C229.849 67.3191 230.28 66.7633 230.831 66.3444C231.442 65.8669 232.185 65.5858 232.96 65.5384C233.767 65.5384 234.598 65.5384 235.478 65.5384H241.174H255.055L335.402 65.4475H379.688H390.815C391.221 65.4328 391.627 65.4572 392.028 65.5202C392.829 65.668 393.566 66.0554 394.141 66.6312C394.717 67.207 395.103 67.9439 395.249 68.7442C395.309 69.131 395.334 69.5225 395.322 69.9137V71.053C395.322 77.113 395.322 82.7185 395.322 87.8635C395.322 98.1655 395.286 106.443 395.274 112.2C395.274 115.067 395.274 117.297 395.274 118.818C395.274 119.569 395.274 120.145 395.274 120.539C395.274 120.933 395.274 121.145 395.274 121.145C395.274 121.145 395.274 120.945 395.274 120.539C395.274 120.133 395.274 119.569 395.274 118.818C395.274 117.297 395.274 115.067 395.243 112.2C395.243 106.443 395.243 98.1352 395.195 87.8635C395.195 82.7185 395.195 77.0948 395.195 71.053V69.9137C395.21 69.5388 395.187 69.1632 395.128 68.7926C394.993 68.0386 394.629 67.3441 394.087 66.8024C393.545 66.2607 392.85 65.8979 392.095 65.7626C391.709 65.7035 391.319 65.6812 390.93 65.696H379.67H335.384L254.988 65.6475H241.108H235.411C234.537 65.6475 233.694 65.6475 232.905 65.6475C232.155 65.693 231.434 65.961 230.837 66.4171C230.305 66.8235 229.887 67.3599 229.623 67.9745C229.405 68.5235 229.302 69.1113 229.32 69.7016C229.32 70.8046 229.32 71.7378 229.32 72.5014C229.32 73.2528 229.32 73.8224 229.32 74.2224C229.32 74.6224 229.278 74.8526 229.278 74.8526Z" fill="#263238"/>
<path d="M396.76 121.157C396.76 121.465 396.669 121.766 396.497 122.022C396.326 122.278 396.083 122.478 395.798 122.596C395.513 122.714 395.199 122.745 394.897 122.685C394.594 122.624 394.317 122.476 394.099 122.258C393.88 122.04 393.732 121.763 393.672 121.461C393.612 121.159 393.643 120.846 393.761 120.561C393.879 120.276 394.078 120.033 394.335 119.862C394.591 119.691 394.893 119.6 395.201 119.6C395.615 119.6 396.011 119.764 396.304 120.056C396.596 120.348 396.76 120.744 396.76 121.157Z" fill="#263238"/>
<path d="M230.837 74.8531C230.838 75.1614 230.748 75.4631 230.577 75.72C230.406 75.9769 230.163 76.1775 229.878 76.2963C229.594 76.4151 229.28 76.4468 228.977 76.3874C228.674 76.328 228.396 76.1802 228.177 75.9626C227.959 75.745 227.81 75.4675 227.749 75.1653C227.688 74.863 227.719 74.5495 227.837 74.2646C227.954 73.9797 228.154 73.7361 228.411 73.5647C228.667 73.3933 228.969 73.3018 229.278 73.3018C229.69 73.3018 230.086 73.465 230.378 73.7558C230.67 74.0465 230.835 74.4411 230.837 74.8531Z" fill="#263238"/>
<path d="M148.943 81.4639V214.657H268.772H283.677H369.836V81.4639H148.943Z" fill="#FAFAFA"/>
<path d="M369.836 81.4639H148.943V91.3114H369.836V81.4639Z" fill="#E0E0E0"/>
<path d="M154.609 87.8395C155.316 87.8395 155.889 87.2671 155.889 86.5609C155.889 85.8547 155.316 85.2822 154.609 85.2822C153.902 85.2822 153.329 85.8547 153.329 86.5609C153.329 87.2671 153.902 87.8395 154.609 87.8395Z" fill="#263238"/>
<path d="M160.651 86.5609C160.651 86.8138 160.576 87.061 160.436 87.2713C160.295 87.4815 160.095 87.6454 159.861 87.7422C159.627 87.839 159.37 87.8643 159.122 87.815C158.873 87.7656 158.645 87.6439 158.466 87.465C158.287 87.2862 158.165 87.0584 158.116 86.8103C158.067 86.5623 158.092 86.3052 158.189 86.0716C158.286 85.8379 158.45 85.6382 158.66 85.4977C158.871 85.3572 159.118 85.2822 159.371 85.2822C159.539 85.2822 159.706 85.3153 159.861 85.3796C160.017 85.4438 160.158 85.538 160.276 85.6567C160.395 85.7755 160.49 85.9164 160.554 86.0716C160.618 86.2267 160.651 86.393 160.651 86.5609Z" fill="#263238"/>
<path d="M164.134 87.8395C164.841 87.8395 165.414 87.2671 165.414 86.5609C165.414 85.8547 164.841 85.2822 164.134 85.2822C163.427 85.2822 162.854 85.8547 162.854 86.5609C162.854 87.2671 163.427 87.8395 164.134 87.8395Z" fill="#263238"/>
<path d="M256.013 102.656C256.013 102.729 251.506 102.789 245.949 102.789C240.392 102.789 235.878 102.729 235.878 102.656C235.878 102.583 240.386 102.522 245.949 102.522C251.512 102.522 256.013 102.583 256.013 102.656Z" fill="#263238"/>
<path d="M282.798 102.656C282.798 102.729 278.29 102.789 272.727 102.789C267.164 102.789 262.663 102.729 262.663 102.656C262.663 102.583 267.17 102.522 272.727 102.522C278.284 102.522 282.798 102.583 282.798 102.656Z" fill="#75DB8D"/>
<path d="M309.576 102.656C309.576 102.729 305.068 102.789 299.511 102.789C293.954 102.789 289.447 102.729 289.447 102.656C289.447 102.583 293.948 102.522 299.511 102.522C305.075 102.522 309.576 102.583 309.576 102.656Z" fill="#263238"/>
<path d="M336.597 102.656C336.597 102.729 332.089 102.789 326.532 102.789C320.975 102.789 316.462 102.729 316.462 102.656C316.462 102.583 320.969 102.522 326.532 102.522C332.095 102.522 336.597 102.583 336.597 102.656Z" fill="#263238"/>
<path d="M360.069 105.856C360.069 105.856 360.239 105.856 360.548 105.771C360.999 105.662 361.404 105.414 361.707 105.062C361.924 104.824 362.086 104.54 362.18 104.232C362.26 103.833 362.285 103.425 362.253 103.02C362.198 102.177 362.453 101.081 361.689 100.281C361.319 99.8724 360.806 99.6209 360.257 99.5777C359.65 99.5777 359.043 99.5777 358.437 99.5777H354.336H344.902C344.514 99.5811 344.133 99.6901 343.802 99.8929C343.471 100.096 343.201 100.385 343.021 100.729C342.851 101.073 342.771 101.455 342.791 101.838V103.05C342.762 103.427 342.786 103.807 342.864 104.177C342.955 104.527 343.137 104.847 343.392 105.104C343.639 105.357 343.945 105.545 344.283 105.65C344.627 105.733 344.98 105.763 345.333 105.741L353.001 105.771L358.176 105.813H359.577H359.947C359.988 105.806 360.029 105.806 360.069 105.813H359.947H359.577H358.176L353.001 105.856H345.333C344.956 105.881 344.577 105.846 344.21 105.753C343.831 105.638 343.487 105.429 343.209 105.147C342.78 104.707 342.537 104.119 342.53 103.505C342.53 103.311 342.53 103.111 342.53 102.899V101.687C342.515 101.267 342.604 100.851 342.791 100.475C342.994 100.088 343.298 99.7633 343.671 99.5351C344.044 99.3068 344.471 99.1833 344.908 99.1777H354.299H358.4C359.043 99.1777 359.65 99.1777 360.263 99.1777C360.866 99.2271 361.425 99.5098 361.822 99.9655C362.196 100.367 362.412 100.89 362.429 101.438C362.429 101.929 362.429 102.396 362.429 102.826C362.453 103.232 362.42 103.64 362.332 104.038C362.235 104.373 362.063 104.682 361.828 104.941C361.508 105.294 361.083 105.536 360.615 105.632C360.447 105.736 360.262 105.812 360.069 105.856Z" fill="#263238"/>
<path d="M194.424 99.0801H170.904C168.592 99.0801 166.718 100.952 166.718 103.261C166.718 105.571 168.592 107.443 170.904 107.443H194.424C196.736 107.443 198.61 105.571 198.61 103.261C198.61 100.952 196.736 99.0801 194.424 99.0801Z" fill="#E0E0E0"/>
<path d="M214.663 126.817H167.683V172.219H214.663V126.817Z" fill="#75DB8D"/>
<g opacity="0.3">
<path opacity="0.3" d="M171.329 168.334L184.324 144.967L194.959 159.905L201.413 151.972L211.023 168.334H171.329Z" fill="black"/>
</g>
<g opacity="0.3">
<path opacity="0.3" d="M199.484 140.421C199.485 141.091 199.288 141.745 198.916 142.302C198.545 142.859 198.016 143.294 197.397 143.55C196.779 143.807 196.097 143.874 195.44 143.744C194.783 143.614 194.179 143.292 193.705 142.818C193.232 142.345 192.909 141.742 192.779 141.086C192.648 140.429 192.716 139.749 192.973 139.131C193.23 138.512 193.665 137.984 194.222 137.613C194.78 137.242 195.435 137.045 196.105 137.046C197.001 137.048 197.859 137.404 198.493 138.036C199.126 138.669 199.483 139.527 199.484 140.421Z" fill="black"/>
</g>
<path opacity="0.3" d="M211.023 130.381L171.335 130.351L171.104 130.581V140.774C171.104 144.111 171.104 147.373 171.104 150.561C171.104 156.918 171.104 162.929 171.104 168.462V168.656H171.298L200.127 168.553L208.178 168.504H210.283H210.823H210.993C210.928 168.495 210.863 168.495 210.798 168.504H210.24H208.093L200 168.456L171.486 168.359C171.486 162.905 171.486 156.936 171.486 150.652V140.774C171.486 139.109 171.486 137.425 171.486 135.72V130.799L210.768 130.769C210.805 142.022 210.841 151.373 210.865 157.99C210.865 161.299 210.902 163.899 210.914 165.699C210.914 166.577 210.914 167.262 210.914 167.747C210.914 167.965 210.914 168.135 210.914 168.274C210.914 168.413 210.914 168.456 210.914 168.462C210.919 168.405 210.919 168.349 210.914 168.292C210.914 168.165 210.914 167.995 210.914 167.783C210.914 167.311 210.914 166.644 210.914 165.777C210.914 163.99 210.914 161.402 210.968 158.111C210.968 151.445 211.023 141.968 211.065 130.575V130.381H211.023Z" fill="black"/>
<path d="M208.778 179.194C208.778 179.279 200.892 179.351 191.137 179.351C181.381 179.351 173.507 179.279 173.507 179.194C173.507 179.109 181.393 179.036 191.149 179.036C200.904 179.036 208.778 179.103 208.778 179.194Z" fill="#263238"/>
<path d="M215.846 184.448C215.846 184.539 205.066 184.611 191.773 184.611C178.481 184.611 167.707 184.539 167.707 184.448C167.707 184.357 178.481 184.29 191.773 184.29C205.066 184.29 215.846 184.363 215.846 184.448Z" fill="#263238"/>
<path d="M215.846 189.544C215.846 189.629 205.066 189.702 191.773 189.702C178.481 189.702 167.707 189.629 167.707 189.544C167.707 189.459 178.481 189.387 191.773 189.387C205.066 189.387 215.846 189.453 215.846 189.544Z" fill="#263238"/>
<path d="M215.846 194.635C215.846 194.72 205.066 194.793 191.773 194.793C178.481 194.793 167.707 194.72 167.707 194.635C167.707 194.55 178.481 194.478 191.773 194.478C205.066 194.478 215.846 194.526 215.846 194.635Z" fill="#263238"/>
<path d="M187.575 199.725C187.575 199.81 183.122 199.882 177.638 199.882C172.154 199.882 167.707 199.81 167.707 199.725C167.707 199.64 172.154 199.567 177.638 199.567C183.122 199.567 187.575 199.634 187.575 199.725Z" fill="#263238"/>
<path d="M283.016 126.817H236.036V172.219H283.016V126.817Z" fill="#75DB8D"/>
<g opacity="0.3">
<path opacity="0.3" d="M239.682 168.334L252.677 144.967L263.305 159.905L269.767 151.972L279.376 168.334H239.682Z" fill="black"/>
</g>
<g opacity="0.3">
<path opacity="0.3" d="M267.837 140.421C267.838 141.091 267.641 141.745 267.269 142.302C266.898 142.859 266.369 143.294 265.75 143.55C265.132 143.807 264.45 143.874 263.793 143.744C263.136 143.614 262.532 143.292 262.058 142.818C261.585 142.345 261.262 141.742 261.132 141.086C261.001 140.429 261.069 139.749 261.326 139.131C261.583 138.512 262.018 137.984 262.575 137.613C263.133 137.242 263.788 137.045 264.458 137.046C265.354 137.048 266.212 137.404 266.846 138.036C267.479 138.669 267.836 139.527 267.837 140.421Z" fill="black"/>
</g>
<path opacity="0.3" d="M279.376 130.381L239.688 130.351L239.458 130.581V140.774C239.458 144.111 239.458 147.373 239.458 150.561C239.458 156.918 239.458 162.929 239.458 168.462V168.656H239.652L268.48 168.553L276.531 168.504H278.636H279.176H279.346C279.281 168.495 279.216 168.495 279.152 168.504H278.594H276.446L268.353 168.456L239.84 168.359C239.84 162.905 239.84 156.936 239.84 150.652V140.774C239.84 139.109 239.84 137.425 239.84 135.72V130.799L279.121 130.769C279.158 142.022 279.194 151.373 279.218 157.99C279.218 161.299 279.255 163.899 279.267 165.699C279.267 166.577 279.267 167.262 279.267 167.747C279.267 167.965 279.267 168.135 279.267 168.274C279.267 168.413 279.267 168.456 279.267 168.462C279.272 168.405 279.272 168.349 279.267 168.292C279.267 168.165 279.267 167.995 279.267 167.783C279.267 167.311 279.267 166.644 279.267 165.777C279.267 163.99 279.297 161.402 279.322 158.111C279.322 151.445 279.376 141.968 279.419 130.575V130.381H279.376Z" fill="black"/>
<path d="M277.131 179.194C277.131 179.279 269.245 179.351 259.49 179.351C249.734 179.351 241.848 179.279 241.848 179.194C241.848 179.109 249.734 179.036 259.49 179.036C269.245 179.036 277.131 179.103 277.131 179.194Z" fill="#263238"/>
<path d="M284.199 184.448C284.199 184.539 273.419 184.611 260.127 184.611C246.834 184.611 236.06 184.539 236.06 184.448C236.06 184.357 246.834 184.29 260.127 184.29C273.419 184.29 284.199 184.363 284.199 184.448Z" fill="#263238"/>
<path d="M284.199 189.544C284.199 189.629 273.419 189.702 260.127 189.702C246.834 189.702 236.06 189.629 236.06 189.544C236.06 189.459 246.834 189.387 260.127 189.387C273.419 189.387 284.199 189.453 284.199 189.544Z" fill="#263238"/>
<path d="M284.199 194.635C284.199 194.72 273.419 194.793 260.127 194.793C246.834 194.793 236.06 194.72 236.06 194.635C236.06 194.55 246.834 194.478 260.127 194.478C273.419 194.478 284.199 194.526 284.199 194.635Z" fill="#263238"/>
<path d="M255.928 199.725C255.928 199.81 251.475 199.882 245.991 199.882C240.507 199.882 236.06 199.81 236.06 199.725C236.06 199.64 240.507 199.567 245.991 199.567C251.475 199.567 255.928 199.634 255.928 199.725Z" fill="#263238"/>
<path d="M350.101 126.817H303.121V172.219H350.101V126.817Z" fill="#75DB8D"/>
<g opacity="0.3">
<path opacity="0.3" d="M306.761 168.334L319.762 144.967L330.391 159.905L336.852 151.972L346.461 168.334H306.761Z" fill="black"/>
</g>
<g opacity="0.3">
<path opacity="0.3" d="M334.917 140.421C334.917 141.089 334.718 141.742 334.347 142.297C333.976 142.852 333.448 143.284 332.83 143.54C332.213 143.795 331.534 143.862 330.878 143.732C330.223 143.602 329.62 143.28 329.148 142.808C328.675 142.336 328.354 141.735 328.223 141.08C328.093 140.425 328.16 139.746 328.415 139.13C328.671 138.513 329.104 137.986 329.66 137.615C330.216 137.244 330.869 137.046 331.537 137.046C332.434 137.046 333.293 137.402 333.927 138.035C334.56 138.668 334.917 139.526 334.917 140.421Z" fill="black"/>
</g>
<path opacity="0.3" d="M346.461 130.381L306.767 130.351L306.543 130.581V140.774C306.543 144.111 306.543 147.373 306.543 150.561C306.543 156.918 306.543 162.929 306.543 168.462V168.656H306.737L335.566 168.553L343.616 168.504H345.727H346.261H346.437C346.373 168.496 346.307 168.496 346.243 168.504H345.685H343.537L335.487 168.365L306.973 168.268C306.973 162.814 306.973 156.845 306.973 150.561C306.973 147.381 306.973 144.119 306.973 140.774V130.799L346.255 130.769C346.298 142.022 346.328 151.373 346.352 157.99C346.352 161.299 346.395 163.899 346.407 165.699C346.407 166.577 346.407 167.262 346.407 167.747C346.407 167.965 346.407 168.135 346.407 168.274C346.402 168.337 346.402 168.399 346.407 168.462C346.407 168.462 346.407 168.407 346.407 168.292C346.407 168.177 346.407 167.995 346.407 167.783C346.407 167.311 346.407 166.644 346.407 165.777C346.407 163.99 346.437 161.402 346.455 158.111C346.455 151.445 346.516 141.968 346.558 130.575V130.381H346.461Z" fill="black"/>
<path d="M344.211 179.194C344.211 179.279 336.324 179.351 326.575 179.351C316.826 179.351 308.933 179.279 308.933 179.194C308.933 179.109 316.82 179.036 326.575 179.036C336.33 179.036 344.211 179.103 344.211 179.194Z" fill="#263238"/>
<path d="M351.26 184.448C351.26 184.539 340.486 184.611 327.194 184.611C313.902 184.611 303.127 184.539 303.127 184.448C303.127 184.357 313.902 184.29 327.194 184.29C340.486 184.29 351.26 184.363 351.26 184.448Z" fill="#263238"/>
<path d="M351.26 189.544C351.26 189.629 340.486 189.702 327.194 189.702C313.902 189.702 303.127 189.629 303.127 189.544C303.127 189.459 313.902 189.387 327.194 189.387C340.486 189.387 351.26 189.453 351.26 189.544Z" fill="#263238"/>
<path d="M351.26 194.635C351.26 194.72 340.486 194.793 327.194 194.793C313.902 194.793 303.127 194.72 303.127 194.635C303.127 194.55 313.902 194.478 327.194 194.478C340.486 194.478 351.26 194.526 351.26 194.635Z" fill="#263238"/>
<path d="M323.008 199.725C323.008 199.81 318.561 199.882 313.076 199.882C307.592 199.882 303.145 199.81 303.145 199.725C303.145 199.64 307.586 199.567 313.076 199.567C318.567 199.567 323.008 199.634 323.008 199.725Z" fill="#263238"/>
<path d="M369.836 113.14C369.836 113.225 320.423 113.298 259.49 113.298C198.556 113.298 149.131 113.225 149.131 113.14C149.131 113.055 198.532 112.982 259.49 112.982C320.447 112.982 369.836 113.055 369.836 113.14Z" fill="#E0E0E0"/>
<path d="M148.943 81.464L369.836 81.3125H369.982V81.464C369.982 122.436 369.982 167.461 369.982 214.639V214.814H369.824L148.931 214.778H148.809V214.657C148.882 133.059 148.931 82.4578 148.931 81.464C148.931 82.4578 148.979 133.059 149.058 214.657L148.931 214.529L369.836 214.523L369.678 214.681C369.678 167.504 369.678 122.478 369.678 81.5064L369.824 81.6519L148.943 81.464Z" fill="#263238"/>
<path d="M52.8224 149.681H24.7458C24.2825 149.681 23.8238 149.59 23.396 149.412C22.9682 149.234 22.5799 148.974 22.2534 148.645C21.9269 148.317 21.6687 147.927 21.4936 147.499C21.3185 147.07 21.23 146.611 21.2332 146.148V107.328C21.2332 106.397 21.6033 105.505 22.2621 104.847C22.9208 104.189 23.8142 103.819 24.7458 103.819H42.5515L56.335 118.012V146.148C56.3382 146.611 56.2497 147.07 56.0746 147.499C55.8995 147.927 55.6413 148.317 55.3148 148.645C54.9883 148.974 54.6 149.234 54.1722 149.412C53.7445 149.59 53.2857 149.681 52.8224 149.681Z" fill="#75DB8D"/>
<g opacity="0.2">
<path opacity="0.2" d="M21.2332 135.743H56.3349V144.185C56.3349 145.631 55.7596 147.018 54.7357 148.041C53.7117 149.064 52.323 149.639 50.8749 149.639H26.7842C25.3151 149.639 23.9059 149.057 22.8654 148.021C21.8249 146.985 21.238 145.579 21.2332 144.112V135.743Z" fill="black"/>
</g>
<g opacity="0.2">
<path opacity="0.2" d="M42.5515 103.819V114.727C42.5515 115.594 42.896 116.424 43.5093 117.037C44.1225 117.65 44.9542 117.994 45.8214 117.994H56.335L42.5515 103.819Z" fill="white"/>
</g>
<g opacity="0.2">
<path opacity="0.2" d="M42.697 115.703C42.697 115.703 42.5575 118.351 45.5787 119.224C45.6918 119.259 45.8074 119.285 45.9245 119.303C47.2956 119.545 56.3349 121.157 56.3349 120.945V118.012H45.8214C45.8214 118.012 43.1945 117.921 42.697 115.703Z" fill="black"/>
</g>
<path d="M31.2856 141.803C31.34 141.226 31.5591 140.676 31.917 140.219C32.2748 139.762 32.7564 139.418 33.3045 139.226C33.8526 139.035 34.4442 139.005 35.009 139.139C35.5738 139.274 36.0881 139.567 36.4908 139.985L35.684 140.73C35.5157 140.529 35.3049 140.368 35.0668 140.258C34.8287 140.148 34.5692 140.092 34.3068 140.094C33.8435 140.094 33.3991 140.278 33.0714 140.605C32.7437 140.933 32.5596 141.377 32.5596 141.839C32.5596 142.302 32.7437 142.746 33.0714 143.074C33.3991 143.401 33.8435 143.585 34.3068 143.585C34.5705 143.587 34.8313 143.531 35.0698 143.418C35.3083 143.306 35.5183 143.141 35.684 142.936L36.4908 143.688C36.0897 144.122 35.5693 144.428 34.9948 144.567C34.4203 144.707 33.8174 144.674 33.2615 144.473C32.7057 144.271 32.2217 143.911 31.8702 143.436C31.5187 142.961 31.3153 142.393 31.2856 141.803Z" fill="#FAFAFA"/>
<path d="M36.8669 143.997L37.2916 143.046C37.8256 143.417 38.4609 143.616 39.1116 143.616C39.8639 143.616 40.1672 143.367 40.1672 143.01C40.1672 141.985 36.9943 142.688 36.9943 140.664C36.9943 139.737 37.7405 138.968 39.2936 138.968C39.9561 138.954 40.61 139.12 41.1864 139.446L40.7981 140.404C40.3389 140.136 39.819 139.99 39.2875 139.98C38.5353 139.98 38.2501 140.258 38.2501 140.586C38.2501 141.585 41.423 140.895 41.423 142.894C41.423 143.809 40.6647 144.585 39.1055 144.585C38.3167 144.623 37.5352 144.418 36.8669 143.997Z" fill="#FAFAFA"/>
<path d="M41.8599 143.997L42.2906 143.046C42.8246 143.417 43.4599 143.616 44.1106 143.615C44.8629 143.615 45.1662 143.367 45.1662 143.009C45.1662 141.985 41.9873 142.688 41.9873 140.664C41.9873 139.737 42.7395 138.967 44.2926 138.967C44.9551 138.955 45.6087 139.12 46.1854 139.446L45.7971 140.404C45.336 140.135 44.8139 139.989 44.2805 139.979C43.5343 139.979 43.2431 140.258 43.2431 140.585C43.2431 141.585 46.422 140.895 46.422 142.894C46.422 143.809 45.6637 144.585 44.1045 144.585C43.3139 144.622 42.5308 144.417 41.8599 143.997Z" fill="#FAFAFA"/>
<path d="M33.0633 124.163C33.67 124.339 33.9066 124.696 33.9066 125.563V127.569C33.8939 127.691 33.909 127.815 33.9508 127.932C33.9925 128.048 34.0599 128.153 34.1478 128.24C34.2357 128.326 34.342 128.392 34.4588 128.432C34.5756 128.472 34.6999 128.486 34.8226 128.472H35.0471V129.999H34.3191C32.7539 129.999 31.947 129.199 31.947 127.757V125.49C31.947 125.09 31.7347 124.884 31.401 124.884H30.9824V123.351H31.401C31.7347 123.351 31.947 123.163 31.947 122.745V120.479C31.947 119.036 32.7539 118.236 34.3191 118.236H35.0471V119.763H34.8226C34.6977 119.748 34.5709 119.762 34.4521 119.804C34.3333 119.845 34.2256 119.913 34.1372 120.003C34.0487 120.092 33.982 120.201 33.942 120.32C33.9021 120.439 33.8899 120.566 33.9066 120.691V122.696C33.9066 123.624 33.6457 123.987 33.0633 124.163Z" fill="#FAFAFA"/>
<path d="M46.5859 123.393V124.926H46.1734C46.0943 124.92 46.0147 124.931 45.9408 124.96C45.8668 124.989 45.8006 125.034 45.7471 125.093C45.6937 125.152 45.6546 125.222 45.6327 125.298C45.6109 125.374 45.607 125.455 45.6213 125.532V127.799C45.6213 129.241 44.8205 130.041 43.2492 130.041H42.5212V128.472H42.7518C42.8754 128.488 43.0011 128.476 43.1195 128.437C43.2378 128.397 43.3457 128.332 43.435 128.245C43.5244 128.158 43.5928 128.052 43.6352 127.935C43.6777 127.818 43.693 127.693 43.68 127.569V125.563C43.68 124.696 43.9408 124.351 44.5172 124.163C43.9105 123.987 43.68 123.624 43.68 122.757V120.751C43.6966 120.627 43.6845 120.5 43.6445 120.381C43.6045 120.261 43.5378 120.153 43.4494 120.063C43.361 119.974 43.2532 119.906 43.1344 119.864C43.0156 119.823 42.8889 119.809 42.7639 119.824H42.5334V118.297H43.2614C44.8326 118.297 45.6334 119.097 45.6334 120.539V122.806C45.6191 122.883 45.623 122.964 45.6449 123.04C45.6667 123.116 45.7058 123.186 45.7593 123.245C45.8127 123.304 45.879 123.349 45.9529 123.378C46.0268 123.407 46.1064 123.418 46.1855 123.411L46.5859 123.393Z" fill="#FAFAFA"/>
<path d="M74.7594 158.645C74.5594 158.681 74.3559 158.696 74.1527 158.687L72.4358 158.717L66.2175 158.772H66.1265V158.639C66.1265 155.203 66.1265 150.93 66.1265 146.3C66.1265 143.422 66.1265 140.677 66.1265 138.174C66.1265 136.932 66.1265 135.75 66.1265 134.629C66.1486 134.379 66.1119 134.128 66.0191 133.896C65.9264 133.663 65.7803 133.456 65.5926 133.29C65.413 133.139 65.205 133.026 64.981 132.958C64.757 132.889 64.5214 132.866 64.2883 132.89L59.8111 132.841L58.5978 132.811C58.4567 132.828 58.3141 132.828 58.1731 132.811C58.3129 132.784 58.4555 132.774 58.5978 132.781H59.8111L64.2883 132.732C64.5494 132.703 64.8136 132.726 65.0657 132.8C65.3178 132.874 65.5526 132.997 65.7564 133.162C65.9668 133.354 66.1307 133.592 66.2358 133.856C66.3409 134.121 66.3844 134.406 66.3631 134.689C66.3631 135.804 66.3631 136.992 66.3631 138.235C66.3631 140.737 66.3631 143.483 66.3631 146.361C66.3631 150.991 66.3631 155.263 66.3631 158.699L66.2357 158.572L72.454 158.626L74.1709 158.663C74.3663 158.642 74.563 158.636 74.7594 158.645Z" fill="#263238"/>
<path d="M57.6697 184.127C57.7823 184.11 57.8968 184.11 58.0094 184.127L58.9801 184.096L62.5594 184.048C63.3117 183.999 64.1792 184.175 64.9133 183.733C65.3031 183.506 65.6188 183.171 65.8223 182.769C66.0258 182.367 66.1083 181.914 66.0599 181.466C66.0599 179.466 66.0599 177.273 66.0599 174.976C66.0599 170.389 66.0963 166.237 66.1084 163.183C66.1084 161.705 66.1448 160.493 66.157 159.608C66.157 159.214 66.157 158.893 66.157 158.638C66.1478 158.525 66.1478 158.412 66.157 158.299C66.1847 158.41 66.1969 158.524 66.1933 158.638C66.1933 158.893 66.1933 159.214 66.1933 159.608C66.1933 160.493 66.1933 161.705 66.2419 163.183C66.2419 166.213 66.2722 170.389 66.2844 174.976C66.2844 177.273 66.2844 179.466 66.2844 181.466C66.2951 181.722 66.2788 181.978 66.2358 182.23C66.1884 182.478 66.1024 182.717 65.981 182.939C65.7607 183.354 65.4288 183.699 65.0225 183.936C64.6162 184.172 64.1519 184.291 63.6817 184.278H62.4684L58.8891 184.23L57.9184 184.199C57.833 184.185 57.7496 184.16 57.6697 184.127Z" fill="#263238"/>
<path d="M77.2345 158.645C77.2345 158.884 77.1634 159.119 77.03 159.318C76.8967 159.517 76.7072 159.673 76.4855 159.764C76.2638 159.856 76.0199 159.88 75.7845 159.833C75.5491 159.787 75.3329 159.671 75.1632 159.502C74.9936 159.332 74.878 159.116 74.8312 158.881C74.7844 158.646 74.8084 158.402 74.9002 158.181C74.9921 157.959 75.1476 157.77 75.3471 157.637C75.5466 157.504 75.7812 157.433 76.0212 157.433C76.343 157.433 76.6516 157.56 76.8792 157.788C77.1067 158.015 77.2345 158.323 77.2345 158.645Z" fill="#263238"/>
<path d="M52.7314 206.324H25.5406C24.638 206.324 23.7723 205.966 23.134 205.329C22.4958 204.691 22.1372 203.826 22.1372 202.925V165.353C22.1372 164.451 22.4958 163.586 23.134 162.949C23.7723 162.311 24.638 161.953 25.5406 161.953H42.7821L56.1287 175.697V202.967C56.1176 203.86 55.7549 204.713 55.1192 205.342C54.4834 205.97 53.6257 206.323 52.7314 206.324Z" fill="#75DB8D"/>
<g opacity="0.2">
<path opacity="0.2" d="M22.1372 192.853H56.1105V201.337C56.1105 202.656 55.5858 203.922 54.6517 204.855C53.7177 205.788 52.4508 206.312 51.1298 206.312H27.0451C25.7435 206.312 24.4951 205.795 23.5747 204.876C22.6543 203.956 22.1372 202.709 22.1372 201.409V192.853Z" fill="black"/>
</g>
<path d="M34.1855 201.543L35.0409 200.518C35.1688 200.729 35.3461 200.905 35.5575 201.032C35.7689 201.159 36.0081 201.232 36.2543 201.246C36.8609 201.246 37.2007 200.876 37.2007 200.149V196.985H34.8771V195.773H38.7477V200.082C38.7477 201.724 37.9165 202.536 36.3513 202.536C35.9381 202.548 35.5278 202.465 35.1521 202.292C34.7765 202.12 34.4457 201.863 34.1855 201.543Z" fill="#FAFAFA"/>
<path d="M39.6638 201.918L40.1613 200.858C40.6979 201.181 41.3122 201.353 41.9388 201.355C42.6244 201.355 42.8792 201.173 42.8792 200.888C42.8792 200.052 39.7912 200.888 39.7912 198.864C39.7912 197.894 40.6648 197.21 42.1572 197.21C42.8392 197.197 43.5138 197.351 44.1228 197.658L43.6314 198.713C43.1822 198.458 42.6737 198.326 42.1572 198.331C41.4899 198.331 41.2048 198.543 41.2048 198.809C41.2048 199.682 44.2927 198.809 44.2927 200.846C44.2927 201.797 43.413 202.47 41.866 202.47C41.0963 202.482 40.3368 202.292 39.6638 201.918Z" fill="#FAFAFA"/>
<path d="M29.3384 185.781L30.4061 184.533C30.6899 184.989 31.0844 185.367 31.5531 185.631C32.0218 185.894 32.5496 186.036 33.0876 186.042C34.5375 186.042 35.2958 185.157 35.2958 183.436V176.237H30.6427V174.637H37.1098V183.363C37.1098 186.223 35.7144 187.635 33.0876 187.635C32.3588 187.654 31.6365 187.495 30.9832 187.172C30.3299 186.849 29.7653 186.371 29.3384 185.781Z" fill="#FAFAFA"/>
<path d="M39.3726 186.459L40.1127 185.066C41.1286 185.727 42.3155 186.079 43.5282 186.078C45.1662 186.078 45.8457 185.581 45.8457 184.757C45.8457 182.569 39.688 184.46 39.688 180.587C39.688 178.842 41.2472 177.666 43.7466 177.666C44.9949 177.642 46.2276 177.947 47.3199 178.551L46.5676 179.945C45.7249 179.419 44.7462 179.151 43.7527 179.175C42.2118 179.175 41.4595 179.745 41.4595 180.515C41.4595 182.811 47.6354 180.939 47.6354 184.72C47.6354 186.484 46.0156 187.599 43.4251 187.599C41.9892 187.643 40.5744 187.246 39.3726 186.459Z" fill="#FAFAFA"/>
<g opacity="0.3">
<path opacity="0.3" d="M42.782 161.929V172.509C42.782 173.348 43.1156 174.153 43.7095 174.746C44.3034 175.34 45.1089 175.673 45.9488 175.673H56.1347L42.782 161.929Z" fill="white"/>
</g>
<g opacity="0.2">
<path opacity="0.2" d="M42.9216 173.437C42.9278 174.238 43.2078 175.013 43.7154 175.633C44.2229 176.254 44.9275 176.683 45.7123 176.848L46.046 176.927C47.3746 177.163 56.1348 178.745 56.1348 178.515V175.673H45.9489C45.9489 175.673 43.407 175.588 42.9216 173.437Z" fill="black"/>
</g>
</svg>
