<svg width="30" height="28" viewBox="0 0 30 28" fill="none" xmlns="http://www.w3.org/2000/svg">
<path d="M27.8571 0H2.13616C0.957589 0 0 0.903452 0 2.01252V25.901C0 27.0101 0.957589 27.9135 2.13616 27.9135H27.8571C29.0357 27.9135 30 27.0101 30 25.901V2.01252C30 0.903452 29.0357 0 27.8571 0ZM9.06696 23.9259H4.62054V10.6046H9.07366V23.9259H9.06696ZM6.84375 8.78528C5.41741 8.78528 4.26562 7.70737 4.26562 6.38647C4.26562 5.06556 5.41741 3.98765 6.84375 3.98765C8.26339 3.98765 9.42187 5.06556 9.42187 6.38647C9.42187 7.7136 8.27009 8.78528 6.84375 8.78528ZM25.7344 23.9259H21.2879V17.446C21.2879 15.9007 21.2545 13.9132 18.9777 13.9132C16.6607 13.9132 16.3058 15.5954 16.3058 17.3338V23.9259H11.8594V10.6046H16.125V12.424H16.1853C16.7813 11.3773 18.2344 10.2744 20.3973 10.2744C24.8973 10.2744 25.7344 13.0346 25.7344 16.6235V23.9259Z" fill="#37474F"/>
</svg>
