<svg width="220" height="98" viewBox="0 0 220 98" fill="none" xmlns="http://www.w3.org/2000/svg">
<path d="M66.7881 53.3037C66.29 53.7139 66.0117 54.4463 65.9531 55.501C65.9238 56.5264 66.0996 57.5811 66.4805 58.665C66.8906 59.7197 67.5059 60.6572 68.3262 61.4775C69.1465 62.2979 70.1719 62.708 71.4023 62.708C72.1934 62.708 72.8672 62.5176 73.4238 62.1367C74.0098 61.7559 74.4785 61.2871 74.8301 60.7305C75.2109 60.1445 75.4893 59.5 75.665 58.7969C75.8408 58.0938 75.9287 57.4053 75.9287 56.7314C75.9287 55.7646 75.7383 54.959 75.3574 54.3145C75.0059 53.6699 74.5225 53.1133 73.9072 52.6445C73.3213 52.1465 72.6328 51.7363 71.8418 51.4141C71.0801 51.0625 70.3037 50.7109 69.5127 50.3594C68.7803 50.0664 67.9014 49.7002 66.876 49.2607C65.8506 48.792 64.8691 48.1914 63.9316 47.459C62.9941 46.6973 62.1885 45.7744 61.5146 44.6904C60.8701 43.5771 60.5479 42.2148 60.5479 40.6035C60.5479 39.5488 60.8262 38.4795 61.3828 37.3955C61.9395 36.3115 62.7305 35.3301 63.7559 34.4512C64.7812 33.543 66.0117 32.8105 67.4473 32.2539C68.9121 31.6973 70.5527 31.4189 72.3691 31.4189C74.1562 31.4189 75.6064 31.5801 76.7197 31.9023C77.833 32.2246 78.6973 32.6494 79.3125 33.1768C79.9277 33.6748 80.3379 34.2314 80.543 34.8467C80.7773 35.4326 80.8945 35.9893 80.8945 36.5166C80.8945 37.0439 80.7334 37.5859 80.4111 38.1426C80.0889 38.6699 79.708 39.168 79.2686 39.6367C78.8291 40.0762 78.375 40.4717 77.9062 40.8232C77.4375 41.1455 77.0566 41.3652 76.7637 41.4824C76.9102 41.1016 77.0566 40.5742 77.2031 39.9004C77.3496 39.2266 77.3057 38.5527 77.0713 37.8789C76.8662 37.2051 76.3535 36.6191 75.5332 36.1211C74.7422 35.623 73.4531 35.374 71.666 35.374C70.6406 35.374 69.6445 35.5352 68.6777 35.8574C67.7109 36.1797 66.8467 36.6045 66.085 37.1318C65.3525 37.6299 64.7666 38.2012 64.3271 38.8457C63.8877 39.4902 63.668 40.1494 63.668 40.8232C63.668 41.4678 63.8877 42.0684 64.3271 42.625C64.7959 43.1523 65.4111 43.665 66.1729 44.1631C66.9639 44.6318 67.8574 45.1006 68.8535 45.5693C69.8789 46.0381 70.9482 46.5068 72.0615 46.9756C73.1455 47.4443 74.2148 47.957 75.2695 48.5137C76.3242 49.041 77.2617 49.6562 78.082 50.3594C78.9316 51.0625 79.6055 51.8535 80.1035 52.7324C80.6016 53.6113 80.8506 54.6221 80.8506 55.7646C80.8506 56.9951 80.6162 58.1816 80.1475 59.3242C79.708 60.4375 79.0635 61.4189 78.2139 62.2686C77.3936 63.1182 76.3828 63.792 75.1816 64.29C73.9805 64.8174 72.6182 65.0811 71.0947 65.0811C69.7471 65.0811 68.4727 64.8613 67.2715 64.4219C66.0703 63.9824 65.0156 63.4111 64.1074 62.708C63.2285 62.0049 62.5254 61.2285 61.998 60.3789C61.4707 59.5293 61.207 58.6943 61.207 57.874C61.207 56.9951 61.3975 56.248 61.7783 55.6328C62.1885 55.0176 62.6865 54.5342 63.2725 54.1826C63.8584 53.8018 64.459 53.5381 65.0742 53.3916C65.7188 53.2451 66.29 53.2158 66.7881 53.3037ZM96.3633 59.0166C96.4219 59.2217 96.5098 59.4121 96.627 59.5879C96.7148 59.7344 96.832 59.8809 96.9785 60.0273C97.1543 60.1445 97.3594 60.2178 97.5938 60.2471C97.3887 60.6572 97.1836 60.9355 96.9785 61.082C96.8613 61.1699 96.7588 61.2285 96.6709 61.2578C96.4072 61.3457 96.0117 61.3896 95.4844 61.3896C94.957 61.3896 94.4443 61.2285 93.9463 60.9062C93.7705 60.7598 93.6094 60.54 93.4629 60.2471C93.3164 60.0127 93.1846 59.6904 93.0674 59.2803C92.9795 58.8408 92.9062 58.2842 92.8477 57.6104C92.4375 58.4893 91.9688 59.1924 91.4414 59.7197C90.9434 60.2178 90.4453 60.584 89.9473 60.8184C89.3906 61.1406 88.8193 61.3311 88.2334 61.3896C87.501 61.4482 86.7979 61.3311 86.124 61.0381C85.4795 60.7158 84.9229 60.2471 84.4541 59.6318C84.0146 58.9873 83.6777 58.2109 83.4434 57.3027C83.209 56.3945 83.1357 55.3691 83.2236 54.2266C83.3115 53.0254 83.5459 51.9561 83.9268 51.0186C84.3076 50.0811 84.7617 49.2461 85.2891 48.5137C85.8164 47.7812 86.373 47.166 86.959 46.668C87.5449 46.1406 88.1016 45.7158 88.6289 45.3936C89.1855 45.042 89.6543 44.793 90.0352 44.6465C90.4453 44.4707 90.709 44.3682 90.8262 44.3389C91.1484 44.251 91.4268 44.2217 91.6611 44.251C91.8955 44.2803 92.1006 44.4121 92.2764 44.6465C92.335 44.7344 92.4082 44.8369 92.4961 44.9541C92.5547 45.0713 92.6279 45.2324 92.7158 45.4375C92.8037 45.6133 92.877 45.8184 92.9355 46.0527C92.2324 46.375 91.5732 46.7412 90.958 47.1514C90.3428 47.5322 89.7715 48.001 89.2441 48.5576C88.7461 49.1143 88.3066 49.7881 87.9258 50.5791C87.5449 51.3701 87.252 52.3369 87.0469 53.4795C86.7539 54.915 86.8271 56.0723 87.2666 56.9512C87.7354 57.8301 88.3652 58.1963 89.1562 58.0498C89.625 57.9033 90.0791 57.625 90.5186 57.2148C90.8994 56.8633 91.2949 56.3359 91.7051 55.6328C92.1445 54.9297 92.5547 53.9629 92.9355 52.7324C93.082 50.9746 93.1992 49.5977 93.2871 48.6016C93.4043 47.5762 93.5068 46.7998 93.5947 46.2725C93.7119 45.6572 93.7998 45.2471 93.8584 45.042C93.9463 44.8955 94.1221 44.7637 94.3857 44.6465C94.6494 44.5 94.9424 44.3828 95.2646 44.2949C95.5869 44.207 95.8799 44.1631 96.1436 44.1631C96.4072 44.1338 96.583 44.1338 96.6709 44.1631C96.7295 44.1924 96.7588 44.5586 96.7588 45.2617C96.7588 45.9355 96.7295 46.7998 96.6709 47.8545C96.6416 48.8799 96.5977 50.0078 96.5391 51.2383C96.4805 52.4395 96.4219 53.582 96.3633 54.666C96.334 55.75 96.3047 56.7021 96.2754 57.5225C96.2754 58.3135 96.3047 58.8115 96.3633 59.0166ZM112.052 47.7666C112.052 48.1768 111.935 48.6016 111.7 49.041C111.495 49.4512 111.231 49.8467 110.909 50.2275C110.587 50.6084 110.221 50.9453 109.811 51.2383C109.43 51.502 109.063 51.6631 108.712 51.7217C108.946 50.8135 109.02 50.1104 108.932 49.6123C108.844 49.1143 108.697 48.748 108.492 48.5137C108.258 48.25 107.965 48.1035 107.613 48.0742C107.086 48.0742 106.573 48.3818 106.075 48.9971C105.606 49.583 105.196 50.3154 104.845 51.1943C104.493 52.0439 104.215 52.9668 104.01 53.9629C103.805 54.9297 103.702 55.8086 103.702 56.5996C103.673 57.1562 103.688 57.6982 103.746 58.2256C103.775 58.665 103.819 59.1191 103.878 59.5879C103.966 60.0566 104.083 60.4229 104.229 60.6865C104.054 60.833 103.761 61.0088 103.351 61.2139C102.97 61.4189 102.56 61.5508 102.12 61.6094C101.71 61.668 101.329 61.5947 100.978 61.3896C100.655 61.1846 100.479 60.7451 100.45 60.0713C100.392 59.4268 100.348 58.709 100.318 57.918C100.318 57.0977 100.318 56.292 100.318 55.501C100.348 54.6807 100.377 53.875 100.406 53.084C100.436 52.293 100.479 51.5605 100.538 50.8867C100.597 49.5977 100.626 48.6016 100.626 47.8984C100.626 47.1953 100.611 46.5215 100.582 45.877C100.582 45.7598 100.772 45.5986 101.153 45.3936C101.563 45.1592 102.003 44.9541 102.472 44.7783C102.97 44.6025 103.424 44.5 103.834 44.4707C104.244 44.4414 104.449 44.5293 104.449 44.7344C104.449 45.0566 104.405 45.7012 104.317 46.668C104.259 47.6055 104.171 48.5869 104.054 49.6123C104.259 49.0557 104.522 48.4551 104.845 47.8105C105.196 47.166 105.592 46.5654 106.031 46.0088C106.471 45.4521 106.969 44.998 107.525 44.6465C108.082 44.2656 108.697 44.0752 109.371 44.0752C109.898 44.0752 110.323 44.2363 110.646 44.5586C110.997 44.8809 111.275 45.2471 111.48 45.6572C111.686 46.0674 111.832 46.4775 111.92 46.8877C112.008 47.2979 112.052 47.5908 112.052 47.7666ZM126.158 59.0166C126.217 59.2217 126.305 59.4121 126.422 59.5879C126.51 59.7344 126.627 59.8809 126.773 60.0273C126.949 60.1445 127.154 60.2178 127.389 60.2471C127.184 60.6572 126.979 60.9355 126.773 61.082C126.656 61.1699 126.554 61.2285 126.466 61.2578C126.202 61.3457 125.807 61.3896 125.279 61.3896C124.752 61.3896 124.239 61.2285 123.741 60.9062C123.565 60.7598 123.404 60.54 123.258 60.2471C123.111 60.0127 122.979 59.6904 122.862 59.2803C122.774 58.8408 122.701 58.2842 122.643 57.6104C122.232 58.4893 121.764 59.1924 121.236 59.7197C120.738 60.2178 120.24 60.584 119.742 60.8184C119.186 61.1406 118.614 61.3311 118.028 61.3896C117.296 61.4482 116.593 61.3311 115.919 61.0381C115.274 60.7158 114.718 60.2471 114.249 59.6318C113.81 58.9873 113.473 58.2109 113.238 57.3027C113.004 56.3945 112.931 55.3691 113.019 54.2266C113.106 53.0254 113.341 51.9561 113.722 51.0186C114.103 50.0811 114.557 49.2461 115.084 48.5137C115.611 47.7812 116.168 47.166 116.754 46.668C117.34 46.1406 117.896 45.7158 118.424 45.3936C118.98 45.042 119.449 44.793 119.83 44.6465C120.24 44.4707 120.504 44.3682 120.621 44.3389C120.943 44.251 121.222 44.2217 121.456 44.251C121.69 44.2803 121.896 44.4121 122.071 44.6465C122.13 44.7344 122.203 44.8369 122.291 44.9541C122.35 45.0713 122.423 45.2324 122.511 45.4375C122.599 45.6133 122.672 45.8184 122.73 46.0527C122.027 46.375 121.368 46.7412 120.753 47.1514C120.138 47.5322 119.566 48.001 119.039 48.5576C118.541 49.1143 118.102 49.7881 117.721 50.5791C117.34 51.3701 117.047 52.3369 116.842 53.4795C116.549 54.915 116.622 56.0723 117.062 56.9512C117.53 57.8301 118.16 58.1963 118.951 58.0498C119.42 57.9033 119.874 57.625 120.313 57.2148C120.694 56.8633 121.09 56.3359 121.5 55.6328C121.939 54.9297 122.35 53.9629 122.73 52.7324C122.877 50.9746 122.994 49.5977 123.082 48.6016C123.199 47.5762 123.302 46.7998 123.39 46.2725C123.507 45.6572 123.595 45.2471 123.653 45.042C123.741 44.8955 123.917 44.7637 124.181 44.6465C124.444 44.5 124.737 44.3828 125.06 44.2949C125.382 44.207 125.675 44.1631 125.938 44.1631C126.202 44.1338 126.378 44.1338 126.466 44.1631C126.524 44.1924 126.554 44.5586 126.554 45.2617C126.554 45.9355 126.524 46.7998 126.466 47.8545C126.437 48.8799 126.393 50.0078 126.334 51.2383C126.275 52.4395 126.217 53.582 126.158 54.666C126.129 55.75 126.1 56.7021 126.07 57.5225C126.07 58.3135 126.1 58.8115 126.158 59.0166ZM151.295 56.7314C151.002 55.8232 150.709 55.0176 150.416 54.3145C150.152 53.6113 149.918 53.0107 149.713 52.5127C148.57 52.8936 147.325 53.1572 145.978 53.3037C145.978 55.1787 146.021 56.7754 146.109 58.0938C146.139 58.9141 146.168 59.6172 146.197 60.2031C146.256 60.7598 146.3 61.2432 146.329 61.6533C146.388 62.0635 146.446 62.4297 146.505 62.752C146.563 63.1035 146.651 63.4404 146.769 63.7627C146.183 64.2021 145.611 64.5244 145.055 64.7295C144.527 64.9346 144.059 65.0811 143.648 65.1689C143.15 65.2861 142.711 65.3154 142.33 65.2568C142.184 64.8467 142.052 64.4072 141.935 63.9385C141.817 63.499 141.729 62.8838 141.671 62.0928C141.642 61.3311 141.627 60.3496 141.627 59.1484C141.627 57.9473 141.671 56.4092 141.759 54.5342C141.788 54.3291 141.803 54.124 141.803 53.9189C141.803 53.7139 141.817 53.5088 141.847 53.3037C141.583 53.2744 141.305 53.2451 141.012 53.2158C140.748 53.1865 140.484 53.1572 140.221 53.1279C140.045 52.6592 139.928 52.249 139.869 51.8975C139.811 51.5166 139.781 51.209 139.781 50.9746C139.781 50.6816 139.811 50.4473 139.869 50.2715C140.338 50.3594 140.807 50.4033 141.275 50.4033H141.935C141.993 49.1729 142.052 47.9277 142.11 46.668C142.169 45.3789 142.213 44.1338 142.242 42.9326C142.301 41.7021 142.345 40.5449 142.374 39.4609C142.403 38.3477 142.433 37.3369 142.462 36.4287C141.583 37.0146 140.821 37.7764 140.177 38.7139C139.532 39.6514 139.093 40.7354 138.858 41.9658C138.478 41.9072 138.155 41.7314 137.892 41.4385C137.628 41.1162 137.408 40.7939 137.232 40.4717C137.027 40.0908 136.852 39.666 136.705 39.1973C136.559 38.6406 136.559 38.084 136.705 37.5273C136.852 36.9414 137.071 36.3994 137.364 35.9014C137.657 35.374 137.994 34.9199 138.375 34.5391C138.756 34.1289 139.122 33.8066 139.474 33.5723C140.089 33.1914 140.719 32.8545 141.363 32.5615C142.037 32.2393 142.784 31.9756 143.604 31.7705C143.927 31.4482 144.278 31.1553 144.659 30.8916C145.069 30.6279 145.45 30.4668 145.802 30.4082C146.3 30.291 146.578 30.5986 146.637 31.3311C146.9 31.3018 147.179 31.2871 147.472 31.2871C147.765 31.2578 148.072 31.2432 148.395 31.2432C149.508 31.2432 150.665 31.4189 151.866 31.7705C153.067 32.1221 154.166 32.6934 155.162 33.4844C156.188 34.2461 157.022 35.2568 157.667 36.5166C158.312 37.7471 158.634 39.2559 158.634 41.043C158.634 43.0645 158.15 44.9248 157.184 46.624C156.246 48.3232 154.898 49.7295 153.141 50.8428C153.346 51.3701 153.609 52.0293 153.932 52.8203C154.254 53.6113 154.576 54.5049 154.898 55.501C155.367 56.7314 155.865 57.8887 156.393 58.9727C156.949 60.0273 157.521 60.9502 158.106 61.7412C158.692 62.5322 159.308 63.1621 159.952 63.6309C160.597 64.1289 161.241 64.4219 161.886 64.5098C161.505 65.0957 161.065 65.5059 160.567 65.7402C160.069 65.9746 159.571 66.1211 159.073 66.1797C158.517 66.2676 157.931 66.2676 157.315 66.1797C156.466 66.0039 155.733 65.5938 155.118 64.9492C154.503 64.3047 153.961 63.5283 153.492 62.6201C153.053 61.7119 152.643 60.7451 152.262 59.7197C151.91 58.665 151.588 57.6689 151.295 56.7314ZM146.197 38.0107C146.197 38.6553 146.183 39.4316 146.153 40.3398C146.124 41.248 146.095 42.2295 146.065 43.2842C146.065 44.3389 146.051 45.4521 146.021 46.624C145.992 47.7666 145.978 48.9092 145.978 50.0518C146.769 49.9346 147.633 49.7441 148.57 49.4805C149.537 49.2168 150.431 48.7773 151.251 48.1621C152.071 47.5469 152.76 46.7266 153.316 45.7012C153.873 44.6758 154.151 43.3574 154.151 41.7461C154.151 40.5156 153.932 39.4756 153.492 38.626C153.082 37.7471 152.54 37.0439 151.866 36.5166C151.192 35.96 150.445 35.5645 149.625 35.3301C148.834 35.0664 148.043 34.9346 147.252 34.9346C147.105 34.9346 146.959 34.9346 146.812 34.9346C146.666 34.9346 146.505 34.9492 146.329 34.9785C146.241 35.916 146.197 36.9268 146.197 38.0107Z" fill="white"/>
<path d="M19.6216 48.2578L42.3169 56.1875L42.3169 67.0469L8.29346 52.7891L8.29346 43.6094L42.3169 29.3125L42.3169 40.2109L19.6216 48.2578Z" fill="#129DFF"/>
<path d="M199.383 49.7422L176.688 41.8125V30.9531L210.711 45.2109V54.3906L176.688 68.6875V57.7891L199.383 49.7422Z" fill="#129DFF"/>
</svg>
