<svg width="59" height="25" viewBox="0 0 59 25" fill="none" xmlns="http://www.w3.org/2000/svg">
<path d="M6.15234 6.29297C6.25 6.37109 6.32812 6.46875 6.38672 6.58594C6.46484 6.70312 6.52344 6.83008 6.5625 6.9668C6.62109 7.12305 6.66016 7.28906 6.67969 7.46484C6.69922 7.64062 6.70898 7.81641 6.70898 7.99219C6.70898 8.14844 6.69922 8.30469 6.67969 8.46094C6.66016 8.61719 6.63086 8.76367 6.5918 8.90039C5.84961 9.36914 5.17578 9.80859 4.57031 10.2188C3.98438 10.6094 3.48633 10.9512 3.07617 11.2441C2.58789 11.5957 2.1582 11.918 1.78711 12.2109C2.11914 12.543 2.5293 12.9043 3.01758 13.2949C3.42773 13.6465 3.92578 14.0664 4.51172 14.5547C5.09766 15.0234 5.77148 15.5605 6.5332 16.166C6.57227 16.3223 6.58203 16.5078 6.5625 16.7227C6.5625 16.918 6.54297 17.1133 6.50391 17.3086C6.46484 17.5234 6.41602 17.748 6.35742 17.9824C6.31836 18.1582 6.2793 18.3047 6.24023 18.4219C6.20117 18.5195 6.16211 18.6172 6.12305 18.7148C6.10352 18.793 6.08398 18.8125 6.06445 18.7734C5.10742 18.0312 4.26758 17.3379 3.54492 16.6934C2.8418 16.0488 2.25586 15.4922 1.78711 15.0234C1.2207 14.4766 0.742188 13.9785 0.351562 13.5293C0.273438 13.4316 0.205078 13.2656 0.146484 13.0312C0.0878906 12.7773 0.0488281 12.5234 0.0292969 12.2695C0.00976562 11.9961 0 11.752 0 11.5371C0.0195313 11.3027 0.0683594 11.1562 0.146484 11.0977C0.400391 10.8633 0.683594 10.6191 0.996094 10.3652C1.30859 10.0918 1.62109 9.81836 1.93359 9.54492C2.26562 9.27148 2.59766 9.00781 2.92969 8.75391C3.26172 8.48047 3.57422 8.23633 3.86719 8.02148C4.16016 7.78711 4.44336 7.5625 4.7168 7.34766C4.95117 7.15234 5.19531 6.9668 5.44922 6.79102C5.72266 6.5957 5.95703 6.42969 6.15234 6.29297ZM18.252 15.6973C17.9199 15.9707 17.7344 16.459 17.6953 17.1621C17.6758 17.8457 17.793 18.5488 18.0469 19.2715C18.3203 19.9746 18.7305 20.5996 19.2773 21.1465C19.8242 21.6934 20.5078 21.9668 21.3281 21.9668C21.8555 21.9668 22.3047 21.8398 22.6758 21.5859C23.0664 21.332 23.3789 21.0195 23.6133 20.6484C23.8672 20.2578 24.0527 19.8281 24.1699 19.3594C24.2871 18.8906 24.3457 18.4316 24.3457 17.9824C24.3457 17.3379 24.2188 16.8008 23.9648 16.3711C23.7305 15.9414 23.4082 15.5703 22.998 15.2578C22.6074 14.9258 22.1484 14.6523 21.6211 14.4375C21.1133 14.2031 20.5957 13.9688 20.0684 13.7344C19.5801 13.5391 18.9941 13.2949 18.3105 13.002C17.627 12.6895 16.9727 12.2891 16.3477 11.8008C15.7227 11.293 15.1855 10.6777 14.7363 9.95508C14.3066 9.21289 14.0918 8.30469 14.0918 7.23047C14.0918 6.52734 14.2773 5.81445 14.6484 5.0918C15.0195 4.36914 15.5469 3.71484 16.2305 3.12891C16.9141 2.52344 17.7344 2.03516 18.6914 1.66406C19.668 1.29297 20.7617 1.10742 21.9727 1.10742C23.1641 1.10742 24.1309 1.21484 24.873 1.42969C25.6152 1.64453 26.1914 1.92773 26.6016 2.2793C27.0117 2.61133 27.2852 2.98242 27.4219 3.39258C27.5781 3.7832 27.6562 4.1543 27.6562 4.50586C27.6562 4.85742 27.5488 5.21875 27.334 5.58984C27.1191 5.94141 26.8652 6.27344 26.5723 6.58594C26.2793 6.87891 25.9766 7.14258 25.6641 7.37695C25.3516 7.5918 25.0977 7.73828 24.9023 7.81641C25 7.5625 25.0977 7.21094 25.1953 6.76172C25.293 6.3125 25.2637 5.86328 25.1074 5.41406C24.9707 4.96484 24.6289 4.57422 24.082 4.24219C23.5547 3.91016 22.6953 3.74414 21.5039 3.74414C20.8203 3.74414 20.1562 3.85156 19.5117 4.06641C18.8672 4.28125 18.291 4.56445 17.7832 4.91602C17.2949 5.24805 16.9043 5.62891 16.6113 6.05859C16.3184 6.48828 16.1719 6.92773 16.1719 7.37695C16.1719 7.80664 16.3184 8.20703 16.6113 8.57812C16.9238 8.92969 17.334 9.27148 17.8418 9.60352C18.3691 9.91602 18.9648 10.2285 19.6289 10.541C20.3125 10.8535 21.0254 11.166 21.7676 11.4785C22.4902 11.791 23.2031 12.1328 23.9062 12.5039C24.6094 12.8555 25.2344 13.2656 25.7812 13.7344C26.3477 14.2031 26.7969 14.7305 27.1289 15.3164C27.4609 15.9023 27.627 16.5762 27.627 17.3379C27.627 18.1582 27.4707 18.9492 27.1582 19.7109C26.8652 20.4531 26.4355 21.1074 25.8691 21.6738C25.3223 22.2402 24.6484 22.6895 23.8477 23.0215C23.0469 23.373 22.1387 23.5488 21.123 23.5488C20.2246 23.5488 19.375 23.4023 18.5742 23.1094C17.7734 22.8164 17.0703 22.4355 16.4648 21.9668C15.8789 21.498 15.4102 20.9805 15.0586 20.4141C14.707 19.8477 14.5312 19.291 14.5312 18.7441C14.5312 18.1582 14.6582 17.6602 14.9121 17.25C15.1855 16.8398 15.5176 16.5176 15.9082 16.2832C16.2988 16.0293 16.6992 15.8535 17.1094 15.7559C17.5391 15.6582 17.9199 15.6387 18.252 15.6973ZM37.4414 17.9824C37.2461 17.377 37.0508 16.8398 36.8555 16.3711C36.6797 15.9023 36.5234 15.502 36.3867 15.1699C35.625 15.4238 34.7949 15.5996 33.8965 15.6973C33.8965 16.9473 33.9258 18.0117 33.9844 18.8906C34.0039 19.4375 34.0234 19.9062 34.043 20.2969C34.082 20.668 34.1113 20.9902 34.1309 21.2637C34.1699 21.5371 34.209 21.7812 34.248 21.9961C34.2871 22.2305 34.3457 22.4551 34.4238 22.6699C34.0332 22.9629 33.6523 23.1777 33.2812 23.3145C32.9297 23.4512 32.6172 23.5488 32.3438 23.6074C32.0117 23.6855 31.7188 23.7051 31.4648 23.666C31.3672 23.3926 31.2793 23.0996 31.2012 22.7871C31.123 22.4941 31.0645 22.084 31.0254 21.5566C31.0059 21.0488 30.9961 20.3945 30.9961 19.5938C30.9961 18.793 31.0254 17.7676 31.084 16.5176C31.1035 16.3809 31.1133 16.2441 31.1133 16.1074C31.1133 15.9707 31.123 15.834 31.1426 15.6973C30.9668 15.6777 30.7812 15.6582 30.5859 15.6387C30.4102 15.6191 30.2344 15.5996 30.0586 15.5801C29.9414 15.2676 29.8633 14.9941 29.8242 14.7598C29.7852 14.5059 29.7656 14.3008 29.7656 14.1445C29.7656 13.9492 29.7852 13.793 29.8242 13.6758C30.1367 13.7344 30.4492 13.7637 30.7617 13.7637H31.2012C31.2402 12.9434 31.2793 12.1133 31.3184 11.2734C31.3574 10.4141 31.3867 9.58398 31.4062 8.7832C31.4453 7.96289 31.4746 7.19141 31.4941 6.46875C31.5137 5.72656 31.5332 5.05273 31.5527 4.44727C30.9668 4.83789 30.459 5.3457 30.0293 5.9707C29.5996 6.5957 29.3066 7.31836 29.1504 8.13867C28.8965 8.09961 28.6816 7.98242 28.5059 7.78711C28.3301 7.57227 28.1836 7.35742 28.0664 7.14258C27.9297 6.88867 27.8125 6.60547 27.7148 6.29297C27.6172 5.92188 27.6172 5.55078 27.7148 5.17969C27.8125 4.78906 27.959 4.42773 28.1543 4.0957C28.3496 3.74414 28.5742 3.44141 28.8281 3.1875C29.082 2.91406 29.3262 2.69922 29.5605 2.54297C29.9707 2.28906 30.3906 2.06445 30.8203 1.86914C31.2695 1.6543 31.7676 1.47852 32.3145 1.3418C32.5293 1.12695 32.7637 0.931641 33.0176 0.755859C33.291 0.580078 33.5449 0.472656 33.7793 0.433594C34.1113 0.355469 34.2969 0.560547 34.3359 1.04883C34.5117 1.0293 34.6973 1.01953 34.8926 1.01953C35.0879 1 35.293 0.990234 35.5078 0.990234C36.25 0.990234 37.0215 1.10742 37.8223 1.3418C38.623 1.57617 39.3555 1.95703 40.0195 2.48438C40.7031 2.99219 41.2598 3.66602 41.6895 4.50586C42.1191 5.32617 42.334 6.33203 42.334 7.52344C42.334 8.87109 42.0117 10.1113 41.3672 11.2441C40.7422 12.377 39.8438 13.3145 38.6719 14.0566C38.8086 14.4082 38.9844 14.8477 39.1992 15.375C39.4141 15.9023 39.6289 16.498 39.8438 17.1621C40.1562 17.9824 40.4883 18.7539 40.8398 19.4766C41.2109 20.1797 41.5918 20.7949 41.9824 21.3223C42.373 21.8496 42.7832 22.2695 43.2129 22.582C43.6426 22.9141 44.0723 23.1094 44.502 23.168C44.248 23.5586 43.9551 23.832 43.623 23.9883C43.291 24.1445 42.959 24.2422 42.627 24.2812C42.2559 24.3398 41.8652 24.3398 41.4551 24.2812C40.8887 24.1641 40.4004 23.8906 39.9902 23.4609C39.5801 23.0312 39.2188 22.5137 38.9062 21.9082C38.6133 21.3027 38.3398 20.6582 38.0859 19.9746C37.8516 19.2715 37.6367 18.6074 37.4414 17.9824ZM34.043 5.50195C34.043 5.93164 34.0332 6.44922 34.0137 7.05469C33.9941 7.66016 33.9746 8.31445 33.9551 9.01758C33.9551 9.7207 33.9453 10.4629 33.9258 11.2441C33.9062 12.0059 33.8965 12.7676 33.8965 13.5293C34.4238 13.4512 35 13.3242 35.625 13.1484C36.2695 12.9727 36.8652 12.6797 37.4121 12.2695C37.959 11.8594 38.418 11.3125 38.7891 10.6289C39.1602 9.94531 39.3457 9.06641 39.3457 7.99219C39.3457 7.17188 39.1992 6.47852 38.9062 5.91211C38.6328 5.32617 38.2715 4.85742 37.8223 4.50586C37.373 4.13477 36.875 3.87109 36.3281 3.71484C35.8008 3.53906 35.2734 3.45117 34.7461 3.45117C34.6484 3.45117 34.5508 3.45117 34.4531 3.45117C34.3555 3.45117 34.248 3.46094 34.1309 3.48047C34.0723 4.10547 34.043 4.7793 34.043 5.50195ZM52.1387 6.29297C52.3145 6.42969 52.5293 6.5957 52.7832 6.79102C53.0566 6.9668 53.3105 7.15234 53.5449 7.34766C53.8184 7.5625 54.1016 7.78711 54.3945 8.02148C54.9805 8.4707 55.6152 8.98828 56.2988 9.57422C57.002 10.1406 57.6074 10.6484 58.1152 11.0977C58.1934 11.1562 58.2422 11.3027 58.2617 11.5371C58.2812 11.752 58.2715 11.9961 58.2324 12.2695C58.2129 12.5234 58.1738 12.7773 58.1152 13.0312C58.0566 13.2656 57.9883 13.4316 57.9102 13.5293C57.5195 13.9785 57.0508 14.4766 56.5039 15.0234C56.0352 15.4922 55.4395 16.0488 54.7168 16.6934C54.0137 17.3379 53.1836 18.0312 52.2266 18.7734C52.207 18.8125 52.1777 18.793 52.1387 18.7148C52.1191 18.6172 52.0898 18.5195 52.0508 18.4219C51.9922 18.3047 51.9434 18.1582 51.9043 17.9824C51.8457 17.748 51.7969 17.5234 51.7578 17.3086C51.7188 17.1133 51.6895 16.918 51.6699 16.7227C51.6699 16.5078 51.6895 16.3223 51.7285 16.166C52.4902 15.5605 53.1641 15.0234 53.75 14.5547C54.3359 14.0664 54.834 13.6465 55.2441 13.2949C55.7129 12.9043 56.123 12.543 56.4746 12.2109C56.1035 11.918 55.6738 11.5957 55.1855 11.2441C54.7754 10.9512 54.2676 10.6094 53.6621 10.2188C53.0762 9.80859 52.4121 9.36914 51.6699 8.90039C51.6113 8.76367 51.5723 8.61719 51.5527 8.46094C51.5527 8.30469 51.5527 8.14844 51.5527 7.99219C51.5527 7.81641 51.5625 7.64062 51.582 7.46484C51.6016 7.28906 51.6406 7.12305 51.6992 6.9668C51.7383 6.83008 51.7871 6.70312 51.8457 6.58594C51.9238 6.46875 52.0215 6.37109 52.1387 6.29297Z" fill="black"/>
</svg>
